<svg width="138" height="47" viewBox="0 0 138 47" fill="none" xmlns="http://www.w3.org/2000/svg">
<g clip-path="url(#clip0_103_3602)">
<path d="M127.011 3.06792e-05H10.9957C10.5728 3.06792e-05 10.155 3.06792e-05 9.73319 0.00238067C9.38013 0.00473066 9.02988 0.0115574 8.67343 0.0173031C7.89905 0.0265877 7.1265 0.096 6.36248 0.224937C5.59953 0.35668 4.86048 0.605055 4.17033 0.961659C3.48102 1.32128 2.85118 1.78857 2.30365 2.34658C1.75326 2.90302 1.29446 3.54619 0.944898 4.25135C0.594374 4.95512 0.35132 5.70926 0.22413 6.48775C0.0957306 7.26525 0.0266377 8.05172 0.0174714 8.84009C0.00676945 9.20035 0.00563929 9.5618 0 9.9221V37.0813C0.00563929 37.4461 0.00676945 37.7995 0.0174714 38.1645C0.0266405 38.9528 0.0957334 39.7393 0.22413 40.5167C0.350969 41.2957 0.594037 42.0502 0.944898 42.7543C1.2943 43.4571 1.75316 44.0977 2.30365 44.6511C2.8491 45.2115 3.47935 45.6792 4.17033 46.036C4.86047 46.3936 5.59944 46.6434 6.36248 46.7772C7.12663 46.9051 7.8991 46.9746 8.67343 46.985C9.02988 46.9929 9.38013 46.9975 9.73319 46.9975C10.1549 46.9999 10.5728 46.9999 10.9957 46.9999H127.011C127.425 46.9999 127.846 46.9999 128.261 46.9975C128.612 46.9975 128.972 46.9929 129.324 46.985C130.097 46.9751 130.868 46.9057 131.63 46.7772C132.396 46.6425 133.137 46.3927 133.831 46.036C134.521 45.6789 135.151 45.2114 135.696 44.6511C136.245 44.0955 136.705 43.4554 137.059 42.7543C137.407 42.0497 137.647 41.2952 137.772 40.5167C137.901 39.7391 137.973 38.9529 137.987 38.1645C137.991 37.7995 137.991 37.4461 137.991 37.0813C138 36.6544 138 36.2299 138 35.7961V11.2049C138 10.7747 138 10.3478 137.991 9.9221C137.991 9.5618 137.991 9.20034 137.987 8.84004C137.973 8.0516 137.901 7.26531 137.772 6.4877C137.647 5.70967 137.406 4.95558 137.059 4.25131C136.347 2.83788 135.218 1.68735 133.831 0.961554C133.137 0.60582 132.396 0.357512 131.63 0.224831C130.868 0.0953261 130.097 0.0258897 129.324 0.0171386C128.972 0.0114046 128.612 0.00451916 128.261 0.00222792C127.846 -0.00012207 127.425 -0.00012207 127.011 -0.00012207V3.06792e-05Z" fill="#A6A6A6"/>
<path d="M9.6227 46.1241C9.27064 46.1241 8.92709 46.1195 8.5778 46.1114C7.85421 46.1018 7.13231 46.0373 6.41803 45.9184C5.75199 45.801 5.10678 45.5825 4.50368 45.2702C3.90611 44.9604 3.36108 44.5543 2.88946 44.0673C2.41102 43.5861 2.01269 43.028 1.71027 42.415C1.40452 41.7981 1.19292 41.1368 1.08284 40.4543C0.963969 39.7208 0.899654 38.9792 0.890452 38.2358C0.883126 37.9862 0.873535 37.1554 0.873535 37.1554V9.82313C0.873535 9.82313 0.88375 9.00506 0.890509 8.76472C0.899321 8.02249 0.963262 7.28202 1.08178 6.54971C1.19206 5.86526 1.40382 5.20209 1.70974 4.58314C2.01105 3.97062 2.40716 3.41206 2.88272 2.9291C3.35775 2.44156 3.90453 2.03334 4.50311 1.71933C5.10483 1.40801 5.74882 1.19106 6.41351 1.07575C7.13014 0.955733 7.85455 0.890847 8.58064 0.881634L9.62327 0.867188H128.371L129.426 0.882214C130.146 0.890969 130.864 0.955276 131.574 1.07459C132.245 1.19135 132.896 1.40982 133.504 1.7228C134.704 2.35562 135.679 3.35681 136.295 4.58603C136.596 5.2007 136.805 5.85847 136.913 6.53701C137.033 7.27532 137.1 8.02161 137.114 8.76993C137.118 9.10501 137.118 9.46493 137.118 9.82313C137.127 10.2668 137.127 10.6891 137.127 11.1149V35.8774C137.127 36.3073 137.127 36.7267 137.118 37.1496C137.118 37.5344 137.118 37.8869 137.113 38.2496C137.1 38.9846 137.034 39.7176 136.916 40.4427C136.808 41.1302 136.597 41.7966 136.292 42.4186C135.987 43.0249 135.591 43.5782 135.118 44.0581C134.646 44.5477 134.1 44.9562 133.501 45.2679C132.894 45.5826 132.244 45.8019 131.574 45.9184C130.86 46.0379 130.138 46.1024 129.414 46.1114C129.075 46.1195 128.721 46.1241 128.377 46.1241L127.124 46.1264L9.6227 46.1241Z" fill="#212225"/>
<path d="M28.5622 23.4067C28.5746 22.4441 28.8303 21.5004 29.3055 20.6632C29.7806 19.826 30.4598 19.1225 31.2799 18.6184C30.7589 17.8744 30.0717 17.2621 29.2727 16.8301C28.4737 16.3982 27.585 16.1585 26.6772 16.1301C24.7406 15.9268 22.8632 17.2889 21.8764 17.2889C20.8705 17.2889 19.3511 16.1502 17.715 16.1839C16.6567 16.2181 15.6253 16.5258 14.7213 17.0772C13.8173 17.6285 13.0716 18.4046 12.5567 19.3298C10.3263 23.1913 11.99 28.8665 14.1264 31.9879C15.1954 33.5163 16.4446 35.2236 18.0793 35.1631C19.6789 35.0967 20.2763 34.1431 22.2072 34.1431C24.1201 34.1431 24.6806 35.1631 26.3484 35.1246C28.0648 35.0967 29.1463 33.5893 30.1777 32.0464C30.9457 30.9573 31.5367 29.7537 31.9288 28.48C30.9316 28.0582 30.0806 27.3522 29.4819 26.4501C28.8833 25.5479 28.5634 24.4894 28.5622 23.4067Z" fill="white"/>
<path d="M25.4121 14.0802C26.3479 12.9567 26.809 11.5127 26.6973 10.0547C25.2675 10.2049 23.9468 10.8882 22.9983 11.9686C22.5345 12.4964 22.1793 13.1104 21.953 13.7756C21.7267 14.4408 21.6337 15.144 21.6793 15.8451C22.3945 15.8525 23.102 15.6975 23.7486 15.3918C24.3951 15.086 24.9639 14.6376 25.4121 14.0802Z" fill="white"/>
<path d="M48.7809 31.2939H43.3222L42.0113 35.1647H39.6992L44.8696 20.8438H47.2718L52.4422 35.1647H50.0906L48.7809 31.2939ZM43.8876 29.5077H48.2145L46.0814 23.2257H46.0217L43.8876 29.5077Z" fill="white"/>
<path d="M63.6081 29.9495C63.6081 33.1941 61.8715 35.2787 59.2508 35.2787C58.587 35.3134 57.9267 35.1605 57.3457 34.8374C56.7648 34.5144 56.2865 34.0342 55.9657 33.452H55.9161V38.6235H53.7729V24.7284H55.8474V26.465H55.8869C56.2224 25.8855 56.7087 25.4079 57.2942 25.0828C57.8796 24.7578 58.5422 24.5975 59.2114 24.6191C61.8613 24.6191 63.6081 26.7139 63.6081 29.9495ZM61.4052 29.9495C61.4052 27.8356 60.3128 26.4458 58.646 26.4458C57.0085 26.4458 55.9071 27.8649 55.9071 29.9495C55.9071 32.0532 57.0085 33.4621 58.646 33.4621C60.3128 33.4621 61.4052 32.0825 61.4052 29.9495Z" fill="white"/>
<path d="M75.1022 29.9495C75.1022 33.1941 73.3656 35.2787 70.745 35.2787C70.0811 35.3134 69.4209 35.1605 68.8399 34.8374C68.2589 34.5144 67.7806 34.0342 67.4598 33.452H67.4102V38.6235H65.2671V24.7283H67.3415V26.465H67.381C67.7165 25.8855 68.2028 25.4078 68.7883 25.0828C69.3737 24.7578 70.0363 24.5975 70.7055 24.6191C73.3555 24.6191 75.1022 26.7139 75.1022 29.9495ZM72.8994 29.9495C72.8994 27.8356 71.807 26.4458 70.1402 26.4458C68.5027 26.4458 67.4013 27.8649 67.4013 29.9495C67.4013 32.0532 68.5027 33.4621 70.1402 33.4621C71.807 33.4621 72.8994 32.0825 72.8994 29.9495H72.8994Z" fill="white"/>
<path d="M82.6947 31.1789C82.8535 32.5991 84.2331 33.5315 86.1183 33.5315C87.9247 33.5315 89.2244 32.599 89.2244 31.3185C89.2244 30.207 88.4405 29.5414 86.5846 29.0853L84.7286 28.6381C82.0989 28.003 80.8781 26.7731 80.8781 24.7775C80.8781 22.3066 83.0314 20.6094 86.089 20.6094C89.1151 20.6094 91.1896 22.3066 91.2594 24.7775H89.096C88.9664 23.3483 87.7851 22.4857 86.0586 22.4857C84.3321 22.4857 83.1507 23.3585 83.1507 24.6288C83.1507 25.6413 83.9053 26.2371 85.7511 26.6931L87.3289 27.0806C90.2672 27.7754 91.488 28.9557 91.488 31.0504C91.488 33.7297 89.3538 35.4078 85.9595 35.4078C82.7836 35.4078 80.6393 33.7691 80.5008 31.1788L82.6947 31.1789Z" fill="white"/>
<path d="M96.1133 22.2578V24.7287H98.0988V26.4259H96.1133V32.182C96.1133 33.0762 96.5109 33.4929 97.3836 33.4929C97.6194 33.4888 97.8547 33.4722 98.0887 33.4433V35.1304C97.6962 35.2037 97.2974 35.2369 96.8983 35.2295C94.7844 35.2295 93.96 34.4355 93.96 32.4106V26.4259H92.4419V24.7287H93.96V22.2578H96.1133Z" fill="white"/>
<path d="M99.2485 29.9511C99.2485 26.6659 101.183 24.6016 104.2 24.6016C107.228 24.6016 109.153 26.6659 109.153 29.9511C109.153 33.2452 107.238 35.3006 104.2 35.3006C101.164 35.3006 99.2485 33.2452 99.2485 29.9511ZM106.97 29.9511C106.97 27.6975 105.937 26.3675 104.2 26.3675C102.464 26.3675 101.432 27.7077 101.432 29.9511C101.432 32.2136 102.464 33.5336 104.2 33.5336C105.937 33.5336 106.97 32.2136 106.97 29.9511H106.97Z" fill="white"/>
<path d="M110.924 24.7283H112.968V26.5054H113.017C113.156 25.9504 113.481 25.4599 113.938 25.1163C114.396 24.7728 114.957 24.5972 115.529 24.619C115.776 24.6181 116.022 24.645 116.263 24.699V26.7036C115.951 26.6083 115.626 26.5646 115.3 26.5741C114.989 26.5615 114.679 26.6164 114.39 26.735C114.102 26.8537 113.843 27.0333 113.631 27.2615C113.419 27.4897 113.259 27.7611 113.161 28.0571C113.064 28.3531 113.032 28.6667 113.067 28.9763V35.1694H110.924L110.924 24.7283Z" fill="white"/>
<path d="M126.142 32.1044C125.854 33.9998 124.008 35.3006 121.646 35.3006C118.609 35.3006 116.724 33.2655 116.724 30.0006C116.724 26.7256 118.619 24.6016 121.556 24.6016C124.445 24.6016 126.261 26.5859 126.261 29.7517V30.486H118.887V30.6155C118.853 30.9998 118.901 31.3869 119.028 31.7511C119.155 32.1154 119.358 32.4484 119.624 32.7281C119.89 33.0078 120.212 33.2278 120.569 33.3735C120.926 33.5192 121.31 33.5871 121.696 33.573C122.202 33.6204 122.711 33.5031 123.145 33.2385C123.579 32.9739 123.917 32.5761 124.107 32.1044L126.142 32.1044ZM118.897 28.9882H124.117C124.136 28.6426 124.084 28.2969 123.963 27.9726C123.843 27.6483 123.656 27.3524 123.416 27.1036C123.175 26.8548 122.886 26.6583 122.566 26.5266C122.246 26.3949 121.902 26.3307 121.556 26.3382C121.207 26.3361 120.861 26.4032 120.538 26.5355C120.215 26.6678 119.922 26.8628 119.675 27.1091C119.427 27.3555 119.231 27.6484 119.098 27.9709C118.965 28.2934 118.896 28.6392 118.897 28.9882V28.9882Z" fill="white"/>
<path d="M42.3667 12.977H43.2868C43.4452 12.9968 43.606 12.9835 43.759 12.938C43.912 12.8925 44.0539 12.8158 44.1758 12.7127C44.2977 12.6097 44.3969 12.4825 44.4672 12.3392C44.5375 12.1959 44.5773 12.0396 44.5842 11.8801C44.5842 11.2455 44.1067 10.8356 43.297 10.8356C43.1347 10.8129 42.9695 10.823 42.8112 10.8652C42.6529 10.9074 42.5046 10.9809 42.3752 11.0814C42.2458 11.1818 42.1378 11.3072 42.0576 11.4501C41.9774 11.593 41.9267 11.7505 41.9084 11.9133H40.8981C40.9155 11.6178 40.9936 11.3289 41.1274 11.0648C41.2613 10.8007 41.4481 10.567 41.6761 10.3782C41.9042 10.1894 42.1687 10.0496 42.4532 9.96747C42.7377 9.88534 43.036 9.86264 43.3296 9.9008C44.6844 9.9008 45.6384 10.6593 45.6384 11.7512C45.6416 12.1169 45.5192 12.4728 45.2917 12.7592C45.0642 13.0456 44.7453 13.2454 44.3883 13.325V13.4061C44.8115 13.4249 45.2101 13.6105 45.4969 13.9223C45.7837 14.2341 45.9354 14.6468 45.9188 15.0701C45.8875 15.3744 45.7957 15.6695 45.6489 15.9379C45.5021 16.2063 45.3032 16.4427 45.0638 16.6332C44.8244 16.8237 44.5495 16.9646 44.255 17.0475C43.9605 17.1303 43.6524 17.1536 43.3488 17.1159C43.0446 17.1574 42.7351 17.1372 42.4388 17.0565C42.1426 16.9758 41.8656 16.8363 41.6244 16.6463C41.3832 16.4563 41.1827 16.2196 41.0349 15.9505C40.8871 15.6813 40.7951 15.3852 40.7642 15.0797H41.7901C41.8521 15.738 42.4568 16.1626 43.3488 16.1626C44.2407 16.1626 44.823 15.6856 44.823 15.0133C44.823 14.3314 44.2745 13.9113 43.3161 13.9113H42.3667V12.977Z" fill="white"/>
<path d="M47.083 15.4809C47.083 14.5461 47.7801 14.0072 49.0144 13.9306L50.4211 13.8495V13.4013C50.4211 12.8528 50.0595 12.5431 49.3579 12.5431C48.7858 12.5431 48.3905 12.7532 48.2757 13.1203H47.2835C47.3882 12.2284 48.2284 11.6562 49.4064 11.6562C50.7082 11.6562 51.4425 12.3044 51.4425 13.4013V16.9494H50.4548V16.2197H50.3738C50.2092 16.4814 49.9781 16.6948 49.704 16.8381C49.43 16.9813 49.1229 17.0493 48.814 17.035C48.596 17.0577 48.3756 17.0344 48.1672 16.9667C47.9587 16.899 47.7668 16.7884 47.6037 16.642C47.4406 16.4956 47.31 16.3166 47.2203 16.1166C47.1306 15.9166 47.0839 15.7 47.083 15.4809ZM50.4211 15.0371V14.603L49.1529 14.6841C48.4378 14.7319 48.1134 14.9752 48.1134 15.433C48.1134 15.9004 48.5189 16.1723 49.0764 16.1723C49.2397 16.1889 49.4047 16.1724 49.5616 16.1239C49.7184 16.0753 49.8639 15.9957 49.9894 15.8898C50.1148 15.7839 50.2177 15.6538 50.2919 15.5073C50.366 15.3608 50.41 15.2009 50.4211 15.0371Z" fill="white"/>
<path d="M54.1635 12.6205V16.9508H53.1387V11.7578H56.5579V12.6204L54.1635 12.6205Z" fill="white"/>
<path d="M62.7679 14.345C62.7679 15.9949 61.9334 17.0293 60.6225 17.0293C60.3007 17.0513 59.9793 16.9808 59.6962 16.8263C59.4131 16.6718 59.18 16.4396 59.0244 16.157H58.9433V18.6702H57.9185V11.7507H58.905V12.6089H58.9816C59.14 12.3165 59.3761 12.0736 59.6639 11.9069C59.9516 11.7403 60.2799 11.6564 60.6123 11.6646C61.9334 11.6646 62.7679 12.6945 62.7679 14.345ZM61.7138 14.345C61.7138 13.248 61.1946 12.5853 60.3263 12.5853C59.4637 12.5853 58.9242 13.2621 58.9242 14.3495C58.9242 15.4318 59.4636 16.1092 60.3218 16.1092C61.1946 16.1092 61.7138 15.4464 61.7138 14.345Z" fill="white"/>
<path d="M64.1353 18.8107V17.9283C64.2462 17.9424 64.358 17.9488 64.4697 17.9475C64.6881 17.9636 64.9047 17.8986 65.0781 17.7649C65.2514 17.6311 65.3693 17.4381 65.409 17.2228L65.4856 16.9699L63.606 11.7578H64.722L66.024 15.8826H66.105L67.4024 11.7578H68.4892L66.5533 17.1653C66.1096 18.4289 65.6185 18.8344 64.5599 18.8344C64.4743 18.8344 64.231 18.8248 64.1353 18.8107Z" fill="white"/>
<path d="M69.2867 15.4771H70.307C70.4073 15.9349 70.8364 16.1736 71.4366 16.1736C72.1191 16.1736 72.538 15.8729 72.538 15.4056C72.538 14.905 72.1619 14.6662 71.4366 14.6662H70.6595V13.87H71.4231C72.0425 13.87 72.3578 13.6318 72.3578 13.1976C72.3578 12.8164 72.0526 12.5253 71.4231 12.5253C70.8498 12.5253 70.4309 12.7686 70.3644 13.1785H69.3768C69.4506 12.7075 69.7064 12.2842 70.0891 11.9998C70.4717 11.7153 70.9507 11.5925 71.4231 11.6576C72.6574 11.6576 73.3635 12.2156 73.3635 13.0929C73.3693 13.3372 73.291 13.5761 73.1418 13.7696C72.9925 13.9631 72.7814 14.0995 72.5437 14.1561V14.2371C72.8267 14.2737 73.0865 14.4128 73.2738 14.6282C73.461 14.8436 73.5627 15.1202 73.5595 15.4056C73.5595 16.3928 72.7193 17.0459 71.4366 17.0459C70.3025 17.0459 69.3813 16.5261 69.2867 15.4771Z" fill="white"/>
<path d="M75.0356 16.9508V11.7578H76.0515V15.3296H76.1326L78.5257 11.7578H79.5416V16.9508H78.5257V13.3599H78.4492L76.0515 16.9508L75.0356 16.9508Z" fill="white"/>
<path d="M85.1354 12.6204H83.5001V16.9507H82.4741V12.6204H80.8389V11.7578H85.1354V12.6204Z" fill="white"/>
<path d="M90.6561 15.5474C90.5165 16.022 90.2145 16.4324 89.803 16.707C89.3916 16.9816 88.8967 17.1029 88.4048 17.0498C88.0627 17.0588 87.7227 16.9933 87.4085 16.8577C87.0942 16.7222 86.8132 16.5199 86.585 16.2649C86.3567 16.0098 86.1867 15.7082 86.0868 15.3809C85.9868 15.0536 85.9592 14.7084 86.006 14.3694C85.9605 14.0293 85.9885 13.6834 86.0883 13.3551C86.188 13.0268 86.3571 12.7238 86.5841 12.4665C86.8112 12.2093 87.0908 12.0038 87.4042 11.864C87.7175 11.7242 88.0572 11.6534 88.4003 11.6563C89.8452 11.6563 90.7181 12.6435 90.7181 14.2742V14.6318H87.0512V14.6892C87.0349 14.8799 87.0587 15.0718 87.1211 15.2526C87.1834 15.4335 87.2829 15.5993 87.4132 15.7394C87.5434 15.8795 87.7015 15.9908 87.8774 16.0662C88.0532 16.1415 88.2428 16.1792 88.4341 16.1769C88.6791 16.2062 88.9273 16.162 89.147 16.0499C89.3668 15.9378 89.5483 15.7629 89.6684 15.5474L90.6561 15.5474ZM87.0511 13.8739H89.6729C89.6859 13.6997 89.6622 13.5247 89.6036 13.3602C89.5449 13.1956 89.4524 13.0452 89.3322 12.9185C89.2119 12.7918 89.0665 12.6917 88.9052 12.6245C88.744 12.5574 88.5704 12.5247 88.3958 12.5286C88.2185 12.5262 88.0425 12.5593 87.8783 12.6261C87.714 12.6929 87.5648 12.7919 87.4394 12.9173C87.3141 13.0427 87.2151 13.192 87.1484 13.3563C87.0817 13.5206 87.0487 13.6966 87.0512 13.8739H87.0511Z" fill="white"/>
<path d="M95.0049 11.7578H97.3463C98.3621 11.7578 98.9578 12.2725 98.9578 13.0783C98.9594 13.334 98.8731 13.5824 98.7134 13.7821C98.5537 13.9818 98.3303 14.1206 98.0805 14.1752V14.2563C98.3838 14.2754 98.6681 14.4104 98.8748 14.6331C99.0814 14.8559 99.1946 15.1496 99.191 15.4535C99.191 16.3595 98.5096 16.9508 97.3699 16.9508H95.0049V11.7578ZM96.0207 12.5445V13.8892H97.0366C97.656 13.8892 97.9522 13.651 97.9522 13.2117C97.9522 12.8069 97.6943 12.5445 97.1503 12.5445L96.0207 12.5445ZM96.0207 14.6426V16.1641H97.2359C97.8418 16.1641 98.1662 15.8967 98.1662 15.4056C98.1662 14.8859 97.799 14.6426 97.1075 14.6426L96.0207 14.6426Z" fill="white"/>
</g>
<defs>
<clipPath id="clip0_103_3602">
<rect width="138" height="47" fill="white"/>
</clipPath>
</defs>
</svg>
