<svg width="20" height="26" viewBox="0 0 20 26" fill="none" xmlns="http://www.w3.org/2000/svg">
<path d="M5.0872 6.15646C4.97724 4.32133 5.48809 2.76209 6.80345 1.55962C7.68475 0.738415 8.82381 0.293988 9.9983 0.313091C11.4694 0.319591 12.7055 0.912521 13.6862 2.07238C14.6669 3.23225 15.0043 4.60949 14.9108 6.15718C15.5309 6.15718 16.1175 6.14851 16.7042 6.15718C17.3035 6.1695 17.8772 6.41599 18.3148 6.84913C18.7524 7.28227 19.0228 7.87139 19.074 8.5029C19.1191 9.10594 19.1423 9.71043 19.1683 10.3142C19.3017 13.281 19.4337 16.2476 19.5644 19.2139C19.6286 20.6656 19.701 22.1172 19.7481 23.5696C19.8014 25.1252 18.7237 25.6771 17.2499 25.6786C12.4164 25.6834 7.58338 25.6834 2.75082 25.6786C1.27906 25.6786 0.189754 25.1209 0.252586 23.5688C0.376883 20.4937 0.522355 17.42 0.657579 14.3448C0.733387 12.6318 0.803731 10.918 0.883636 9.20561C0.889173 8.84475 0.923442 8.48502 0.986078 8.13024C1.10862 7.5765 1.40231 7.0818 1.82066 6.72443C2.23901 6.36706 2.75811 6.16745 3.29581 6.15718C3.87427 6.14851 4.45478 6.15646 5.0872 6.15646ZM10.0776 24.0027C12.4856 24.0027 14.4473 24.0027 17.2499 24.0027C18.1077 24.0027 18.122 22.9611 18.1077 22.3754C18.1008 22.0778 18.1213 22.4815 18.1077 22.1839C17.9779 19.2619 17.8153 16.8896 17.6842 13.9686C17.607 12.2353 17.5347 10.502 17.4493 8.77445C17.4186 8.15191 17.0907 7.85147 16.502 7.85436C15.2559 7.86014 14.0093 7.8652 12.7622 7.86953L3.46245 7.89625C2.89902 7.89625 2.5835 8.19597 2.54867 8.78962C2.50632 9.50099 2.48515 10.2145 2.45306 10.9266C2.26638 15.1284 2.17557 17.9817 1.9889 22.1839C1.95749 22.8939 1.82066 24.0027 2.75082 24.0027H10.0776ZM13.2485 6.14201C13.3555 5.44614 13.2647 4.73235 12.9878 4.09105C12.7108 3.44976 12.2601 2.90982 11.6927 2.53965C11.1341 2.18362 10.4879 2.01187 9.83651 2.04635C9.18515 2.08082 8.55832 2.31997 8.03618 2.7332C7.01995 3.54352 6.56305 4.81315 6.75974 6.14201H13.2485Z" fill="#6D7784"/>
</svg>
