<svg width="14" height="15" viewBox="0 0 14 15" fill="none" xmlns="http://www.w3.org/2000/svg">
<g clip-path="url(#clip0_4041_156069)">
<path d="M11.297 1.57894H10.7748V1.05054C10.7748 0.748633 10.5301 0.503906 10.2282 0.503906C9.92631 0.503906 9.68158 0.748633 9.68158 1.05054V1.57894H4.31839V1.05054C4.31839 0.748633 4.07366 0.503906 3.77176 0.503906C3.46985 0.503906 3.22513 0.748633 3.22513 1.05054V1.57894H2.70296C1.21254 1.57894 0 2.79148 0 4.28187V11.7947C0 13.2851 1.21254 14.4977 2.70296 14.4977H11.2971C12.7875 14.4977 14 13.2851 14 11.7947V4.28187C14 2.79148 12.7875 1.57894 11.297 1.57894ZM2.70296 2.6722H3.22513V3.73813C3.22513 4.04004 3.46985 4.28476 3.77176 4.28476C4.07366 4.28476 4.31839 4.04004 4.31839 3.73813V2.6722H9.68161V3.73813C9.68161 4.04004 9.92634 4.28476 10.2282 4.28476C10.5301 4.28476 10.7749 4.04004 10.7749 3.73813V2.6722H11.2971C12.1846 2.6722 12.9067 3.3943 12.9067 4.28187V4.80406H1.09326V4.28187C1.09326 3.3943 1.81536 2.6722 2.70296 2.6722ZM11.297 13.4044H2.70296C1.81536 13.4044 1.09326 12.6823 1.09326 11.7947V5.89733H12.9067V11.7947C12.9067 12.6823 12.1846 13.4044 11.297 13.4044Z" fill="#4F5864"/>
</g>
<defs>
<clipPath id="clip0_4041_156069">
<rect width="14" height="14" fill="white" transform="translate(0 0.5)"/>
</clipPath>
</defs>
</svg>
