<svg width="117" height="63" viewBox="0 0 117 63" fill="none" xmlns="http://www.w3.org/2000/svg">
<path fill-rule="evenodd" clip-rule="evenodd" d="M28.432 23.9396C28.3452 24.1433 28.2294 24.0851 28.1136 24.056C27.9977 24.0269 27.824 23.8814 27.9109 24.2015C27.9109 24.2306 27.853 24.2887 27.853 24.2887C27.3897 24.0269 27.216 24.4342 26.9265 24.6379C26.7528 24.7543 26.5211 24.7834 26.3185 24.5506C26.6948 24.5506 26.8396 24.3178 26.8975 24.0269C26.9265 23.8232 27.0423 23.6486 27.216 23.7359C27.5924 23.9396 28.0267 23.8523 28.432 23.9396Z" fill="white"/>
<path fill-rule="evenodd" clip-rule="evenodd" d="M1.27394 62.2886C1.50557 62.2013 1.59243 61.9685 1.73719 61.823C1.91091 62.3759 1.73719 62.7541 1.30289 62.8123C1.10022 62.8414 0.984409 62.7832 1.01336 62.5504C1.07127 62.3177 1.27394 62.0267 0.781737 62.0849L0.72383 61.9685C0.868597 61.8521 0.868597 61.5903 1.07127 61.5321C1.21604 61.503 1.10022 61.6776 1.12918 61.6776C1.53452 61.8521 1.21604 62.114 1.27394 62.2886Z" fill="white"/>
<path fill-rule="evenodd" clip-rule="evenodd" d="M9.52566 20.0698C9.46775 20.2734 9.69938 20.4189 9.55461 20.7099C9.26508 20.128 8.80183 19.6333 8.9466 18.9059C9.12032 19.1387 9.32299 19.3133 9.40985 19.546C9.49671 19.6915 9.26508 19.9534 9.52566 20.0698Z" fill="white"/>
<path fill-rule="evenodd" clip-rule="evenodd" d="M12.2761 56.382C12.1024 55.9165 12.5077 55.6837 12.6525 55.3637C12.6815 55.3055 12.8262 55.2764 12.8841 55.3346C12.971 55.4218 12.971 55.5673 12.9131 55.6546C12.7104 55.9165 12.5946 56.2074 12.2761 56.382Z" fill="white"/>
<path fill-rule="evenodd" clip-rule="evenodd" d="M10.3942 53.065C10.2783 53.2396 10.3073 53.4142 10.1046 53.4724C10.0467 53.2396 9.64138 53.2978 9.64138 53.0068C9.64138 52.8614 9.75719 52.745 9.90196 52.8032C10.0757 52.8614 10.2783 52.9195 10.3942 53.065Z" fill="white"/>
<path fill-rule="evenodd" clip-rule="evenodd" d="M16.098 48.0896C15.9822 48.526 15.7795 48.7588 15.6348 48.9915C15.5479 49.1079 15.4321 49.2534 15.2584 49.1079C15.1426 48.9915 15.2584 48.8752 15.3452 48.7588C15.5769 48.5842 15.8085 48.3805 16.098 48.0896Z" fill="white"/>
<path fill-rule="evenodd" clip-rule="evenodd" d="M24.0023 40.7282C23.9733 41.0773 23.8575 41.3974 23.568 41.7757C23.4521 41.2228 23.7706 40.99 24.0023 40.7282Z" fill="white"/>
<path fill-rule="evenodd" clip-rule="evenodd" d="M29.8507 24.7834C29.706 24.7834 29.648 24.6961 29.6191 24.6088C29.5612 24.4924 29.4454 24.3469 29.5612 24.2015C29.648 24.0851 29.7639 24.0851 29.8797 24.1142C29.9086 24.1142 30.0244 24.1433 29.9376 24.1724C29.5901 24.3178 30.0823 24.6088 29.8507 24.7834Z" fill="white"/>
<path fill-rule="evenodd" clip-rule="evenodd" d="M5.73274 57.4295C5.55902 57.4295 5.41426 57.4295 5.44321 57.1967C5.47216 56.993 5.58798 56.9348 5.79065 56.9348C6.02227 56.9348 5.99332 57.0512 5.73274 57.4295Z" fill="white"/>
<path fill-rule="evenodd" clip-rule="evenodd" d="M9.03345 54.578C9.17822 54.4035 9.0045 54.0834 9.29403 54.0834C9.4388 54.0834 9.52565 54.3453 9.4967 54.4617C9.4388 54.7526 9.20717 54.4617 9.03345 54.578Z" fill="white"/>
<path fill-rule="evenodd" clip-rule="evenodd" d="M9.17822 20.5935C9.29403 20.7099 9.52566 20.6808 9.52566 20.9136C9.52566 21.0299 9.40984 21.1172 9.26508 21.0881C9.12031 21.059 9.03345 20.9718 9.03345 20.7972C9.03345 20.7099 9.03345 20.5935 9.17822 20.5935Z" fill="white"/>
<path fill-rule="evenodd" clip-rule="evenodd" d="M28.3163 24.8998C28.2873 24.9289 28.2294 24.9871 28.2005 25.0162C28.1715 24.9871 28.1426 24.9871 28.1136 24.958C27.9399 24.8998 27.853 24.7543 27.853 24.5506C27.853 24.5215 27.9978 24.4924 28.0557 24.4924C28.3163 24.5215 28.3163 24.6961 28.3163 24.8998Z" fill="white"/>
<path fill-rule="evenodd" clip-rule="evenodd" d="M32.6882 25.5981C32.3987 25.7727 32.2249 25.9181 32.0223 25.7436C31.9933 25.7145 32.0223 25.569 32.0512 25.5108C32.2539 25.278 32.3697 25.569 32.6882 25.5981Z" fill="white"/>
<path fill-rule="evenodd" clip-rule="evenodd" d="M8.85966 58.9134C8.74384 58.8843 8.62803 58.797 8.68594 58.7097C8.74384 58.5642 8.91756 58.5061 9.09128 58.5061C9.17814 58.5061 9.29396 58.5061 9.265 58.6224C9.17814 58.8261 8.97547 58.8261 8.85966 58.9134Z" fill="white"/>
<path fill-rule="evenodd" clip-rule="evenodd" d="M10.0467 57.895C10.0467 57.7786 10.0178 57.6623 10.0467 57.6041C10.1625 57.4877 10.3073 57.4295 10.4521 57.3422C10.4521 57.3422 10.51 57.4004 10.5389 57.4586C10.5679 57.6623 10.3652 57.6623 10.2494 57.7495C10.1915 57.7786 10.1336 57.8077 10.0467 57.895Z" fill="white"/>
<path fill-rule="evenodd" clip-rule="evenodd" d="M0.521158 62.5504C0.463252 62.6959 0.463252 62.725 0.463252 62.725C0.260579 62.6959 0.318485 63.0742 0.0868597 62.9869C0.0289532 62.9869 0 62.8414 0 62.8414C0.144766 62.7541 0.289532 62.6668 0.521158 62.5504Z" fill="white"/>
<path fill-rule="evenodd" clip-rule="evenodd" d="M26.637 23.8232C26.4343 23.7068 26.2316 23.765 26.2027 23.5322C26.2027 23.474 26.2027 23.3868 26.2895 23.3868C26.4632 23.4449 26.5791 23.5613 26.637 23.8232Z" fill="white"/>
<path fill-rule="evenodd" clip-rule="evenodd" d="M20.6147 22.1938C20.6437 22.1938 20.6726 22.1938 20.7016 22.1938C20.8753 22.1938 21.049 22.1647 21.078 22.3684C21.078 22.3975 21.0201 22.4266 20.9911 22.4557C20.9043 22.3684 20.6147 22.4848 20.6147 22.1938Z" fill="white"/>
<path fill-rule="evenodd" clip-rule="evenodd" d="M16.7929 21.4373C16.9376 21.4664 17.0534 21.2045 17.2272 21.3791C17.2561 21.4082 17.2272 21.5246 17.1982 21.5537C17.0245 21.6701 16.9087 21.4955 16.7929 21.4373Z" fill="white"/>
<path fill-rule="evenodd" clip-rule="evenodd" d="M21.4254 22.9212C21.2227 23.154 21.049 23.154 20.8173 22.9212C21.02 22.9212 21.1937 22.9212 21.4254 22.9212Z" fill="white"/>
<path fill-rule="evenodd" clip-rule="evenodd" d="M3.93766 61.2411C4.08243 60.9792 4.22719 61.0083 4.40091 61.0665C4.42987 61.0665 4.42987 61.1829 4.42987 61.1829C4.2851 61.3284 4.14033 61.1829 3.93766 61.2411Z" fill="white"/>
<path fill-rule="evenodd" clip-rule="evenodd" d="M25.5946 39.4479C25.8552 39.6807 25.7973 39.7971 25.7394 39.9426C25.5078 39.8553 25.6525 39.7098 25.5946 39.4479Z" fill="white"/>
<path fill-rule="evenodd" clip-rule="evenodd" d="M25.9131 23.1249C25.8552 23.3286 25.7104 23.3286 25.4499 23.4449C25.5946 23.154 25.7104 23.0958 25.9131 23.1249Z" fill="white"/>
<path fill-rule="evenodd" clip-rule="evenodd" d="M16.8218 21.7865C16.9956 21.6119 17.1982 21.7283 17.372 21.7283C17.1982 21.7865 17.0245 21.9028 16.8218 21.7865Z" fill="white"/>
<path fill-rule="evenodd" clip-rule="evenodd" d="M31.617 25.6854C31.617 25.4235 31.617 25.278 31.617 25.0452C31.7038 25.278 31.8196 25.3944 31.617 25.6854Z" fill="white"/>
<path fill-rule="evenodd" clip-rule="evenodd" d="M30.6036 24.4342C30.314 24.6088 30.1982 24.4924 29.9666 24.4342C30.1982 24.4342 30.314 24.4342 30.6036 24.4342Z" fill="white"/>
<path d="M37.9867 0.371552C37.9867 0.284263 37.9288 0.196974 37.8419 0.22607C37.176 0.429745 36.5969 0.517034 35.902 0.0805885C35.5546 -0.123086 34.9176 0.109685 34.4254 0.22607C33.8174 0.371552 33.1804 0.458841 32.6882 0.807997C32.3408 1.06986 31.9934 1.27354 31.588 1.41902C31.3274 1.50631 31.0958 1.5936 31.0669 1.97185C31.0379 2.14643 30.8352 2.29191 30.5747 2.11733C30.4009 2.00095 30.1404 1.76818 29.9666 2.20462C29.9087 2.3792 29.6771 2.3501 29.5323 2.3501C28.9243 2.3501 28.3453 2.3792 27.7662 2.69926C27.5346 2.84474 27.245 2.87384 26.9845 2.93203C26.8686 2.96113 26.7239 2.99022 26.7239 3.10661C26.6949 3.63034 26.2896 3.65944 25.9132 3.71763C25.6526 3.77583 25.3631 3.77583 25.392 4.18317C25.392 4.41594 25.2183 4.56143 24.9577 4.53233C24.784 4.50323 24.5813 4.50323 24.5234 4.67781C24.4655 4.99787 24.2339 4.93968 24.0312 5.02697C23.6838 5.20155 23.2495 4.82329 22.9021 5.25974C22.2072 6.13263 21.2228 6.59817 20.1804 6.94733C18.8486 7.38377 17.5168 7.79112 16.4165 8.7222C16.2428 8.86769 16.127 9.01317 16.3297 9.15865C16.6771 9.36232 16.4165 9.47871 16.3007 9.62419C16.2428 9.74058 16.0112 9.68238 16.0401 9.88606C16.127 9.97335 16.3007 9.85696 16.3586 10.0024C15.6927 10.0606 15.6927 10.0606 15.5769 9.59509C15.3163 9.566 15.3742 10.0315 15.1426 9.97335C14.7083 9.88606 14.911 10.2643 14.7951 10.4098C14.7372 10.4971 14.6793 10.5262 14.6214 10.3516C14.5346 10.0897 14.3029 10.2643 14.1582 10.2352C14.0713 10.2352 14.0713 10.2643 14.0424 10.3516C13.9845 10.7589 13.5212 11.2536 13.2027 11.1663C12.6526 11.0499 12.5078 11.4573 12.3631 11.7191C12.0446 12.3011 11.7261 12.8539 11.0312 13.1448C11.3787 13.1448 11.4945 13.203 11.3787 13.5522C11.2629 13.9305 10.8865 14.0468 10.6838 14.2505C9.93101 14.9488 9.40985 15.7053 9.32299 16.7237C9.32299 16.8692 9.4388 17.0729 9.14927 17.102C8.71497 17.1601 8.80183 17.3929 8.97555 17.713C9.09136 17.9167 9.35194 18.0621 9.26508 18.3531C9.17822 18.7023 9.35194 18.615 9.55461 18.5277C9.64147 18.4986 9.69938 18.3822 9.81519 18.4695C9.90205 18.8768 9.98891 19.2842 10.0758 19.6915C10.1047 19.7788 10.3074 19.837 10.1337 19.9534C10.0468 20.0407 9.93101 20.0116 9.81519 19.9534C9.72833 19.9243 9.55461 19.6624 9.52566 20.0116C9.93101 20.3316 9.95996 20.8263 9.95996 21.2336C9.95996 21.4373 10.1626 21.7574 9.95996 21.8447C9.61252 21.9901 9.8731 22.1647 9.93101 22.2229C10.0758 22.4266 10.1916 22.6594 10.4811 22.6885C10.568 22.6885 10.6259 22.6594 10.5969 22.5721C10.5101 22.3102 10.6259 22.3393 10.7417 22.4848C10.9733 22.7176 11.147 22.9794 11.3787 23.2413C11.176 23.3286 10.9733 23.2122 10.7996 23.3577C10.8286 23.4159 10.8575 23.4741 10.8865 23.5032C10.9154 23.5322 10.9733 23.5904 11.0023 23.5613C11.6103 23.3868 11.6972 23.8232 11.784 24.2597C11.813 24.3469 11.784 24.4633 11.9288 24.4924C12.3631 24.5797 12.5947 24.9871 12.8842 25.2489C13.2027 25.5399 13.4633 25.86 13.8976 26.0054C14.4767 26.18 15.0557 26.4128 15.6348 26.6456C15.9243 26.7619 16.2139 26.9365 16.5613 26.9074C16.8798 26.8783 17.1404 26.8201 17.372 27.1402C17.4878 27.3148 17.7484 27.2566 17.951 27.082C18.0958 26.9656 18.2985 26.791 18.4433 26.9365C18.6749 27.1984 18.9644 27.1693 19.225 27.2566C21.049 27.8676 22.8731 28.4204 24.7261 28.9442C26.029 29.2933 27.3898 29.4097 28.5769 30.1953C29.127 30.5736 29.764 30.8063 30.2851 31.2137C31.009 31.7374 31.0958 32.0284 30.8352 32.6685C30.4878 33.5123 30.0535 34.2688 29.4744 34.9962C29.1559 35.4036 28.519 35.7818 29.1559 36.4219C29.3007 36.5674 29.098 36.6547 29.0112 36.7129C28.8954 36.8002 28.8664 36.6547 28.8085 36.5965C28.6058 36.451 28.6637 36.2765 28.6927 36.0728C28.4321 36.6838 27.5925 36.8002 27.4767 37.5567C27.5925 37.5567 27.7372 37.5858 27.911 37.5858C27.6793 38.0222 27.4188 37.6149 27.2161 37.644C26.9555 37.6731 27.1292 38.255 26.666 38.1677C26.4633 38.1386 26.3185 38.255 26.1738 38.3714C26.058 38.4587 26 38.5751 26.029 38.7205C26.2606 39.448 26 40.1172 25.8263 40.7864C25.7974 40.9028 25.7974 41.0482 25.6526 41.0192C25.5078 40.9901 25.5078 40.8155 25.4499 40.6991C25.421 40.6118 25.6526 40.5536 25.5078 40.4663C25.392 40.379 25.3052 40.5245 25.2183 40.5827C24.8998 40.8155 24.7551 41.2519 24.2918 41.3101C24.2629 41.3101 24.2049 41.3974 24.2049 41.4265C24.2049 41.5429 24.2918 41.4556 24.3497 41.4556C24.4945 41.4265 24.5813 41.5138 24.5813 41.6302C24.5813 41.7175 24.4945 41.7466 24.4366 41.7175C24.3208 41.6884 24.0891 41.8339 24.0602 41.6302C24.0023 41.2228 23.7706 41.3974 23.7417 41.572C23.6548 41.892 23.4522 41.8048 23.2495 41.8339C23.0468 41.8339 22.7573 41.6884 22.6704 42.0666C22.6415 42.1539 22.5257 42.1248 22.4388 42.1248C22.1493 42.183 21.8597 42.2412 21.5992 42.3285C21.1359 42.474 21.078 42.6485 21.3096 43.1141C21.4833 43.4632 21.3965 43.696 21.0201 43.7251C20.7885 43.7542 20.7885 43.8415 20.7595 44.0452C20.7016 44.3652 20.7306 44.8599 20.3542 45.0054C19.6303 45.2381 19.3118 45.791 19.1671 46.402C18.9934 47.0421 18.5012 47.1003 18.0669 47.2749C18.009 47.304 17.951 47.3331 17.8931 47.2749C17.6036 47.1003 17.2272 47.5367 16.9666 47.1585C16.9377 47.1294 16.8508 47.1876 16.8219 47.2749C16.735 47.4785 16.5613 47.7113 16.6482 47.915C16.735 48.1478 16.6192 48.1769 16.4744 48.2932C15.9533 48.5842 15.5479 48.9916 15.4321 49.6026C15.3742 49.8353 15.3163 49.9226 15.0557 49.8063C14.882 49.719 14.6504 49.7481 14.6214 50.0099C14.5635 50.33 14.3319 50.33 14.1292 50.2718C13.7239 50.1554 13.6949 50.5628 13.4633 50.7082C13.6081 50.8828 13.5212 50.9119 13.3475 51.0283C12.6237 51.4647 11.6682 51.4356 11.147 52.2212C11.1181 52.2794 11.0023 52.2794 10.9444 52.3085C10.5969 52.454 10.4522 53.0359 10.6548 53.356C10.8286 53.1232 10.7996 52.8323 10.8286 52.5122C11.0023 52.6286 11.3497 52.5413 11.2629 52.8323C11.2049 53.065 11.2049 53.4724 10.8865 53.4724C10.4232 53.4724 9.90205 53.7052 9.49671 53.2687C9.40985 53.1814 9.32299 53.1523 9.23613 53.2687C9.17822 53.356 9.17822 53.4724 9.29403 53.5306C9.46775 53.6761 9.64147 53.8797 9.93101 53.8215C10.0468 53.7924 10.1626 53.8506 10.1916 53.9961C10.2205 54.1416 10.0758 54.2289 9.98891 54.2871C9.72833 54.4035 9.93101 53.967 9.69938 54.0252C9.20717 54.5199 9.81519 55.0145 9.67043 55.5091C9.4388 55.4509 9.35194 55.2764 9.26508 55.1309C9.20718 55.0436 9.06241 54.869 9.0045 54.9272C8.80183 55.1891 8.54125 55.0145 8.30963 55.1018C8.33858 55.3055 8.28067 55.5091 8.078 55.5382C7.90428 55.5673 7.70161 55.5091 7.52789 55.4509C7.44103 55.4218 7.44103 55.2764 7.52789 55.2764C7.75951 55.2473 7.6437 54.7235 7.96219 54.9563C8.078 55.0436 8.16486 55.1309 8.30963 55.1309C8.25172 55.0436 8.19381 54.9563 8.13591 54.869C8.078 54.7817 8.36753 54.549 8.13591 54.5781C7.90428 54.6072 7.46998 54.549 7.46998 54.6944C7.44103 55.0727 7.03568 55.1018 7.00673 55.3927C7.09359 55.4509 7.32522 55.2764 7.23836 55.5673C7.18045 55.8001 7.1515 55.8292 7.41208 55.8001C7.49894 55.8001 7.55684 55.7419 7.61475 55.8583C7.67265 55.9747 7.55684 56.0038 7.49894 56.0329C7.35417 56.1202 7.18045 56.382 7.00673 56.062C6.97778 56.0038 6.80406 56.0038 6.74615 56.1202C6.63034 56.4984 6.2829 56.673 5.90651 56.8476C6.60139 56.9058 6.60139 56.9058 6.2829 57.4586C6.25395 57.4877 6.16709 57.5459 6.25395 57.6041C6.45662 57.7786 6.34081 57.8077 6.16709 57.8077C6.02232 57.8077 5.87755 57.8077 5.73279 57.8077C5.70384 57.6332 5.87755 57.4295 5.67488 57.3131C5.55907 57.575 5.44326 57.8368 5.32744 58.0987C5.26954 58.2151 5.24058 58.3606 5.06686 58.2442C4.86419 58.0987 4.69047 58.2733 4.4878 58.3897C4.51675 58.186 4.69047 58.0114 4.51675 57.9532C4.37199 57.895 4.22722 58.0114 4.16931 58.2151C4.14036 58.2733 4.11141 58.3024 4.11141 58.3606C4.11141 58.5643 3.93769 58.6224 3.82188 58.6224C3.6192 58.6224 3.79292 58.3606 3.6192 58.2733C3.5613 58.5061 3.04014 58.4479 3.38758 58.9425C3.59025 59.2044 3.15595 59.5244 2.72165 59.408C2.46107 59.3208 2.2005 59.2626 2.14259 59.6117C2.08468 59.8736 2.02678 60.1646 2.31631 60.4264C2.49003 59.99 2.86642 59.8445 3.15595 59.5826C3.24281 59.8736 3.59025 60.0773 3.30072 60.4264C3.21386 60.5137 3.18491 60.6883 3.01119 60.601C2.86642 60.5428 2.83747 60.3973 2.92433 60.2518C2.98223 60.1355 3.01119 60.0191 2.86642 59.9027C2.83747 59.9609 2.80851 60.0191 2.80851 60.0482C2.77956 60.3682 2.77956 60.6883 2.77956 60.9793C2.77956 61.212 2.60584 61.212 2.54793 61.2702C2.40317 61.3575 2.43212 61.1829 2.43212 61.0956C2.43212 60.892 2.28736 60.892 2.17154 60.9211C1.99782 60.9501 2.02678 61.1247 2.05573 61.1829C2.17154 61.4448 2.08468 61.6485 1.93992 61.8521C2.2005 61.9685 2.37422 61.8521 2.49003 61.7067C2.6927 61.4739 2.89537 61.7649 3.09805 61.6776C3.127 61.6776 3.127 61.6485 3.127 61.6485C3.09805 61.2993 3.38758 61.2411 3.59025 61.0956C3.96664 60.8629 3.35862 60.6592 3.59025 60.4555C3.6192 60.4264 3.64816 60.4264 3.67711 60.4264C3.82188 60.4846 3.79292 60.7756 4.02455 60.6883C4.16931 60.6301 4.19827 60.4555 4.14036 60.3391C3.87978 59.8736 4.25617 59.8154 4.51675 59.5826C4.54571 59.8445 4.54571 60.0482 4.57466 60.31C4.63257 60.2518 4.69047 60.2518 4.71943 60.1936C4.9221 59.9318 4.9221 59.379 5.50116 59.5826C5.55907 59.6117 5.76174 59.4662 5.67488 59.2626C5.64593 59.2044 5.55907 58.797 5.96441 59.0007C6.08023 59.0589 6.19604 58.5643 6.42767 58.9134C6.45662 58.8843 6.54348 58.8552 6.54348 58.8261C6.54348 58.4188 7.41208 58.6515 7.09359 58.0114L7.1515 57.9532C7.58579 58.1569 7.73056 57.6914 7.99114 57.5459C8.19381 57.8659 7.73056 57.9241 7.81742 58.2442C7.99114 58.0987 8.16486 58.0114 8.36753 58.186C8.5123 58.3024 8.65706 58.1278 8.62811 58.0114C8.39648 57.3131 9.32299 57.284 9.32299 56.7312C9.35194 56.7312 9.40985 56.7312 9.40985 56.7603C9.58357 56.964 9.90205 56.5275 10.0758 56.9058C10.1047 56.993 10.3074 56.9058 10.3364 56.673C10.3653 56.3238 10.7127 56.2947 10.9444 56.2365C11.147 56.1784 11.4076 56.1493 11.6392 56.2656C11.813 56.3529 11.8419 56.2365 11.8419 56.1202C11.8419 56.0038 11.8419 55.8583 11.8419 55.7128C11.6972 55.6255 11.6103 55.2764 11.4945 55.4509C11.3208 55.6546 10.9154 55.6255 10.9444 56.0038C10.7706 55.9165 10.6259 55.8292 10.4522 55.771C10.7996 55.48 11.2049 55.3055 11.6103 55.2473C12.0156 55.1891 11.813 55.5091 11.8419 55.6837V55.7128C12.0735 55.6837 12.2473 55.5382 12.2473 55.3055C12.2473 55.0727 12.2183 54.8108 12.5947 54.9854C12.6816 55.0145 12.8842 54.9854 12.8842 54.7817C12.8842 54.4617 13.0869 54.3162 13.3764 54.3162C13.6081 54.3162 13.6949 54.2289 13.637 54.0252C13.5212 53.5597 13.8397 53.7634 14.0713 53.7343C13.8686 54.1125 13.7239 54.4617 13.4054 54.6944C13.2896 54.8108 13.2027 54.9563 13.1448 55.1018C13.1159 55.1891 13.1159 55.3637 13.3185 55.2764C13.5791 55.1309 13.9265 55.0436 14.1292 54.8108C14.5056 54.3744 14.9689 54.0543 15.4032 53.6761C15.8954 53.2396 16.6192 52.8905 16.7061 52.1922C16.8219 51.4938 17.2272 51.552 17.6905 51.4938C17.8063 51.4647 17.8931 51.4066 18.009 51.3775C17.7194 51.3775 17.5457 51.2029 17.4588 50.941C17.4299 50.8828 17.4878 50.7955 17.5168 50.7664C17.6905 50.7082 17.6615 51.0283 17.8642 50.9701C17.8931 50.5919 17.8931 50.5919 18.3564 50.6209C18.2695 50.7373 18.0958 50.8537 18.3274 50.9992C18.4722 51.0865 18.617 51.1738 18.7907 51.0574C18.9355 50.941 19.0513 50.9701 19.1092 51.1738C19.6014 50.8246 19.4566 50.1554 19.7751 49.719C20.1804 50.1263 20.1804 50.0972 20.47 49.5735C20.5858 49.3698 20.5568 49.1079 20.8174 48.9625C21.8597 48.3514 22.8441 47.7113 23.9733 47.2749C24.2339 47.1585 24.5234 47.0712 24.2629 46.6929C24.2049 46.6348 24.2339 46.4311 24.3787 46.4893C24.9577 46.722 25.2762 46.2274 25.6816 45.9946C26.4633 45.4709 27.0424 44.7435 27.5925 44.0161C27.7083 43.8706 27.8531 43.6669 28.0847 43.8415C28.4032 44.1034 28.5769 43.8997 28.7796 43.6669C29.1559 43.2305 29.127 42.6195 29.5034 42.2121C29.7061 42.2994 29.8508 42.9977 30.1114 42.2412C30.1114 42.2121 30.1693 42.183 30.2272 42.1539C31.2116 41.5138 31.8196 40.6409 31.7907 39.448C31.7907 39.3025 31.7907 39.1861 31.9065 39.0988C31.9644 39.0406 32.0513 39.0697 32.0802 39.1279C32.1381 39.2443 32.2829 39.4479 32.1671 39.5352C31.7617 39.8553 32.2829 40.0881 32.196 40.379C32.3118 40.1172 32.2539 39.7098 32.6014 39.6807C33.2673 39.6516 33.2383 39.1279 33.3252 38.7496C33.3831 38.4005 33.6437 38.0222 33.9622 38.1095C34.1938 38.1677 34.1649 38.0513 34.2228 37.9349C34.6281 37.3239 35.0045 36.6838 35.3809 36.0728C36.2495 34.5889 36.6259 32.9595 36.4522 31.2428C36.4522 31.1555 36.4522 31.0391 36.3363 31.0682C35.7283 31.2137 36.1916 30.719 36.0468 30.6027C36.3074 30.3117 36.1047 30.0498 35.96 29.788C35.6704 29.2933 35.2361 29.0024 34.7729 28.7114C34.6281 28.6241 34.4544 28.5077 34.5702 28.3331C34.8018 27.9258 34.7729 27.4603 34.8597 27.0238C34.8887 26.9365 34.9176 26.7619 34.7439 26.7619C34.5992 26.7328 34.5123 26.8201 34.4544 26.9656C34.3965 27.1693 34.2807 27.373 34.1938 27.5475C34.1359 27.6639 34.1069 27.8385 33.9622 27.8094C33.7885 27.7803 33.7016 27.6639 33.6726 27.4603C33.6437 27.2275 33.5568 26.9947 33.4989 26.7619C33.6726 26.8201 33.7885 26.8783 33.9043 26.9947C33.9622 27.0529 34.1069 27.082 34.1649 26.9656C34.3386 26.6456 33.8464 26.2964 34.1359 25.9763C33.8464 25.9181 33.5279 26.2673 33.2963 25.86C33.2963 25.86 33.2383 25.8891 33.2094 25.8891C32.833 26.2091 32.833 26.2382 32.4566 25.9472C32.3408 25.86 32.2539 25.8018 32.1092 25.8891C31.9355 25.9763 31.7907 25.9181 31.617 25.8309C31.2695 25.6563 31.2695 25.1907 30.8642 25.0744C31.0669 24.958 31.2406 25.1907 31.2985 24.958C31.3274 24.8125 31.1537 24.667 31.0379 24.6379C30.8063 24.5797 30.7194 24.8125 30.6326 24.958C30.343 25.569 29.6481 25.6854 29.127 25.2198C29.2428 25.1616 29.3297 25.0744 29.4165 25.0744C29.5902 25.0744 29.6482 24.9289 29.6482 24.8125C29.6482 24.6379 29.4744 24.667 29.3297 24.667C28.9822 24.6088 28.6927 24.7543 28.4032 24.8707C28.3453 24.8998 28.3163 24.9289 28.2873 24.9871C28.0847 25.1907 27.882 25.3071 27.5635 25.1325C27.4477 25.0744 27.245 25.0453 27.1292 25.1035C26.7239 25.278 26.4922 25.1325 26.2896 24.7543C26.2027 24.6088 26.029 24.4924 26.2606 24.3178C26.4054 24.2306 26.3185 24.1724 26.2027 24.1433C26.1159 24.1142 25.8263 24.0269 25.7395 24.056C25.5657 24.1142 25.392 24.1433 25.1894 24.0851C24.9867 24.0269 24.7261 23.9105 24.5234 24.3469C24.3787 24.6379 23.7996 24.5215 23.3943 24.3178C23.9444 24.1142 24.4655 23.8232 25.0446 23.9396C25.2183 23.9687 25.2762 23.8814 25.2762 23.7068C25.2762 23.5322 25.1604 23.5322 25.0446 23.5613C24.8709 23.5613 24.7261 23.7359 24.5524 23.6195C24.6682 23.5322 24.784 23.5032 24.8998 23.445C25.0446 23.3868 25.2762 23.3577 25.3052 23.1249C25.3052 23.0958 25.2762 23.0085 25.2762 22.9794C25.0735 22.9503 24.9288 23.0667 24.813 23.1831C24.6392 23.445 24.4076 23.2995 24.2339 23.2122C24.176 23.1831 24.2339 22.9503 24.2049 22.8048C24.176 22.7175 24.4366 22.7466 24.2629 22.6303C24.2049 22.6012 24.0602 22.5721 24.0023 22.6885C23.9733 22.7757 23.9733 22.863 23.9733 22.9794C23.5969 22.5139 23.568 22.5139 23.2205 22.9212C23.1047 23.0667 22.9889 23.2704 22.7283 23.1831C22.7283 23.0667 22.96 22.9794 22.8441 22.863C22.7573 22.8048 22.5257 22.7757 22.4678 22.8339C22.2361 23.0958 21.8018 23.154 21.686 23.5322C21.6571 23.6777 21.5992 23.7068 21.4544 23.7359C21.1649 23.7941 20.9043 23.4741 20.6147 23.7068C20.2673 23.154 20.0357 23.7359 19.9778 23.8523C19.833 24.1433 19.833 23.8523 19.8041 23.8232C19.6593 23.5613 19.833 23.3577 20.0067 23.2413C20.1804 23.1249 20.1515 23.0085 20.1225 22.863C20.0936 22.8048 20.0357 22.7466 19.9778 22.7466C19.8041 22.7466 19.8041 22.9212 19.7461 23.0376C19.6593 23.2413 19.6593 23.445 19.4856 23.6195C19.2829 23.2995 18.8486 23.2995 18.588 23.0667C18.7617 22.8048 18.9355 23.0958 19.0802 23.0376C19.196 23.0085 19.3118 22.9794 19.3118 22.8339C19.3118 22.6885 19.1671 22.7466 19.0802 22.7466C18.9065 22.7466 18.7038 22.7466 18.4722 22.7466C18.617 22.543 18.7617 22.5139 18.9355 22.543C18.9065 22.3102 18.9934 22.1065 19.0802 21.8447C19.1671 22.1356 19.1381 22.3393 18.9355 22.5139V22.543C19.1671 22.7757 19.3408 22.543 19.5435 22.4848C19.6882 22.4557 19.833 22.2229 19.9488 22.4266C20.0646 22.6303 20.1225 22.5721 20.2384 22.4557C20.3542 22.3393 20.47 22.252 20.5858 22.1356C20.441 21.4082 20.2094 22.1065 20.0357 22.0774C19.9488 21.5246 19.5435 21.6119 19.1381 21.6701C19.0223 21.5246 19.3408 21.5537 19.225 21.4082C19.1381 21.3209 19.0802 21.3209 18.9644 21.3791C18.7907 21.4955 18.6459 21.35 18.5012 21.2627C18.3274 21.1754 18.0669 21.1754 18.0379 21.2336C17.98 21.6701 17.4588 21.5828 17.3141 21.9029C17.2562 21.9901 17.1693 22.1356 16.9956 22.0774C16.8219 21.9901 16.764 21.8738 16.764 21.6992C16.3007 21.9029 15.8375 21.7865 15.3742 21.6992C15.2584 21.6701 15.0557 21.7574 15.0847 21.5246C15.1136 21.3791 14.9399 21.1463 15.2584 21.0882C15.49 21.03 15.6058 20.8263 15.7506 20.6226C15.7796 20.6808 15.8085 20.739 15.8664 20.7972C15.9533 20.8845 16.0401 21.0882 16.1559 20.9427C16.3007 20.8263 16.098 20.739 16.0401 20.6517C15.7506 20.2153 15.4611 20.4771 15.2294 20.6808C15.0557 20.8263 14.9399 20.8554 14.8241 20.739C14.7372 20.6226 14.8241 20.4771 14.9689 20.4189C15.0847 20.3607 15.2005 20.3026 15.1715 20.1862C15.1426 20.0407 14.9399 20.1571 14.882 20.128C14.6504 19.9825 14.2161 20.0698 14.245 19.7497C14.3029 19.1969 14.2161 18.9059 13.4923 19.0223C13.7528 18.8477 13.9845 18.9932 14.1292 18.8186C13.8976 18.6732 14.0424 18.324 13.8976 18.0621C13.6081 17.5384 14.1003 17.6257 14.3608 17.5675C14.3898 17.5675 14.4188 17.5093 14.4188 17.4802C14.4767 16.8401 15.0847 16.52 15.3453 15.9963C15.4611 15.7635 15.6637 15.5017 15.2584 15.298C15.4321 15.2689 15.5769 15.2689 15.6927 15.2398C16.2718 15.0361 16.7061 14.6288 17.0245 14.0759C17.1404 13.8432 17.4009 13.5813 17.5747 13.7268C17.7773 13.9014 17.8931 13.8141 17.98 13.7268C18.5301 13.3194 19.0802 12.9703 19.7172 12.7084C20.2673 12.4756 20.5568 11.8937 20.9622 11.4573C21.078 11.5445 20.8753 11.8646 21.1938 11.7191C21.5702 11.5445 22.0335 11.37 22.2072 10.9917C22.3809 10.5553 22.9021 10.7299 23.1047 10.3807C23.1047 10.3516 23.2784 10.3807 23.2784 10.4098C23.3653 10.6135 23.4811 10.4971 23.6259 10.4971C24.2918 10.468 24.5234 9.94425 24.813 9.47871C24.8419 9.12955 25.1025 8.95498 25.3052 8.7513C25.3631 8.7222 25.4789 8.69311 25.5368 8.7222C25.6237 8.7513 25.6237 8.86769 25.5947 8.95497C25.421 9.24594 25.1025 9.33323 24.8419 9.50781C24.8419 9.50781 24.8419 9.50781 24.813 9.5369C24.8419 9.59509 24.6682 9.76967 24.9577 9.76967C25.2473 9.76967 25.392 9.76967 25.5368 9.50781C25.6237 9.36232 25.7974 9.04226 25.9132 9.50781C25.9711 9.71148 26.0869 9.62419 26.1448 9.5369C26.3185 9.24594 26.5212 8.86769 26.3475 8.57672C26.1448 8.25666 26.3764 8.22757 26.5212 8.16937C26.7528 8.08208 27.0424 8.02389 27.1871 7.79112C27.0424 7.67474 26.8397 7.79112 26.666 7.61654C27.0713 7.41287 27.1292 7.03462 27.2161 6.65636C27.245 6.56907 27.1582 6.27811 27.4188 6.3654C27.6504 6.42359 27.4767 6.62727 27.4477 6.74365C27.3608 7.00552 27.274 7.29648 27.5346 7.44197C27.7662 7.58745 27.882 7.76202 27.882 8.02389C28.4032 7.9657 28.4611 7.38377 28.8085 7.23829C29.5034 6.97642 29.6771 6.10353 30.4299 5.92895C30.4588 5.92895 30.4878 5.89986 30.5167 5.89986C30.6905 5.49251 30.6905 5.49251 31.0379 5.78347C31.2406 5.20155 31.4143 4.88149 32.2829 4.99787C32.4277 5.02697 32.4566 4.96877 32.4856 4.88149C32.6593 4.53233 32.9488 4.21227 33.0357 3.83402C33.1515 3.39757 33.3252 3.54305 33.5568 3.65944C33.6726 3.71763 33.6726 4.09589 33.8753 3.80492C33.9911 3.63034 34.0201 3.39757 33.8464 3.22299C33.7885 3.1648 33.7016 3.13571 33.6437 3.07751C33.5858 2.99022 33.4121 2.96113 33.4989 2.81565C33.5568 2.69926 33.6437 2.58287 33.8174 2.61197C33.9911 2.64107 33.9043 2.78655 33.9332 2.90293C33.9911 3.25209 34.3096 3.28119 34.5123 3.28119C34.7439 3.28119 34.5992 2.99022 34.6281 2.81565C34.6281 2.58287 34.3965 2.3501 34.686 2.17553C34.8887 2.29191 34.5412 2.64107 34.9176 2.69926C35.2361 2.72836 35.323 2.49559 35.3809 2.23372C35.4098 2.11733 35.4677 2.00095 35.5257 1.88456C35.5546 1.85547 35.5257 1.65179 35.6415 1.82637C35.7283 1.94275 35.8731 2.03004 35.96 2.00095C36.1047 1.91366 36.0468 1.79727 35.902 1.70998C35.8152 1.65179 35.931 1.65179 35.96 1.65179C36.2784 1.5645 36.5101 1.24444 36.8285 1.21535C37.2339 1.18625 37.4655 0.86619 37.813 0.749804C38.0156 0.54613 37.9867 0.458841 37.9867 0.371552ZM5.18268 58.9425C5.03791 59.1171 4.86419 59.2044 4.60361 59.2044C4.80629 59.1462 4.83524 58.8843 4.98001 58.7679C5.03791 58.7097 5.06686 58.6224 5.18268 58.7097C5.24058 58.7679 5.26954 58.8552 5.18268 58.9425ZM7.41208 57.7787C7.38312 57.8077 7.29626 57.8077 7.26731 57.7787C7.2094 57.5459 7.23836 57.2549 6.97778 57.1385C7.06464 56.993 7.06464 56.7894 7.29626 56.673C7.32522 57.0221 7.35417 57.3131 7.46998 57.6041C7.52789 57.6914 7.44103 57.7496 7.41208 57.7787ZM12.9132 54.2289C12.7684 54.258 12.8263 54.1416 12.8263 54.0834C12.8263 53.9961 12.8263 53.9088 12.9421 53.9379C13 53.9379 13.029 54.0543 13.0869 54.1125C13.0869 54.2289 12.9711 54.2289 12.9132 54.2289ZM21.0201 45.5291C20.8753 45.7037 20.7885 45.3254 20.6437 45.209C20.9622 45.0344 21.3096 45.0345 21.7439 45.0926C21.4544 45.2963 21.2228 45.3254 21.0201 45.5291ZM22.1493 44.3652C21.8018 44.5398 21.8018 44.5398 21.6281 44.8599C21.2807 44.5689 21.4254 44.3361 21.7439 44.2198C22.1203 44.0743 22.1493 43.7833 22.1203 43.4632C22.0624 43.085 22.1782 42.7358 22.5257 42.474C22.1782 42.794 22.6125 43.0559 22.6415 43.3469C22.6704 43.6378 22.4388 44.2198 22.1493 44.3652ZM22.96 43.3469C22.8441 43.1432 23.0468 43.1432 23.1916 43.1141C23.1337 43.2014 23.0468 43.2596 22.96 43.3469ZM22.4098 24.4342C22.4388 24.376 22.4388 24.2888 22.4678 24.1724C22.6994 24.2597 22.9021 24.3178 23.1047 24.4342C22.931 24.5215 22.8152 24.6088 22.6994 24.667C22.5836 24.7252 22.5257 24.9871 22.3519 24.8416C22.2651 24.7543 22.323 24.5797 22.4098 24.4342ZM21.8887 24.0851C22.0335 24.1433 22.1493 24.2306 22.0914 24.3469C22.0045 24.5215 22.0335 24.667 22.0045 24.8416C21.7729 24.7834 21.686 24.5797 21.6281 24.376C21.5992 24.2597 21.8018 24.1724 21.8887 24.0851ZM21.8887 25.0453C21.3965 25.3362 21.078 25.1616 20.7595 24.958C20.9332 24.8707 21.1069 24.9289 21.3386 24.9871C21.1938 24.6961 20.9043 24.5215 20.7016 24.667C20.3542 24.9289 20.47 24.5797 20.2963 24.4633C20.7306 24.4051 21.0201 24.6088 21.3096 24.6088C21.7439 24.5797 21.4544 25.0744 21.8887 25.0453ZM21.3965 24.2306C21.3965 24.2888 21.3965 24.3179 21.3675 24.376C21.1938 24.3469 21.0201 24.2888 20.7306 24.2306C21.049 24.2015 21.2228 24.1433 21.3965 24.2306ZM20.6437 23.9687C20.7595 24.1142 20.5858 24.056 20.5279 24.0851C20.47 24.0851 20.441 24.0851 20.2673 24.056C20.47 24.0269 20.5279 23.8523 20.6437 23.9687ZM18.9644 24.4051C18.8486 24.4051 18.7617 24.3469 18.7328 24.2597C18.7328 24.2015 18.7907 24.1142 18.9065 24.1142C18.9934 24.1433 19.0513 24.2015 19.0802 24.2888C19.1092 24.376 19.0513 24.376 18.9644 24.4051ZM19.196 23.9396C19.225 23.9396 19.225 23.9396 19.2539 23.9396C19.2539 23.9396 19.225 23.9396 19.196 23.9396C19.0513 23.9396 18.7617 23.7359 18.617 24.1724C18.617 23.1831 19.0513 23.8523 19.196 23.9396ZM18.4433 21.641C18.5591 21.641 18.617 21.6992 18.617 21.8156C18.617 21.961 18.5591 22.1065 18.4143 22.0774C18.3274 22.0774 18.1827 21.961 18.1827 21.8738C18.1537 21.6992 18.3274 21.6992 18.4433 21.641ZM14.4767 11.1372C14.4188 11.1372 14.3029 11.1372 14.3319 11.0499C14.3898 10.9044 14.4767 10.788 14.5925 10.6717C14.5925 10.6717 14.7083 10.7299 14.7662 10.7589C14.6504 10.9335 14.6793 11.1372 14.4767 11.1372ZM16.9087 9.68238C16.7929 9.71148 16.735 9.65329 16.8219 9.5369C16.8508 9.50781 16.8798 9.44961 16.9666 9.30413C16.9087 9.50781 16.9377 9.65329 16.9087 9.68238ZM32.2829 4.41594C32.225 4.44504 32.1381 4.41594 32.0513 4.38685C32.0802 4.27046 32.1092 4.12498 32.2829 4.03769C32.225 4.18317 32.4566 4.29956 32.2829 4.41594Z" fill="white"/>
<path d="M39.4922 29.3515H40.7082V37.0038C41.1136 36.1891 42.0111 35.1417 43.6904 35.1417C46.7015 35.1417 46.7594 38.1095 46.7594 38.7205V44.4234H45.5434V38.8951C45.5434 37.8185 45.4276 36.131 43.5456 36.131C41.8953 36.131 40.7082 37.7022 40.7082 39.768V44.4234H39.4922V29.3515Z" fill="white"/>
<path d="M49.51 35.549L52.8396 43.085L55.6771 35.549H56.9221L51.6815 48.7588H50.3497L52.1737 44.3652L48.0913 35.549H49.51Z" fill="white"/>
<path d="M62.481 35.1708C63.8997 35.1708 64.7104 36.0728 64.942 37.0329C65.8975 35.2581 67.3451 35.1708 68.04 35.1708C70.7327 35.1708 70.7616 37.8767 70.7616 38.5751V44.4525H69.5456V38.5751C69.5456 37.7894 69.4298 36.1601 67.7794 36.1601C66.3607 36.1601 65.1157 37.4694 65.1157 39.6807V44.4525H63.8997V38.6332C63.8997 37.6731 63.726 36.1601 62.1915 36.1601C60.599 36.1601 59.4988 37.9349 59.4988 39.6807V44.4525H58.2828V35.549H59.4988V37.0911C60.4253 35.4035 61.5835 35.1708 62.481 35.1708Z" fill="white"/>
<path d="M74.5835 29.3515V36.9747C75.5389 35.3454 77.0445 35.1708 77.7973 35.1708C80.5189 35.1708 82.3719 37.1202 82.3719 40.0008C82.3719 42.7067 80.6347 44.8308 77.8262 44.8308C76.2627 44.8308 75.1046 44.0161 74.4676 42.9395V44.4525H73.3385V29.3806H74.5835V29.3515ZM81.069 40.0008C81.069 38.2259 80.1425 36.16 77.6814 36.16C75.7705 36.16 74.4966 37.9058 74.4966 40.0008C74.4966 42.5031 76.118 43.8415 77.8552 43.8415C79.8819 43.8415 81.069 42.1539 81.069 40.0008Z" fill="white"/>
<path d="M91.8107 35.549V40.8155C91.8107 41.6302 91.7238 44.8308 88.1046 44.8308C84.4855 44.8308 84.3986 41.6011 84.3986 40.8155V35.549H85.6147V40.9609C85.6147 42.0666 85.9332 43.8415 88.0757 43.8415C90.2472 43.8415 90.5367 42.0666 90.5367 40.9609V35.549H91.8107Z" fill="white"/>
<path d="M94.4165 29.3515H95.6325V44.4234H94.4165V29.3515Z" fill="white"/>
<path d="M105.563 35.549H106.693V44.4525H105.563V42.9395C104.84 44.2197 103.566 44.8308 102.292 44.8308C99.4832 44.8308 97.6881 42.7067 97.6881 40.0008C97.6881 37.2366 99.5701 35.1708 102.321 35.1708C103.334 35.1708 104.695 35.4908 105.563 37.1202V35.549ZM105.563 40.0008C105.563 37.9058 104.289 36.1601 102.35 36.1601C100.41 36.1601 98.991 37.7894 98.991 40.0008C98.991 42.0666 100.265 43.8415 102.292 43.8415C104.174 43.8415 105.563 42.3285 105.563 40.0008Z" fill="white"/>
<path d="M109.327 29.3515H110.543V39.1279L114.51 35.5199H116.189L111.846 39.3607L117 44.4234H115.234L110.978 40.1463L110.572 40.4954V44.4525H109.356V29.3515H109.327Z" fill="white"/>
<path d="M57.9353 52.3376L56.2561 48.4387L55.5901 52.1049H54.9532L56.0534 46.4893L57.9353 50.9701L59.8173 46.4893L60.9175 52.1049H60.2806L59.5857 48.4387L57.9353 52.3376Z" fill="white"/>
<path d="M66.7951 49.428C66.7951 49.8062 66.7372 50.1845 66.5924 50.5336C66.4476 50.8828 66.245 51.1738 65.9844 51.4356C65.7238 51.6975 65.4053 51.9012 65.0579 52.0466C64.7104 52.1921 64.3341 52.2503 63.9577 52.2503C63.5813 52.2503 63.2049 52.1921 62.8574 52.0466C62.51 51.9012 62.1915 51.6975 61.9309 51.4356C61.6704 51.1738 61.4387 50.8537 61.294 50.5336C61.1492 50.1845 61.0913 49.8353 61.0913 49.4571C61.0913 49.0788 61.1492 48.7006 61.294 48.3514C61.4387 48.0023 61.6414 47.7113 61.9309 47.4203C62.1915 47.1585 62.51 46.9548 62.8574 46.8093C63.2049 46.6638 63.5813 46.6056 63.9577 46.6056C64.3341 46.6056 64.7104 46.6638 65.0579 46.8093C65.4053 46.9548 65.7238 47.1585 65.9844 47.4203C66.245 47.6822 66.4766 48.0023 66.5924 48.3223C66.7372 48.6715 66.7951 49.0497 66.7951 49.428ZM63.9287 51.6684C64.2182 51.6684 64.5078 51.6102 64.7684 51.4938C65.0289 51.3774 65.2606 51.232 65.4922 50.9992C65.6949 50.7955 65.8686 50.5336 65.9844 50.2718C66.1002 50.0099 66.1581 49.7189 66.1581 49.428C66.1581 49.137 66.1002 48.8461 65.9844 48.5551C65.8686 48.2932 65.7238 48.0314 65.4922 47.8277C65.2895 47.624 65.0289 47.4494 64.7684 47.333C64.5078 47.2167 64.2182 47.1585 63.9287 47.1585C63.6392 47.1585 63.3496 47.2167 63.0891 47.333C62.8285 47.4494 62.5969 47.5949 62.3652 47.8277C62.1626 48.0314 61.9888 48.2932 61.873 48.5551C61.7572 48.817 61.6993 49.1079 61.6993 49.428C61.6993 49.7189 61.7572 50.0099 61.873 50.2718C61.9888 50.5336 62.1336 50.7664 62.3652 50.9992C62.5679 51.2029 62.8285 51.3774 63.0891 51.4938C63.3496 51.6102 63.6392 51.6684 63.9287 51.6684Z" fill="white"/>
<path d="M67.4031 46.722H68.04V50.0972C68.04 50.65 68.1558 51.0574 68.3875 51.2902C68.6191 51.552 68.9955 51.6684 69.4877 51.6684C69.9799 51.6684 70.3563 51.552 70.5879 51.2902C70.8195 51.0283 70.9353 50.6209 70.9353 50.0972V46.722H71.5723V50.0972C71.5723 50.8246 71.3986 51.3774 71.0511 51.7266C70.7037 52.0758 70.1826 52.2794 69.4877 52.2794C68.7928 52.2794 68.2716 52.1049 67.9242 51.7266C67.5768 51.3774 67.4031 50.8246 67.4031 50.0972V46.722Z" fill="white"/>
<path d="M72.4119 46.5183L76.3495 50.8537V46.7511H76.9576V52.3667L73.0199 48.0896V52.163H72.4119V46.5183Z" fill="white"/>
<path d="M78.7527 52.1339V47.333H77.2182V46.722H80.8952V47.333H79.3897V52.1339H78.7527Z" fill="white"/>
<path d="M82.3719 46.5183L84.8329 52.1339H84.1381L83.4432 50.4755H81.3296L80.6347 52.1339H79.9109L82.3719 46.5183ZM82.3719 47.915L81.5033 49.8935H83.2116L82.3719 47.915Z" fill="white"/>
<path d="M84.9487 52.1339V46.722H85.5857V52.1339H84.9487Z" fill="white"/>
<path d="M86.4542 46.5183L90.3919 50.8537V46.7511H90.9999V52.3667L87.0622 48.0896V52.163H86.4542V46.5183Z" fill="white"/>
<path d="M93.6347 52.1339V46.722H94.9086C95.2561 46.722 95.5456 46.7511 95.6904 46.7802C95.8641 46.8093 96.0089 46.8966 96.1247 46.9839C96.2694 47.1003 96.4142 47.2749 96.5011 47.4785C96.5879 47.6822 96.6458 47.915 96.6458 48.1768C96.6458 48.6133 96.53 48.9624 96.2694 49.1952C96.0089 49.428 95.6614 49.5444 95.1982 49.5444H95.0824L97.138 52.1339H96.3273L94.3585 49.5444H94.2717V52.1339H93.6347ZM94.2717 47.2749V49.0788H94.7639C95.2561 49.0788 95.6035 49.0206 95.7772 48.8752C95.9509 48.7588 96.0378 48.526 96.0378 48.2059C96.0378 47.8568 95.9509 47.624 95.7772 47.4785C95.6035 47.333 95.285 47.2749 94.7928 47.2749H94.2717Z" fill="white"/>
<path d="M97.2538 52.1339V46.722H100.091V47.304H97.8908V48.8461H100.091V49.4571H97.8908V51.5229H100.091V52.1339H97.2538Z" fill="white"/>
<path d="M102.697 49.137C103.044 49.2825 103.305 49.4862 103.479 49.748C103.652 50.0099 103.739 50.3009 103.739 50.6209C103.739 51.1156 103.595 51.5229 103.276 51.8139C102.958 52.1049 102.552 52.2794 102.031 52.2794C101.597 52.2794 101.249 52.163 100.96 51.9594C100.67 51.7557 100.468 51.4356 100.381 51.0283L100.96 50.7373C101.047 51.0574 101.162 51.3192 101.336 51.4938C101.51 51.6684 101.742 51.7557 102.002 51.7557C102.321 51.7557 102.581 51.6684 102.784 51.4647C102.987 51.2902 103.073 51.0283 103.073 50.7373C103.073 50.5045 103.015 50.2718 102.871 50.0972C102.726 49.9226 102.523 49.7771 102.234 49.6317L101.568 49.3407C101.22 49.1952 100.931 48.9915 100.757 48.7588C100.583 48.526 100.497 48.235 100.497 47.915C100.497 47.5367 100.641 47.2167 100.931 46.9548C101.22 46.6929 101.568 46.5765 102.031 46.5765C102.35 46.5765 102.639 46.6347 102.871 46.7802C103.102 46.9257 103.305 47.1294 103.421 47.3912L102.9 47.7404C102.784 47.5367 102.639 47.3621 102.494 47.2749C102.35 47.1585 102.176 47.1294 101.973 47.1294C101.742 47.1294 101.539 47.2167 101.394 47.3621C101.249 47.5076 101.162 47.7113 101.162 47.915C101.162 48.1186 101.22 48.2641 101.336 48.4096C101.452 48.5551 101.626 48.6715 101.886 48.7879L102.697 49.137Z" fill="white"/>
<path d="M109.704 49.428C109.704 49.8062 109.646 50.1845 109.501 50.5336C109.356 50.8828 109.154 51.1738 108.893 51.4356C108.632 51.6975 108.314 51.9012 107.966 52.0466C107.619 52.1921 107.243 52.2503 106.866 52.2503C106.49 52.2503 106.113 52.1921 105.766 52.0466C105.419 51.9012 105.1 51.6975 104.84 51.4356C104.579 51.1738 104.347 50.8537 104.203 50.5336C104.058 50.1845 104 49.8353 104 49.4571C104 49.0788 104.058 48.7006 104.203 48.3514C104.347 48.0023 104.55 47.7113 104.84 47.4203C105.1 47.1585 105.419 46.9548 105.766 46.8093C106.113 46.6638 106.49 46.6056 106.866 46.6056C107.243 46.6056 107.619 46.6638 107.966 46.8093C108.314 46.9548 108.632 47.1585 108.893 47.4203C109.154 47.6822 109.385 48.0023 109.501 48.3223C109.617 48.6715 109.704 49.0497 109.704 49.428ZM106.808 51.6684C107.098 51.6684 107.387 51.6102 107.648 51.4938C107.909 51.3774 108.14 51.232 108.372 50.9992C108.575 50.7955 108.748 50.5336 108.864 50.2718C108.98 50.0099 109.038 49.7189 109.038 49.428C109.038 49.137 108.98 48.8461 108.864 48.5551C108.748 48.2932 108.603 48.0314 108.372 47.8277C108.169 47.624 107.909 47.4494 107.648 47.333C107.387 47.2167 107.098 47.1585 106.808 47.1585C106.519 47.1585 106.229 47.2167 105.969 47.333C105.708 47.4494 105.477 47.5949 105.245 47.8277C105.042 48.0314 104.868 48.2932 104.753 48.5551C104.637 48.817 104.579 49.1079 104.579 49.428C104.579 49.7189 104.637 50.0099 104.753 50.2718C104.868 50.5336 105.013 50.7664 105.245 50.9992C105.448 51.2029 105.708 51.3774 105.969 51.4938C106.229 51.6102 106.519 51.6684 106.808 51.6684Z" fill="white"/>
<path d="M110.312 52.1339V46.722H111.586C111.933 46.722 112.223 46.7511 112.367 46.7802C112.541 46.8093 112.686 46.8966 112.802 46.9839C112.947 47.1003 113.091 47.2749 113.178 47.4785C113.265 47.6822 113.323 47.915 113.323 48.1768C113.323 48.6133 113.207 48.9624 112.947 49.1952C112.686 49.428 112.339 49.5444 111.875 49.5444H111.759L113.815 52.1339H113.004L111.036 49.5444H110.949V52.1339H110.312ZM110.92 47.2749V49.0788H111.412C111.904 49.0788 112.252 49.0206 112.425 48.8752C112.599 48.7588 112.686 48.526 112.686 48.2059C112.686 47.8568 112.599 47.624 112.425 47.4785C112.252 47.333 111.933 47.2749 111.441 47.2749H110.92Z" fill="white"/>
<path d="M114.857 52.1339V47.333H113.323V46.722H117V47.333H115.494V52.1339H114.857Z" fill="white"/>
</svg>
