<svg width="158" height="47" viewBox="0 0 158 47" fill="none" xmlns="http://www.w3.org/2000/svg">
<path d="M152.148 47H5.85185C2.63333 47 0 44.3562 0 41.125V5.875C0 2.64375 2.63333 -3.8147e-06 5.85185 -3.8147e-06H152.148C155.367 -3.8147e-06 158 2.64375 158 5.875V41.125C158 44.3562 155.367 47 152.148 47Z" fill="#212225"/>
<path d="M152.148 0H5.85185C2.63333 0 0 2.64375 0 5.875V41.125C0 44.3563 2.63333 47 5.85185 47H152.148C155.367 47 158 44.3563 158 41.125V5.875C158 2.64375 155.367 0 152.148 0ZM152.148 0.939999C154.859 0.939999 157.064 3.15417 157.064 5.875V41.125C157.064 43.8463 154.859 46.0605 152.148 46.0605H5.85185C3.14174 46.0605 0.936296 43.8463 0.936296 41.125V5.875C0.936296 3.15417 3.14174 0.939999 5.85185 0.939999H152.148Z" fill="#A6A6A6"/>
<path d="M12.3005 38.1641L12.2135 38.0816C11.8729 37.7242 11.6719 37.1694 11.6719 36.4509V36.62V10.9545C11.6719 10.9522 11.6719 10.9505 11.6719 10.9486C11.6719 10.9508 11.6719 10.9527 11.6719 10.955V11.1246C11.6719 10.3466 11.9063 9.76052 12.2991 9.40912L26.7997 23.7871L12.3005 38.1641ZM11.6719 10.9472C11.6719 10.8833 11.6736 10.8212 11.6769 10.76C11.6736 10.8207 11.6719 10.8833 11.6719 10.9472ZM11.6769 10.7573C11.6769 10.7565 11.6769 10.7555 11.6773 10.7546C11.6769 10.7555 11.6769 10.7565 11.6769 10.7573ZM11.6773 10.7491C11.6773 10.7487 11.6773 10.7482 11.6773 10.7477C11.6773 10.7482 11.6773 10.7487 11.6773 10.7491Z" fill="url(#paint0_linear_103_3536)"/>
<path d="M31.6326 28.7578L31.7429 28.6957L37.4694 25.4694C38.0153 25.1617 38.3792 24.7886 38.5607 24.3938C38.3797 24.7886 38.0157 25.1621 37.4694 25.4699L31.7429 28.6962L31.6326 28.7578ZM31.634 28.5878L26.7998 23.7936L31.6336 19.0001L37.4694 22.2876C38.2104 22.7051 38.6265 23.2433 38.696 23.7931C38.696 23.7936 38.696 23.7945 38.696 23.7953C38.6265 24.3439 38.2104 24.8825 37.4694 25.2999L31.634 28.5878Z" fill="url(#paint1_linear_103_3536)"/>
<path d="M13.3335 38.7109C12.9284 38.7109 12.575 38.5804 12.2993 38.3338L12.2998 38.3333C12.5754 38.5799 12.9293 38.7109 13.3344 38.7109C13.3695 38.7109 13.4052 38.71 13.4414 38.7083C13.4047 38.71 13.3686 38.7109 13.3335 38.7109ZM13.3339 38.5409C12.9289 38.5414 12.5754 38.4104 12.2998 38.1638V38.1634L26.7991 23.7864L31.6333 28.5806L14.6451 38.1516C14.1751 38.4158 13.7298 38.5409 13.3339 38.5409ZM12.2957 38.3306C12.2701 38.3075 12.2449 38.2831 12.2202 38.2576L12.2957 38.3306Z" fill="url(#paint2_linear_103_3536)"/>
<path d="M26.8 23.7891L12.2993 9.41113C12.5749 9.16499 12.9279 9.03443 13.3325 9.03443C13.7294 9.03443 14.1751 9.16 14.646 9.42471L31.6337 18.9956L26.8 23.7891ZM31.743 18.8874L14.646 9.25527C14.1751 8.99045 13.7294 8.86488 13.3325 8.86488C13.3306 8.86488 13.3294 8.86488 13.3275 8.86488C13.3298 8.86488 13.3316 8.86488 13.3344 8.86488C13.7303 8.86488 14.1755 8.98998 14.646 9.25481L31.743 18.8874Z" fill="url(#paint3_linear_103_3536)"/>
<path d="M13.4419 38.7109C13.8099 38.69 14.2173 38.5645 14.6456 38.3238L31.6324 28.7533L14.6456 38.3238C14.2176 38.5649 13.8099 38.69 13.4419 38.7109ZM12.2999 38.3364L12.2962 38.3333C12.2975 38.3342 12.2989 38.3355 12.2999 38.3364ZM12.2208 38.2603L12.2134 38.2531V38.2527C12.2162 38.2553 12.2184 38.258 12.2208 38.2603Z" fill="#212225"/>
<path d="M31.6309 28.7578L31.7411 28.6957L31.6309 28.7578Z" fill="url(#paint4_linear_103_3536)"/>
<path d="M13.3349 38.7109C12.9299 38.7109 12.576 38.5799 12.3003 38.3333L12.2999 38.3338C12.2989 38.3328 12.2975 38.3316 12.2962 38.3306L12.2208 38.2576C12.2184 38.2553 12.2162 38.2527 12.2134 38.25L12.3003 38.1638C12.576 38.4104 12.9294 38.5414 13.3345 38.5409C13.7303 38.5409 14.1756 38.4158 14.6456 38.1516L31.6338 28.5806L31.7426 28.6886L31.6324 28.7507L14.6456 38.3211C14.2173 38.5618 13.8099 38.6874 13.4419 38.7083C13.4058 38.71 13.3701 38.7109 13.3349 38.7109Z" fill="url(#paint5_linear_103_3536)"/>
<path d="M12.2135 38.2578C11.8729 37.9005 11.6719 37.3457 11.6719 36.6272V36.6267C11.6719 37.3457 11.8729 37.9 12.2135 38.2573V38.2578Z" fill="#212225"/>
<path d="M12.2135 38.2578C11.8729 37.9005 11.6719 37.3461 11.6719 36.6272V36.4581C11.6719 37.1766 11.8729 37.7314 12.2135 38.0887L12.3005 38.1712L12.2135 38.2578Z" fill="url(#paint6_linear_103_3536)"/>
<path d="M12.2134 38.2578L12.3003 38.1712V38.1716L12.2134 38.2578Z" fill="url(#paint7_linear_103_3536)"/>
<path d="M38.5605 24.3907C38.6505 24.1949 38.6958 23.9936 38.6958 23.7923C38.6958 23.7919 38.6958 23.7915 38.6958 23.7915C38.6958 23.9932 38.6505 24.1944 38.5605 24.3907Z" fill="#212225"/>
<path d="M31.7431 28.6953L31.6343 28.5874L37.4696 25.2995C38.2107 24.882 38.6268 24.3435 38.6963 23.7949C38.6963 23.9962 38.651 24.1975 38.561 24.3934C38.3795 24.7882 38.0156 25.1613 37.4696 25.469L31.7431 28.6953Z" fill="url(#paint8_linear_103_3536)"/>
<path d="M38.6978 23.7891V23.7886C38.6973 23.1815 38.2882 22.5746 37.4711 22.114L31.7446 18.8877H31.7441L31.7446 18.8874L37.4711 22.1135C38.2891 22.5741 38.6987 23.182 38.6978 23.7891Z" fill="#404040"/>
<path d="M38.6968 23.7891C38.6272 23.2392 38.2112 22.7011 37.4701 22.2836L31.6343 18.9961L31.7431 18.8882H31.7436L37.4701 22.1145C38.2871 22.5751 38.6963 23.182 38.6968 23.7891Z" fill="url(#paint9_linear_103_3536)"/>
<path d="M11.6719 10.9531C11.6719 10.9527 11.6719 10.9522 11.6719 10.9517C11.6719 10.9522 11.6719 10.9527 11.6719 10.9531ZM11.6769 10.7645C11.6769 10.7636 11.6769 10.7627 11.6769 10.7618C11.6769 10.7627 11.6769 10.7636 11.6769 10.7645ZM11.6773 10.7591C11.6773 10.7572 11.6773 10.7555 11.6773 10.7536C11.6773 10.7555 11.6773 10.7572 11.6773 10.7591ZM11.6773 10.7522C11.745 9.56007 12.3988 8.87143 13.3236 8.86737C12.9226 8.86969 12.5734 9.00025 12.3 9.24453V9.24407L12.2967 9.24731C12.2679 9.27308 12.2406 9.30035 12.2135 9.32843C11.9063 9.6507 11.7125 10.1335 11.6773 10.7522Z" fill="#404040"/>
<path d="M11.6719 11.125V10.9555C11.6719 10.9531 11.6719 10.9513 11.6719 10.9491C11.6719 10.9486 11.6719 10.9481 11.6719 10.9477C11.6719 10.8837 11.6736 10.8212 11.6769 10.7605C11.6769 10.7596 11.6769 10.7586 11.6769 10.7577C11.6769 10.7569 11.6769 10.756 11.6773 10.755C11.6773 10.7532 11.6773 10.7514 11.6773 10.7496C11.6773 10.7491 11.6773 10.7487 11.6773 10.7482C11.7125 10.1294 11.9063 9.64665 12.2135 9.32438L12.2991 9.40956C11.9063 9.76096 11.6719 10.347 11.6719 11.125ZM12.2967 9.24326L12.3 9.24001C12.2991 9.2414 12.2977 9.24233 12.2967 9.24326Z" fill="url(#paint10_linear_103_3536)"/>
<path d="M31.6333 19L14.6456 9.42906C14.1747 9.16435 13.729 9.03878 13.3321 9.03878C12.9275 9.03878 12.5746 9.16934 12.2989 9.41548L12.2134 9.3303C12.2404 9.30222 12.2678 9.27494 12.2966 9.24918C12.2975 9.24825 12.2989 9.24733 12.2999 9.2464C12.5733 9.00211 12.9225 8.87156 13.3235 8.86924C13.3244 8.86924 13.3257 8.86924 13.3271 8.86924C13.329 8.86924 13.3303 8.86924 13.3321 8.86924C13.729 8.86924 14.1747 8.9948 14.6456 9.25963L31.7426 18.8917L31.7422 18.8921L31.6333 19Z" fill="url(#paint11_linear_103_3536)"/>
<path d="M125.155 36.2618H127.339V21.7542H125.155V36.2618ZM144.825 26.9802L142.322 33.2699H142.247L139.649 26.9802H137.296L141.192 35.7712L138.971 40.6612H141.25L147.254 26.9802H144.825ZM132.44 34.614C131.724 34.614 130.727 34.2595 130.727 33.3819C130.727 32.2621 131.97 31.8329 133.042 31.8329C134.003 31.8329 134.453 32.0382 135.037 32.3184C134.868 33.662 133.701 34.614 132.44 34.614ZM132.704 26.6628C131.123 26.6628 129.485 27.3536 128.808 28.8841L130.746 29.6864C131.16 28.8841 131.931 28.6225 132.741 28.6225C133.871 28.6225 135.019 29.2948 135.037 30.4893V30.6384C134.642 30.4144 133.796 30.0786 132.76 30.0786C130.671 30.0786 128.543 31.2168 128.543 33.3447C128.543 35.2858 130.256 36.5365 132.176 36.5365C133.645 36.5365 134.453 35.8832 134.963 35.1181H135.037V36.2378H137.145V30.6755C137.145 28.1003 135.207 26.6628 132.704 26.6628ZM119.207 28.7462H116.101V23.7734H119.207C120.84 23.7734 121.767 25.1137 121.767 26.2597C121.767 27.384 120.84 28.7462 119.207 28.7462ZM119.151 21.7542H113.918V36.2618H116.101V30.7653H119.151C121.571 30.7653 123.95 29.0277 123.95 26.2597C123.95 23.4918 121.571 21.7542 119.151 21.7542ZM90.616 34.6167C89.1073 34.6167 87.8441 33.3641 87.8441 31.6438C87.8441 29.9054 89.1073 28.6339 90.616 28.6339C92.1055 28.6339 93.2745 29.9054 93.2745 31.6438C93.2745 33.3641 92.1055 34.6167 90.616 34.6167ZM93.1236 27.7925H93.0481C92.5581 27.2131 91.6149 26.6896 90.4272 26.6896C87.9383 26.6896 85.657 28.8582 85.657 31.6438C85.657 34.4109 87.9383 36.561 90.4272 36.561C91.6149 36.561 92.5581 36.0373 93.0481 35.4395H93.1236V36.1498C93.1236 38.0384 92.1055 39.0479 90.4651 39.0479C89.1265 39.0479 88.2968 38.0941 87.957 37.2903L86.053 38.0755C86.5998 39.3842 88.0517 40.9922 90.4651 40.9922C93.0294 40.9922 95.1978 39.4962 95.1978 35.8506V26.9887H93.1236V27.7925ZM96.706 36.2618H98.8932V21.7538H96.706V36.2618ZM102.118 31.4757C102.061 29.5685 103.607 28.5966 104.719 28.5966C105.587 28.5966 106.322 29.0263 106.567 29.6438L102.118 31.4757ZM108.905 29.8306C108.491 28.7272 107.227 26.6896 104.644 26.6896C102.08 26.6896 99.9492 28.69 99.9492 31.6253C99.9492 34.3923 102.061 36.561 104.889 36.561C107.171 36.561 108.491 35.1774 109.038 34.3737L107.341 33.2517C106.775 34.0745 106.002 34.6167 104.889 34.6167C103.777 34.6167 102.985 34.1117 102.476 33.1211L109.131 30.3913L108.905 29.8306ZM55.878 28.204V30.2979H60.9311C60.7802 31.4757 60.3843 32.3356 59.7808 32.934C59.0457 33.6633 57.8955 34.4671 55.878 34.4671C52.7668 34.4671 50.3347 31.9806 50.3347 28.8958C50.3347 25.811 52.7668 23.3241 55.878 23.3241C57.5562 23.3241 58.7815 23.9787 59.6866 24.82L61.1761 23.3432C59.913 22.1463 58.2347 21.2303 55.878 21.2303C51.6166 21.2303 48.0342 24.6704 48.0342 28.8958C48.0342 33.1211 51.6166 36.561 55.878 36.561C58.1785 36.561 59.913 35.8135 61.2704 34.4109C62.6657 33.0274 63.0995 31.0831 63.0995 29.5128C63.0995 29.0263 63.062 28.578 62.9861 28.204H55.878ZM68.8444 34.6167C67.3357 34.6167 66.0346 33.3827 66.0346 31.6253C66.0346 29.8491 67.3357 28.6339 68.8444 28.6339C70.3526 28.6339 71.6537 29.8491 71.6537 31.6253C71.6537 33.3827 70.3526 34.6167 68.8444 34.6167ZM68.8444 26.6896C66.0912 26.6896 63.8474 28.7648 63.8474 31.6253C63.8474 34.4671 66.0912 36.561 68.8444 36.561C71.597 36.561 73.8408 34.4671 73.8408 31.6253C73.8408 28.7648 71.597 26.6896 68.8444 26.6896ZM79.7443 34.6167C78.2362 34.6167 76.935 33.3827 76.935 31.6253C76.935 29.8491 78.2362 28.6339 79.7443 28.6339C81.2526 28.6339 82.5537 29.8491 82.5537 31.6253C82.5537 33.3827 81.2526 34.6167 79.7443 34.6167ZM79.7443 26.6896C76.9912 26.6896 74.7479 28.7648 74.7479 31.6253C74.7479 34.4671 76.9912 36.561 79.7443 36.561C82.497 36.561 84.7409 34.4671 84.7409 31.6253C84.7409 28.7648 82.497 26.6896 79.7443 26.6896Z" fill="white"/>
<path d="M50.9064 13.0178C50.9201 14.1194 50.6975 15.0079 50.2402 15.6825H53.7902V10.4303H50.9064V13.0178ZM49.288 18.0156H48.4253V15.6825H49.1119C49.72 15.1629 50.0171 14.2754 50.0048 13.0178V9.57489H54.6931V15.6825H55.4772V18.0156H54.6141V16.5379H49.288V18.0156Z" fill="white"/>
<path d="M50.9067 13.0112L50.7897 13.0126L50.7906 13.1063C50.7901 14.1486 50.5707 14.9809 50.1431 15.6109L50.0207 15.7918H53.9075V10.3076H50.7897V13.0121V13.0126L50.9067 13.0112H51.0237V10.5397H53.6735V15.5597H50.2405V15.6758L50.3375 15.7402C50.7979 15.0611 51.0247 14.1798 51.0247 13.1063L51.0237 13.0098L50.9067 13.0112H51.0237H50.9067ZM49.2883 18.009V17.8929H48.5427V15.7918H49.1123H49.1557L49.1886 15.7637C49.8213 15.2225 50.1227 14.3208 50.1227 13.0873L50.1222 13.0102V13.0112V9.68426H54.5764V15.7918H55.3605V17.8929H54.7315V16.5312V16.4151H49.1713V18.009H49.2883V17.8929V18.009H49.4054V16.6472H54.4974V18.009V18.125H55.4776H55.5946V15.5597H54.8105V9.45216H49.8881V13.0116V13.0121L49.8886 13.0873C49.8881 14.2882 49.5946 15.1119 49.0359 15.5873L49.1123 15.6758V15.5597H48.4256H48.3086V18.125H49.2883H49.4054V18.009H49.2883Z" fill="white"/>
<path d="M58.0327 15.0492C58.5529 15.571 59.1884 15.8316 59.9405 15.8316C60.6925 15.8316 61.3289 15.571 61.8478 15.0492C62.3681 14.5275 62.6286 13.8605 62.6286 13.0505C62.6286 12.2405 62.3681 11.5736 61.8478 11.0518C61.3289 10.53 60.6925 10.2694 59.9405 10.2694C59.1884 10.2694 58.5529 10.53 58.0327 11.0518C57.5138 11.5736 57.2532 12.2405 57.2532 13.0505C57.2532 13.8605 57.5138 14.5275 58.0327 15.0492ZM62.5153 15.6321C61.8249 16.3361 60.9668 16.6875 59.9405 16.6875C58.9141 16.6875 58.0555 16.3361 57.3665 15.6321C56.6762 14.929 56.332 14.0683 56.332 13.0505C56.332 12.0328 56.6762 11.1719 57.3665 10.4689C58.0555 9.76481 58.9141 9.41306 59.9405 9.41306C60.9608 9.41306 61.8172 9.76666 62.5106 10.4734C63.2033 11.1801 63.5498 12.0391 63.5498 13.0505C63.5498 14.0683 63.2047 14.929 62.5153 15.6321Z" fill="white"/>
<path d="M58.0296 15.0504L57.9464 15.1319C58.4854 15.6746 59.1579 15.9502 59.9374 15.9488C60.7164 15.9502 61.3903 15.6746 61.9279 15.1319C62.4706 14.5888 62.7435 13.8862 62.7426 13.0516C62.7435 12.2171 62.4706 11.5145 61.9279 10.9713C61.3903 10.4287 60.7164 10.1531 59.9374 10.1545C59.1579 10.1531 58.4854 10.4287 57.9464 10.9713C57.4051 11.5145 57.1322 12.2171 57.1331 13.0516C57.1322 13.8862 57.4051 14.5888 57.9464 15.1319L58.0296 15.0504L58.1133 14.9688C57.6167 14.4678 57.3685 13.8377 57.3672 13.0516C57.3685 12.2656 57.6167 11.6355 58.1133 11.1345H58.1128C58.6139 10.6336 59.2123 10.388 59.9374 10.3866C60.662 10.388 61.2618 10.6336 61.7615 11.1345L61.7633 11.1364L61.7615 11.1345C62.2593 11.6355 62.5072 12.2656 62.5085 13.0516C62.5072 13.8377 62.2593 14.4678 61.7615 14.9688C61.2618 15.4697 60.662 15.7153 59.9374 15.7167C59.2123 15.7153 58.6139 15.4697 58.1128 14.9688L58.0296 15.0504ZM62.5123 15.6333L62.4286 15.5526C61.7578 16.2344 60.9368 16.5712 59.9374 16.5726C58.9376 16.5712 58.1169 16.2344 57.4471 15.5526C56.7778 14.8685 56.4473 14.0435 56.446 13.0516C56.4473 12.0598 56.7778 11.2348 57.4471 10.5507C58.1169 9.86888 58.9376 9.53164 59.9374 9.53025C60.9309 9.53164 61.7496 9.87027 62.424 10.5557C63.096 11.2429 63.4284 12.0666 63.4297 13.0516C63.4284 14.0435 63.097 14.8685 62.4286 15.5526L62.5123 15.6333L62.5963 15.7139C63.3059 14.9914 63.6647 14.0952 63.6638 13.0516C63.6647 12.0141 63.3049 11.1197 62.5917 10.3939C61.8785 9.66533 60.9853 9.29687 59.9374 9.29815C58.8841 9.29687 57.988 9.66359 57.2794 10.3894V10.3889C56.5684 11.1119 56.211 12.0081 56.2119 13.0516C56.211 14.0952 56.5684 14.9914 57.2794 15.7144V15.7139C57.988 16.4397 58.8841 16.8056 59.9374 16.8047C60.9903 16.8056 61.8863 16.4397 62.5963 15.7139L62.5123 15.6333Z" fill="white"/>
<path d="M68.0892 16.6875C67.056 16.6875 66.1897 16.3407 65.4902 15.6467C64.7893 14.9531 64.4409 14.0876 64.4409 13.0505C64.4409 12.0133 64.7893 11.1479 65.4902 10.4544C66.1897 9.76028 67.056 9.41306 68.0892 9.41306C69.1476 9.41306 70.008 9.79254 70.6686 10.5509L70.04 11.1543C69.5636 10.564 68.9121 10.2694 68.0892 10.2694C67.3234 10.2694 66.6774 10.5255 66.1516 11.0378C65.625 11.55 65.3621 12.221 65.3621 13.0505C65.3621 13.88 65.625 14.5515 66.1516 15.0633C66.6774 15.5755 67.3234 15.8316 68.0892 15.8316C68.9327 15.8316 69.6514 15.4947 70.247 14.8207L70.8743 15.4426C70.5534 15.8253 70.152 16.1285 69.6673 16.3515C69.1841 16.5755 68.6571 16.6875 68.0892 16.6875Z" fill="white"/>
<path d="M68.09 16.6886V16.5726C67.0829 16.5712 66.2531 16.238 65.5737 15.5657C64.8948 14.8925 64.5597 14.063 64.5588 13.0516C64.5597 12.0403 64.8948 11.2108 65.5737 10.5376C66.2531 9.86482 67.0829 9.53164 68.09 9.53025C69.1205 9.5321 69.9398 9.89383 70.5807 10.6277L70.6694 10.5521L70.5881 10.4686L69.9595 11.0724L70.0408 11.1554L70.1322 11.0829C69.6357 10.4655 68.9404 10.1527 68.09 10.1545C67.2977 10.1535 66.6161 10.4234 66.0707 10.9559C65.5198 11.4904 65.2445 12.1985 65.2459 13.0516C65.2445 13.9048 65.5198 14.6138 66.0707 15.1474C66.6161 15.6799 67.2977 15.9497 68.09 15.9488C68.9655 15.9502 69.724 15.5938 70.3356 14.8985L70.2478 14.8219L70.1651 14.9039L70.7924 15.5258L70.8752 15.4438L70.785 15.37C70.4751 15.7389 70.0893 16.0309 69.6188 16.2475C69.1511 16.4642 68.6428 16.5721 68.09 16.5726V16.6886V16.8047C68.6733 16.8047 69.2184 16.6896 69.7175 16.4579C70.2168 16.2285 70.6329 15.9144 70.9652 15.5182L71.0333 15.437L70.3307 14.7398L70.242 14.6519L70.1597 14.7453C69.5808 15.3985 68.9016 15.7153 68.09 15.7167C67.3504 15.7153 66.7409 15.4733 66.2348 14.9814H66.2344C65.7315 14.4918 65.4809 13.8576 65.48 13.0516C65.4809 12.2457 65.7315 11.6124 66.2344 11.1219H66.2348C66.7409 10.63 67.3504 10.388 68.09 10.3866C68.8851 10.3884 69.4926 10.665 69.9494 11.2279L70.0298 11.3277L70.7507 10.6355L70.8303 10.5593L70.7581 10.4764C70.0783 9.69306 69.1763 9.29687 68.09 9.29815C67.0303 9.29722 66.1273 9.6586 65.4082 10.3735C64.6854 11.0869 64.3233 11.9891 64.3247 13.0516C64.3233 14.1142 64.6854 15.0164 65.4082 15.7303C66.1273 16.4447 67.0303 16.8056 68.09 16.8047V16.6886Z" fill="white"/>
<path d="M74.5262 16.5312H73.6234V10.4237H71.6621V9.56829H76.4875V10.4237H74.5262V16.5312Z" fill="white"/>
<path d="M74.5266 16.5324V16.4163H73.7408V10.3088H71.7795V9.68547H76.3708V10.3088H74.4095V16.5324H74.5266V16.4163V16.5324H74.6436V10.5409H76.6049V9.56943V9.45338H71.5454V10.4248V10.5409H73.5067V16.6484H74.5266H74.6436V16.5324H74.5266Z" fill="white"/>
<path d="M82.6827 9.56903L80.0256 15.4426C79.6585 16.2727 79.114 16.6875 78.388 16.6875C78.1722 16.6875 77.9399 16.6359 77.6909 16.532L77.9262 15.7051C78.0771 15.7899 78.2339 15.8316 78.3972 15.8316C78.6066 15.8316 78.7688 15.7913 78.8831 15.7106C78.9975 15.6295 79.1035 15.4812 79.2018 15.2676L79.4568 14.7128L77.0933 9.56903H78.1526L79.8885 13.5659H79.9273L81.6229 9.56903H82.6827Z" fill="white"/>
<path d="M82.6831 9.57015L82.5761 9.52257L79.919 15.3966L79.9185 15.3976C79.5574 16.2021 79.0641 16.5685 78.3884 16.5726C78.1913 16.5726 77.9746 16.5255 77.7364 16.4261L77.6912 16.5331L77.804 16.5648L78.039 15.7379L77.9266 15.7063L77.8695 15.8073C78.0359 15.9008 78.2137 15.9493 78.3975 15.9488C78.6211 15.9488 78.8084 15.9067 78.9516 15.8059C79.0924 15.7049 79.2053 15.5403 79.3087 15.3173L79.5638 14.7624L79.5857 14.7139L77.2756 9.6862H78.0761L79.8116 13.6831H79.9277H80.0054L81.701 9.6862H82.6831V9.57015L82.5761 9.52257L82.6831 9.57015V9.4541H81.6233H81.5456L79.8193 13.5222L79.9277 13.567V13.451H79.8888V13.567L79.9963 13.5213L78.2302 9.4541H77.0936H76.9116L79.3283 14.7139L79.0957 15.2207C79.0028 15.4243 78.9031 15.5557 78.8154 15.6169C78.7299 15.6782 78.5923 15.7172 78.3975 15.7167C78.2544 15.7167 78.1196 15.6808 77.9841 15.6052L77.8544 15.5326L77.5787 16.5014L77.5503 16.6002L77.6459 16.6401C77.906 16.7484 78.1534 16.8047 78.3884 16.8047C79.1641 16.8083 79.7603 16.345 80.133 15.4905L80.1325 15.4913L82.8637 9.4541H82.6831V9.57015Z" fill="white"/>
<path d="M83.7041 16.5312V9.56829H88.7847V16.5312H87.8819V10.4237H84.6056V16.5312H83.7041Z" fill="white"/>
<path d="M83.7044 16.5324H83.8215V9.68547H88.6676V16.4163H87.9992V10.3088H84.4889V16.4163H83.7044V16.5324H83.8215H83.7044V16.6484H84.606H84.723V10.5409H87.7652V16.6484H88.785H88.9021V9.45338H83.5874V16.6484H83.7044V16.5324Z" fill="white"/>
<path d="M90.3906 16.5312V9.56829H91.2926V12.5534H94.8037V9.56829H95.7067V16.5312H94.8037V13.3898H91.2926V16.5312H90.3906Z" fill="white"/>
<path d="M90.391 16.5324H90.508V9.68547H91.1759V12.6706H94.9211V9.68547H95.59V16.4163H94.9211V13.2749H91.1759V16.4163H90.391V16.5324H90.508H90.391V16.6484H91.293H91.41V13.507H94.687V16.6484H95.707H95.8241V9.45338H94.8041H94.687V12.4385H91.41V9.45338H90.391H90.2739V16.6484H90.391V16.5324Z" fill="white"/>
<path d="M98.5786 15.0492C99.0989 15.571 99.7343 15.8316 100.486 15.8316C101.238 15.8316 101.875 15.571 102.394 15.0492C102.914 14.5275 103.175 13.8605 103.175 13.0505C103.175 12.2405 102.914 11.5736 102.394 11.0518C101.875 10.53 101.238 10.2694 100.486 10.2694C99.7343 10.2694 99.0989 10.53 98.5786 11.0518C98.0602 11.5736 97.7991 12.2405 97.7991 13.0505C97.7991 13.8605 98.0602 14.5275 98.5786 15.0492ZM103.061 15.6321C102.371 16.3361 101.513 16.6875 100.486 16.6875C99.4601 16.6875 98.602 16.3361 97.9125 15.6321C97.2222 14.929 96.8779 14.0683 96.8779 13.0505C96.8779 12.0328 97.2222 11.1719 97.9125 10.4689C98.602 9.76481 99.4601 9.41306 100.486 9.41306C101.507 9.41306 102.363 9.76666 103.057 10.4734C103.749 11.1801 104.096 12.0391 104.096 13.0505C104.096 14.0683 103.751 14.929 103.061 15.6321Z" fill="white"/>
<path d="M98.5789 15.0504L98.4958 15.1319C99.0353 15.6746 99.7073 15.9502 100.487 15.9488C101.266 15.9502 101.94 15.6746 102.478 15.1319C103.02 14.5888 103.293 13.8862 103.292 13.0516C103.293 12.2171 103.02 11.5145 102.478 10.9713C101.94 10.4287 101.266 10.1531 100.487 10.1545C99.7073 10.1531 99.0353 10.4287 98.4958 10.9713C97.9545 11.5145 97.6815 12.2171 97.6824 13.0516C97.6815 13.8862 97.9545 14.5888 98.4958 15.1319L98.5789 15.0504L98.6626 14.9688C98.1661 14.4678 97.9179 13.8377 97.9165 13.0516C97.9179 12.2656 98.1661 11.6355 98.6626 11.1345C99.1633 10.6336 99.7622 10.388 100.487 10.3866C101.211 10.388 101.811 10.6336 102.311 11.1345L102.315 11.1382L102.311 11.1345C102.809 11.6355 103.057 12.2656 103.058 13.0516C103.057 13.8377 102.809 14.4678 102.311 14.9688C101.811 15.4697 101.211 15.7153 100.487 15.7167C99.7622 15.7153 99.1633 15.4697 98.6626 14.9688L98.5789 15.0504ZM103.062 15.6333L102.978 15.5526C102.307 16.2344 101.486 16.5712 100.487 16.5726C99.4874 16.5712 98.6664 16.2344 97.997 15.5526L97.9934 15.549L97.997 15.5526C97.3272 14.8685 96.9967 14.0435 96.9953 13.0516C96.9967 12.0598 97.3272 11.2348 97.997 10.5507C98.6664 9.86888 99.4874 9.53164 100.487 9.53025C101.48 9.53164 102.299 9.87027 102.973 10.5557C103.645 11.2429 103.978 12.0666 103.979 13.0516C103.978 14.0435 103.646 14.8685 102.978 15.5526L103.062 15.6333L103.146 15.7139C103.856 14.9914 104.214 14.0952 104.213 13.0516C104.214 12.0141 103.854 11.1197 103.141 10.3939C102.428 9.66533 101.535 9.29687 100.487 9.29815C99.4334 9.29687 98.5379 9.66359 97.8287 10.3894V10.3889C97.1178 11.1119 96.7603 12.0081 96.7612 13.0516C96.7603 14.0952 97.1178 14.9914 97.8287 15.7144V15.7139C98.5379 16.4397 99.4334 16.8056 100.487 16.8047C101.54 16.8056 102.436 16.4397 103.146 15.7139L103.062 15.6333Z" fill="white"/>
<path d="M108.686 15.6758H110.501C110.848 15.6758 111.128 15.5557 111.345 15.3151C111.56 15.0761 111.668 14.8131 111.668 14.5275C111.668 14.2424 111.557 13.9818 111.334 13.7451C111.113 13.5085 110.821 13.3898 110.461 13.3898H108.686V15.6758ZM108.686 12.5534H110.324C110.665 12.5534 110.938 12.4424 111.144 12.2179C111.35 11.9944 111.453 11.7501 111.453 11.484C111.453 11.2184 111.353 10.9745 111.153 10.7551C110.954 10.5343 110.691 10.4237 110.364 10.4237H108.686V12.5534ZM107.785 16.5312V9.56829H110.324C110.873 9.56829 111.35 9.74874 111.751 10.1077C112.154 10.4681 112.355 10.92 112.355 11.4645C112.355 11.7949 112.268 12.0869 112.094 12.3399C111.922 12.5928 111.691 12.7841 111.403 12.9138V12.9523C111.749 13.0688 112.034 13.27 112.257 13.5552C112.478 13.8408 112.59 14.1717 112.59 14.5475C112.59 15.1178 112.38 15.591 111.957 15.9669C111.536 16.3431 111.037 16.5312 110.461 16.5312H107.785Z" fill="white"/>
<path d="M108.683 15.677V15.793H110.498C110.871 15.7944 111.193 15.6584 111.428 15.3936C111.66 15.1384 111.783 14.8438 111.782 14.5287C111.783 14.2133 111.656 13.9199 111.417 13.667C111.174 13.4062 110.843 13.2735 110.458 13.2749H108.566V15.793H108.683V15.677H108.8V13.507H110.458C110.793 13.5083 111.045 13.6135 111.246 13.8252C111.452 14.0464 111.547 14.2744 111.548 14.5287C111.547 14.7848 111.454 15.0161 111.254 15.239C111.059 15.4549 110.818 15.5591 110.498 15.5609H108.683V15.677H108.8H108.683ZM108.683 12.5546V12.6706H110.321C110.686 12.6719 111 12.5468 111.227 12.297V12.2975C111.448 12.0581 111.567 11.7816 111.567 11.4852C111.567 11.1905 111.453 10.9149 111.237 10.6783V10.6787C111.018 10.4329 110.713 10.3074 110.361 10.3088H108.566V12.6706H108.683V12.5546H108.8V10.5409H110.361C110.662 10.5427 110.884 10.6379 111.062 10.8333L111.063 10.8341L111.062 10.8338C111.246 11.0369 111.331 11.249 111.332 11.4852C111.331 11.7204 111.244 11.9335 111.054 12.1406V12.1411C110.869 12.3401 110.636 12.4371 110.321 12.4385H108.683V12.5546H108.8H108.683ZM107.782 16.5324H107.899V9.68547H110.321C110.844 9.6864 111.287 9.85409 111.67 10.195C112.05 10.5368 112.234 10.9498 112.235 11.4657C112.235 11.7762 112.154 12.0423 111.995 12.2757C111.833 12.5115 111.622 12.6873 111.351 12.8093L111.283 12.8402V12.9534V13.0364L111.362 13.0631C111.688 13.1738 111.952 13.3596 112.161 13.6276L112.162 13.6288L112.161 13.6271C112.367 13.8937 112.47 14.1955 112.47 14.5486C112.469 15.0908 112.275 15.5246 111.876 15.8819C111.473 16.2396 111.008 16.4154 110.458 16.4163H107.782V16.5324H107.899H107.782V16.6484H110.458C111.06 16.6494 111.591 16.4489 112.032 16.0541C112.477 15.6602 112.705 15.1475 112.704 14.5486C112.705 14.1502 112.584 13.7903 112.346 13.4856L112.345 13.4842L112.346 13.4852C112.111 13.1833 111.804 12.9665 111.438 12.8438L111.4 12.9534H111.517V12.9149H111.4L111.448 13.0205C111.754 12.8832 112.004 12.6769 112.188 12.4058V12.4062C112.375 12.1339 112.469 11.816 112.469 11.4657C112.47 10.8931 112.252 10.4017 111.826 10.0227L111.824 10.0205L111.826 10.0227C111.405 9.64509 110.896 9.45244 110.321 9.45337H107.665V16.6484H107.782V16.5324Z" fill="white"/>
<defs>
<linearGradient id="paint0_linear_103_3536" x1="25.514" y1="10.6838" x2="6.03868" y2="30.3248" gradientUnits="userSpaceOnUse">
<stop stop-color="#00A0FF"/>
<stop offset="0.00657445" stop-color="#00A1FF"/>
<stop offset="0.2601" stop-color="#00BEFF"/>
<stop offset="0.5122" stop-color="#00D2FF"/>
<stop offset="0.7604" stop-color="#00DFFF"/>
<stop offset="1" stop-color="#00E3FF"/>
</linearGradient>
<linearGradient id="paint1_linear_103_3536" x1="39.599" y1="23.7943" x2="11.2795" y2="23.7943" gradientUnits="userSpaceOnUse">
<stop stop-color="#FFE000"/>
<stop offset="0.4087" stop-color="#FFBD00"/>
<stop offset="0.7754" stop-color="#FFA500"/>
<stop offset="1" stop-color="#FF9C00"/>
</linearGradient>
<linearGradient id="paint2_linear_103_3536" x1="29.0562" y1="26.4501" x2="2.64631" y2="53.0848" gradientUnits="userSpaceOnUse">
<stop stop-color="#FF3A44"/>
<stop offset="1" stop-color="#C31162"/>
</linearGradient>
<linearGradient id="paint3_linear_103_3536" x1="8.54091" y1="0.78274" x2="20.334" y2="12.6762" gradientUnits="userSpaceOnUse">
<stop stop-color="#32A071"/>
<stop offset="0.0685" stop-color="#2DA771"/>
<stop offset="0.4762" stop-color="#15CF74"/>
<stop offset="0.8009" stop-color="#06E775"/>
<stop offset="1" stop-color="#00F076"/>
</linearGradient>
<linearGradient id="paint4_linear_103_3536" x1="39.5971" y1="23.7942" x2="11.2781" y2="23.7942" gradientUnits="userSpaceOnUse">
<stop stop-color="#CCB300"/>
<stop offset="0.4087" stop-color="#CC9700"/>
<stop offset="0.7754" stop-color="#CC8400"/>
<stop offset="1" stop-color="#CC7D00"/>
</linearGradient>
<linearGradient id="paint5_linear_103_3536" x1="29.0568" y1="26.4501" x2="2.64685" y2="53.0848" gradientUnits="userSpaceOnUse">
<stop stop-color="#CC2E36"/>
<stop offset="1" stop-color="#9C0E4E"/>
</linearGradient>
<linearGradient id="paint6_linear_103_3536" x1="25.514" y1="10.691" x2="6.03867" y2="30.332" gradientUnits="userSpaceOnUse">
<stop stop-color="#008DE0"/>
<stop offset="0.00657445" stop-color="#008DE0"/>
<stop offset="0.2601" stop-color="#00A7E0"/>
<stop offset="0.5122" stop-color="#00B8E0"/>
<stop offset="0.7604" stop-color="#00C4E0"/>
<stop offset="1" stop-color="#00C7E0"/>
</linearGradient>
<linearGradient id="paint7_linear_103_3536" x1="29.057" y1="26.4579" x2="2.64703" y2="53.093" gradientUnits="userSpaceOnUse">
<stop stop-color="#E0333C"/>
<stop offset="1" stop-color="#AB0F56"/>
</linearGradient>
<linearGradient id="paint8_linear_103_3536" x1="39.5992" y1="23.7939" x2="11.2798" y2="23.7939" gradientUnits="userSpaceOnUse">
<stop stop-color="#E0C500"/>
<stop offset="0.4087" stop-color="#E0A600"/>
<stop offset="0.7754" stop-color="#E09100"/>
<stop offset="1" stop-color="#E08900"/>
</linearGradient>
<linearGradient id="paint9_linear_103_3536" x1="39.5997" y1="23.7902" x2="11.2803" y2="23.7902" gradientUnits="userSpaceOnUse">
<stop stop-color="#FFE840"/>
<stop offset="0.4087" stop-color="#FFCE40"/>
<stop offset="0.7754" stop-color="#FFBC40"/>
<stop offset="1" stop-color="#FFB540"/>
</linearGradient>
<linearGradient id="paint10_linear_103_3536" x1="25.5139" y1="10.6842" x2="6.03867" y2="30.3252" gradientUnits="userSpaceOnUse">
<stop stop-color="#40B8FF"/>
<stop offset="0.00657445" stop-color="#40B9FF"/>
<stop offset="0.2601" stop-color="#40CEFF"/>
<stop offset="0.5122" stop-color="#40DDFF"/>
<stop offset="0.7604" stop-color="#40E7FF"/>
<stop offset="1" stop-color="#40EAFF"/>
</linearGradient>
<linearGradient id="paint11_linear_103_3536" x1="8.54052" y1="0.787093" x2="20.3336" y2="12.6806" gradientUnits="userSpaceOnUse">
<stop stop-color="#65B895"/>
<stop offset="0.0685" stop-color="#62BD95"/>
<stop offset="0.4762" stop-color="#50DB97"/>
<stop offset="0.8009" stop-color="#44ED98"/>
<stop offset="1" stop-color="#40F498"/>
</linearGradient>
</defs>
</svg>
