<svg width="28" height="24" viewBox="0 0 28 24" fill="none" xmlns="http://www.w3.org/2000/svg">
<path d="M13.999 23.6663C13.8162 23.6663 13.6335 23.6022 13.4869 23.4739C12.3206 22.4535 11.2254 21.5221 10.1663 20.6215C4.48188 15.7876 0.726562 12.5941 0.726562 7.93206C0.726562 3.75783 3.70259 0.335938 7.77753 0.335938C9.97385 0.335938 11.8821 1.39058 13.2959 3.3859C13.5744 3.77888 13.8071 4.1714 13.999 4.53624C14.1907 4.17146 14.4236 3.77888 14.702 3.3859C16.1159 1.39058 18.0241 0.335938 20.2204 0.335938C24.2959 0.335938 27.2714 3.75851 27.2714 7.93206C27.2714 12.5941 23.5161 15.7875 17.8318 20.6214C16.7726 21.5221 15.6774 22.4534 14.5111 23.4739C14.3645 23.6022 14.1817 23.6663 13.999 23.6663ZM7.77753 1.8913C4.64452 1.8913 2.28192 4.48828 2.28192 7.93206C2.28192 11.8751 5.81933 14.8832 11.1738 19.4365C12.0811 20.2081 13.0148 21.0021 13.999 21.8569C14.9832 21.002 15.9168 20.2081 16.8242 19.4364C22.1787 14.8832 25.716 11.8751 25.716 7.93206C25.716 4.48828 23.3534 1.8913 20.2204 1.8913C18.5394 1.8913 17.1182 2.68479 15.9963 4.24979C15.1113 5.48423 14.752 6.75185 14.7486 6.76455C14.6549 7.10093 14.3483 7.33433 13.9992 7.33433C13.9987 7.33433 13.9981 7.33433 13.9977 7.33433C13.6484 7.33366 13.3424 7.10103 13.2494 6.76455C13.2459 6.7519 12.8866 5.48423 12.0016 4.24979C10.8797 2.68479 9.45846 1.8913 7.77753 1.8913Z" fill="#6D7784"/>
</svg>
