<svg width="23" height="23" viewBox="0 0 23 23" fill="none" xmlns="http://www.w3.org/2000/svg">
<path d="M11.0511 22.798C10.8158 22.7682 10.5785 22.747 10.3451 22.7019C6.98564 22.1253 4.7229 20.2561 3.61449 17.0848C3.00315 15.3348 3.17893 13.605 3.89184 11.9012C4.59138 10.2457 5.43914 8.6548 6.42508 7.14713C7.85186 4.94932 9.3304 2.78419 10.7923 0.61233C11.1566 0.0712872 11.8246 0.0501472 12.1859 0.587346C14.1752 3.53665 16.2875 6.411 17.9878 9.54002C18.6089 10.6807 19.1596 11.8522 19.519 13.1024C19.7917 14.0472 19.8331 15.0421 19.6401 16.0056C19.0825 18.8886 17.4145 20.9231 14.7172 22.1397C13.8988 22.5042 13.0185 22.7154 12.1215 22.7624C12.0631 22.7701 12.0054 22.7817 11.9486 22.797L11.0511 22.798ZM11.4994 2.43631C11.4613 2.48532 11.433 2.51703 11.4095 2.55163C10.222 4.32467 9.01301 6.0833 7.85479 7.87461C6.9495 9.26902 6.11941 10.7067 5.47487 12.2395C5.00318 13.3619 4.71607 14.5026 4.94068 15.7375C5.20045 17.1588 5.8196 18.387 6.88309 19.3778C7.92257 20.3477 9.24967 20.9656 10.671 21.1414C12.0923 21.3172 13.5335 21.0417 14.7846 20.3551C16.2807 19.52 17.2788 18.2726 17.812 16.6745C18.1792 15.5703 18.2641 14.4488 17.9096 13.311C17.4594 11.8916 16.7641 10.5865 16.0151 9.30649C14.6567 6.9876 13.1127 4.78499 11.6019 2.56316C11.5697 2.5276 11.5394 2.49012 11.4955 2.43631H11.4994Z" fill="white"/>
</svg>
