<svg width="26" height="26" viewBox="0 0 26 26" fill="none" xmlns="http://www.w3.org/2000/svg">
<path d="M13 0.8125C11.7948 0.8125 10.6166 1.16989 9.6145 1.83948C8.61238 2.50907 7.83133 3.46079 7.37011 4.57427C6.90889 5.68776 6.78821 6.91301 7.02334 8.09508C7.25847 9.27715 7.83884 10.363 8.69107 11.2152C9.5433 12.0674 10.6291 12.6478 11.8112 12.8829C12.9932 13.118 14.2185 12.9974 15.332 12.5361C16.4455 12.0749 17.3972 11.2939 18.0668 10.2918C18.7364 9.28964 19.0938 8.11148 19.0938 6.90625C19.0938 5.29009 18.4517 3.74012 17.3089 2.59732C16.1661 1.45452 14.6162 0.8125 13 0.8125ZM13 11.2589C12.1391 11.2589 11.2976 11.0036 10.5818 10.5254C9.86599 10.0471 9.3081 9.3673 8.97865 8.57195C8.64921 7.7766 8.56301 6.90142 8.73096 6.05708C8.89891 5.21275 9.31346 4.43717 9.92219 3.82844C10.5309 3.21971 11.3065 2.80516 12.1508 2.63721C12.9952 2.46926 13.8704 2.55546 14.6657 2.8849C15.461 3.21434 16.1408 3.77224 16.6191 4.48803C17.0974 5.20383 17.3527 6.04537 17.3527 6.90625C17.3527 7.47785 17.2401 8.04386 17.0214 8.57195C16.8026 9.10004 16.482 9.57987 16.0778 9.98406C15.6736 10.3882 15.1938 10.7089 14.6657 10.9276C14.1376 11.1463 13.5716 11.2589 13 11.2589Z" fill="#6D7784"/>
<path d="M17.5007 14.7422H8.49933C6.46136 14.7445 4.50753 15.5551 3.06647 16.9962C1.6254 18.4372 0.814804 20.3911 0.8125 22.429C0.8125 23.1609 1.10324 23.8628 1.62077 24.3803C2.13829 24.8979 2.84021 25.1886 3.5721 25.1886H22.4279C23.1598 25.1886 23.8617 24.8979 24.3792 24.3803C24.8968 23.8628 25.1875 23.1609 25.1875 22.429C25.1852 20.3911 24.3746 18.4372 22.9335 16.9962C21.4925 15.5551 19.5386 14.7445 17.5007 14.7422ZM22.4279 23.4475H3.5721C3.30197 23.4475 3.0429 23.3402 2.85189 23.1492C2.66088 22.9582 2.55357 22.6991 2.55357 22.429C2.55357 20.8521 3.18 19.3398 4.29504 18.2247C5.41009 17.1097 6.92242 16.4833 8.49933 16.4833H17.5007C19.0776 16.4833 20.5899 17.1097 21.705 18.2247C22.82 19.3398 23.4464 20.8521 23.4464 22.429C23.4464 22.6991 23.3391 22.9582 23.1481 23.1492C22.9571 23.3402 22.698 23.4475 22.4279 23.4475Z" fill="#6D7784"/>
</svg>
