<svg width="56" height="56" viewBox="0 0 56 56" fill="none" xmlns="http://www.w3.org/2000/svg">
<path fill-rule="evenodd" clip-rule="evenodd" d="M33.7518 21.2795C33.6738 21.4605 33.5698 21.4088 33.4659 21.3829C33.3619 21.3571 33.2059 21.2278 33.2839 21.5123C33.2839 21.5381 33.2319 21.5899 33.2319 21.5899C32.816 21.3571 32.6601 21.7192 32.4002 21.9002C32.2442 22.0037 32.0362 22.0295 31.8543 21.8226C32.1922 21.8226 32.3222 21.6157 32.3742 21.3571C32.4002 21.176 32.5041 21.0209 32.6601 21.0984C32.998 21.2795 33.3879 21.2019 33.7518 21.2795Z" fill="#4271B5"/>
<path fill-rule="evenodd" clip-rule="evenodd" d="M9.37026 55.3676C9.57821 55.29 9.65618 55.0831 9.78615 54.9538C9.94211 55.4452 9.78615 55.7814 9.39625 55.8331C9.2143 55.859 9.11033 55.8073 9.13632 55.6004C9.18831 55.3935 9.37026 55.1348 8.92838 55.1866L8.87639 55.0831C9.00636 54.9797 9.00636 54.7469 9.18831 54.6952C9.31827 54.6693 9.2143 54.8245 9.24029 54.8245C9.6042 54.9797 9.31827 55.2124 9.37026 55.3676Z" fill="#4271B5"/>
<path fill-rule="evenodd" clip-rule="evenodd" d="M16.7783 17.8396C16.7264 18.0207 16.9343 18.15 16.8043 18.4086C16.5444 17.8914 16.1285 17.4517 16.2585 16.8051C16.4144 17.012 16.5964 17.1672 16.6744 17.3741C16.7524 17.5034 16.5444 17.7362 16.7783 17.8396Z" fill="#4271B5"/>
<path fill-rule="evenodd" clip-rule="evenodd" d="M19.2476 50.1173C19.0917 49.7035 19.4556 49.4966 19.5855 49.2121C19.6115 49.1604 19.7415 49.1345 19.7935 49.1862C19.8714 49.2638 19.8714 49.3931 19.8195 49.4707C19.6375 49.7035 19.5335 49.9621 19.2476 50.1173Z" fill="#4271B5"/>
<path fill-rule="evenodd" clip-rule="evenodd" d="M17.5581 47.1689C17.4541 47.3241 17.4801 47.4792 17.2981 47.531C17.2461 47.3241 16.8822 47.3758 16.8822 47.1171C16.8822 46.9878 16.9862 46.8844 17.1162 46.9361C17.2721 46.9878 17.4541 47.0396 17.5581 47.1689Z" fill="#4271B5"/>
<path fill-rule="evenodd" clip-rule="evenodd" d="M22.6788 42.7462C22.5748 43.1342 22.3928 43.3411 22.2629 43.548C22.1849 43.6514 22.0809 43.7808 21.925 43.6514C21.821 43.548 21.925 43.4445 22.0029 43.3411C22.2109 43.1859 22.4188 43.0048 22.6788 42.7462Z" fill="#4271B5"/>
<path fill-rule="evenodd" clip-rule="evenodd" d="M29.7749 36.2027C29.7489 36.5131 29.6449 36.7976 29.385 37.1338C29.281 36.6424 29.567 36.4355 29.7749 36.2027Z" fill="#4271B5"/>
<path fill-rule="evenodd" clip-rule="evenodd" d="M35.0254 22.0295C34.8955 22.0295 34.8435 21.9519 34.8175 21.8743C34.7655 21.7709 34.6615 21.6416 34.7655 21.5123C34.8435 21.4088 34.9475 21.4088 35.0514 21.4347C35.0774 21.4347 35.1814 21.4605 35.1034 21.4864C34.7915 21.6157 35.2334 21.8743 35.0254 22.0295Z" fill="#4271B5"/>
<path fill-rule="evenodd" clip-rule="evenodd" d="M13.3732 51.0484C13.2172 51.0484 13.0873 51.0484 13.1133 50.8415C13.1393 50.6605 13.2432 50.6087 13.4252 50.6087C13.6331 50.6087 13.6071 50.7122 13.3732 51.0484Z" fill="#4271B5"/>
<path fill-rule="evenodd" clip-rule="evenodd" d="M16.3365 48.5138C16.4664 48.3586 16.3105 48.0741 16.5704 48.0741C16.7004 48.0741 16.7783 48.3069 16.7523 48.4103C16.7004 48.669 16.4924 48.4103 16.3365 48.5138Z" fill="#4271B5"/>
<path fill-rule="evenodd" clip-rule="evenodd" d="M16.4664 18.3052C16.5704 18.4086 16.7783 18.3828 16.7783 18.5897C16.7783 18.6931 16.6744 18.7707 16.5444 18.7449C16.4144 18.719 16.3365 18.6414 16.3365 18.4862C16.3365 18.4086 16.3365 18.3052 16.4664 18.3052Z" fill="#4271B5"/>
<path fill-rule="evenodd" clip-rule="evenodd" d="M33.6479 22.133C33.6219 22.1588 33.5699 22.2106 33.5439 22.2364C33.5179 22.2106 33.4919 22.2106 33.4659 22.1847C33.31 22.133 33.232 22.0037 33.232 21.8226C33.232 21.7968 33.362 21.7709 33.4139 21.7709C33.6479 21.7968 33.6479 21.9519 33.6479 22.133Z" fill="#4271B5"/>
<path fill-rule="evenodd" clip-rule="evenodd" d="M37.5728 22.7537C37.3129 22.9089 37.1569 23.0382 36.975 22.883C36.949 22.8572 36.975 22.7278 37.001 22.6761C37.1829 22.4692 37.2869 22.7278 37.5728 22.7537Z" fill="#4271B5"/>
<path fill-rule="evenodd" clip-rule="evenodd" d="M16.1804 52.3674C16.0765 52.3416 15.9725 52.264 16.0245 52.1864C16.0765 52.0571 16.2324 52.0054 16.3884 52.0054C16.4664 52.0054 16.5703 52.0054 16.5443 52.1088C16.4664 52.2899 16.2844 52.2899 16.1804 52.3674Z" fill="#4271B5"/>
<path fill-rule="evenodd" clip-rule="evenodd" d="M17.2461 51.4622C17.2461 51.3588 17.2201 51.2553 17.2461 51.2036C17.3501 51.1001 17.4801 51.0484 17.61 50.9708C17.61 50.9708 17.662 51.0225 17.688 51.0743C17.714 51.2553 17.5321 51.2553 17.4281 51.3329C17.3761 51.3588 17.3241 51.3846 17.2461 51.4622Z" fill="#4271B5"/>
<path fill-rule="evenodd" clip-rule="evenodd" d="M8.69444 55.6004C8.64245 55.7297 8.64245 55.7556 8.64245 55.7556C8.4605 55.7297 8.51249 56.0659 8.30454 55.9883C8.25256 55.9883 8.22656 55.859 8.22656 55.859C8.35653 55.7814 8.48649 55.7038 8.69444 55.6004Z" fill="#4271B5"/>
<path fill-rule="evenodd" clip-rule="evenodd" d="M32.1402 21.176C31.9583 21.0726 31.7763 21.1243 31.7503 20.9174C31.7503 20.8657 31.7503 20.7881 31.8283 20.7881C31.9843 20.8398 32.0883 20.9433 32.1402 21.176Z" fill="#4271B5"/>
<path fill-rule="evenodd" clip-rule="evenodd" d="M26.7337 19.7277C26.7597 19.7277 26.7857 19.7277 26.8117 19.7277C26.9676 19.7277 27.1236 19.7018 27.1496 19.8829C27.1496 19.9087 27.0976 19.9346 27.0716 19.9604C26.9936 19.8829 26.7337 19.9863 26.7337 19.7277Z" fill="#4271B5"/>
<path fill-rule="evenodd" clip-rule="evenodd" d="M23.3026 19.0552C23.4325 19.0811 23.5365 18.8483 23.6925 19.0035C23.7185 19.0294 23.6925 19.1328 23.6665 19.1587C23.5105 19.2621 23.4065 19.107 23.3026 19.0552Z" fill="#4271B5"/>
<path fill-rule="evenodd" clip-rule="evenodd" d="M27.4615 20.3743C27.2795 20.5812 27.1235 20.5812 26.9156 20.3743C27.0976 20.3743 27.2535 20.3743 27.4615 20.3743Z" fill="#4271B5"/>
<path fill-rule="evenodd" clip-rule="evenodd" d="M11.7616 54.4365C11.8916 54.2038 12.0216 54.2296 12.1775 54.2813C12.2035 54.2813 12.2035 54.3848 12.2035 54.3848C12.0736 54.5141 11.9436 54.3848 11.7616 54.4365Z" fill="#4271B5"/>
<path fill-rule="evenodd" clip-rule="evenodd" d="M31.2045 35.0648C31.4384 35.2717 31.3864 35.3751 31.3344 35.5044C31.1265 35.4268 31.2565 35.2975 31.2045 35.0648Z" fill="#4271B5"/>
<path fill-rule="evenodd" clip-rule="evenodd" d="M31.4904 20.5553C31.4384 20.7364 31.3084 20.7364 31.0745 20.8398C31.2045 20.5812 31.3084 20.5294 31.4904 20.5553Z" fill="#4271B5"/>
<path fill-rule="evenodd" clip-rule="evenodd" d="M23.3286 19.3656C23.4845 19.2104 23.6665 19.3139 23.8225 19.3139C23.6665 19.3656 23.5105 19.469 23.3286 19.3656Z" fill="#4271B5"/>
<path fill-rule="evenodd" clip-rule="evenodd" d="M36.6111 22.8313C36.6111 22.5985 36.6111 22.4692 36.6111 22.2623C36.6891 22.4692 36.7931 22.5727 36.6111 22.8313Z" fill="#4271B5"/>
<path fill-rule="evenodd" clip-rule="evenodd" d="M35.7013 21.7192C35.4414 21.8743 35.3374 21.7709 35.1295 21.7192C35.3374 21.7192 35.4414 21.7192 35.7013 21.7192Z" fill="#4271B5"/>
<path d="M42.3287 0.33027C42.3287 0.252679 42.2767 0.175089 42.1987 0.200952C41.6009 0.381997 41.081 0.459587 40.4572 0.0716345C40.1453 -0.10941 39.5734 0.097498 39.1315 0.200952C38.5857 0.33027 38.0138 0.40786 37.572 0.718223C37.26 0.950994 36.9481 1.13204 36.5842 1.26136C36.3503 1.33895 36.1423 1.41654 36.1163 1.75276C36.0904 1.90794 35.9084 2.03726 35.6745 1.88208C35.5185 1.77863 35.2846 1.57172 35.1286 1.95967C35.0766 2.11485 34.8687 2.08899 34.7387 2.08899C34.1929 2.08899 33.673 2.11485 33.1531 2.39935C32.9452 2.52867 32.6853 2.55453 32.4513 2.60626C32.3473 2.63212 32.2174 2.65799 32.2174 2.76144C32.1914 3.22698 31.8275 3.25285 31.4896 3.30458C31.2556 3.3563 30.9957 3.3563 31.0217 3.71839C31.0217 3.9253 30.8657 4.05462 30.6318 4.02875C30.4758 4.00289 30.2939 4.00289 30.2419 4.15807C30.1899 4.44257 29.982 4.39084 29.8 4.46843C29.4881 4.62361 29.0982 4.28739 28.7863 4.67534C28.1624 5.45125 27.2787 5.86506 26.3429 6.17543C25.1472 6.56338 23.9516 6.92547 22.9638 7.7531C22.8079 7.88242 22.7039 8.01174 22.8858 8.14105C23.1978 8.3221 22.9638 8.42555 22.8598 8.55487C22.8079 8.65832 22.5999 8.6066 22.6259 8.78764C22.7039 8.86523 22.8598 8.76178 22.9118 8.8911C22.314 8.94282 22.314 8.94282 22.21 8.52901C21.9761 8.50314 22.0281 8.91696 21.8201 8.86523C21.4302 8.78764 21.6122 9.12387 21.5082 9.25319C21.4562 9.33078 21.4042 9.35664 21.3522 9.20146C21.2743 8.96869 21.0663 9.12387 20.9364 9.09801C20.8584 9.09801 20.8584 9.12387 20.8324 9.20146C20.7804 9.56355 20.3645 10.0032 20.0786 9.92564C19.5847 9.82218 19.4547 10.1843 19.3248 10.417C19.0389 10.9343 18.7529 11.4257 18.1291 11.6844C18.441 11.6844 18.545 11.7361 18.441 12.0464C18.337 12.3827 17.9991 12.4861 17.8172 12.6672C17.1414 13.2879 16.6735 13.9603 16.5955 14.8656C16.5955 14.9949 16.6995 15.1759 16.4395 15.2018C16.0496 15.2535 16.1276 15.4604 16.2836 15.7449C16.3876 15.926 16.6215 16.0553 16.5435 16.3139C16.4655 16.6243 16.6215 16.5467 16.8034 16.4691C16.8814 16.4432 16.9334 16.3398 17.0374 16.4174C17.1154 16.7795 17.1933 17.1416 17.2713 17.5037C17.2973 17.5812 17.4793 17.633 17.3233 17.7364C17.2453 17.814 17.1414 17.7881 17.0374 17.7364C16.9594 17.7106 16.8034 17.4778 16.7775 17.7882C17.1414 18.0726 17.1674 18.5123 17.1674 18.8744C17.1674 19.0555 17.3493 19.34 17.1674 19.4176C16.8554 19.5469 17.0894 19.7021 17.1414 19.7538C17.2713 19.9348 17.3753 20.1417 17.6352 20.1676C17.7132 20.1676 17.7652 20.1417 17.7392 20.0641C17.6612 19.8314 17.7652 19.8572 17.8692 19.9865C18.0771 20.1935 18.2331 20.4262 18.441 20.659C18.2591 20.7366 18.0771 20.6331 17.9212 20.7625C17.9471 20.8142 17.9731 20.8659 17.9991 20.8918C18.0251 20.9176 18.0771 20.9694 18.1031 20.9435C18.649 20.7883 18.7269 21.1763 18.8049 21.5642C18.8309 21.6418 18.8049 21.7453 18.9349 21.7711C19.3248 21.8487 19.5327 22.2108 19.7927 22.4436C20.0786 22.7022 20.3125 22.9867 20.7024 23.116C21.2223 23.2712 21.7421 23.4781 22.262 23.685C22.5219 23.7885 22.7819 23.9437 23.0938 23.9178C23.3797 23.8919 23.6136 23.8402 23.8216 24.1247C23.9256 24.2799 24.1595 24.2282 24.3415 24.073C24.4714 23.9695 24.6534 23.8144 24.7833 23.9437C24.9913 24.1764 25.2512 24.1506 25.4852 24.2282C27.1227 24.7713 28.7603 25.2627 30.4238 25.7283C31.5935 26.0386 32.8152 26.1421 33.8809 26.8404C34.3748 27.1766 34.9467 27.3835 35.4145 27.7456C36.0644 28.2112 36.1423 28.4698 35.9084 29.0388C35.5965 29.7888 35.2066 30.4613 34.6867 31.1079C34.4008 31.47 33.8289 31.8062 34.4008 32.3752C34.5308 32.5045 34.3488 32.5821 34.2708 32.6338C34.1669 32.7114 34.1409 32.5821 34.0889 32.5304C33.9069 32.401 33.9589 32.2459 33.9849 32.0648C33.751 32.608 32.9972 32.7114 32.8932 33.3839C32.9972 33.3839 33.1271 33.4097 33.2831 33.4097C33.0751 33.7977 32.8412 33.4356 32.6593 33.4614C32.4253 33.4873 32.5813 34.0046 32.1654 33.927C31.9834 33.9011 31.8535 34.0046 31.7235 34.108C31.6195 34.1856 31.5675 34.2891 31.5935 34.4184C31.8015 35.065 31.5675 35.6598 31.4116 36.2547C31.3856 36.3582 31.3856 36.4875 31.2556 36.4616C31.1257 36.4358 31.1257 36.2806 31.0737 36.1771C31.0477 36.0995 31.2556 36.0478 31.1257 35.9702C31.0217 35.8926 30.9437 36.0219 30.8657 36.0737C30.5798 36.2806 30.4498 36.6685 30.034 36.7202C30.008 36.7202 29.956 36.7978 29.956 36.8237C29.956 36.9272 30.034 36.8496 30.0859 36.8496C30.2159 36.8237 30.2939 36.9013 30.2939 37.0047C30.2939 37.0823 30.2159 37.1082 30.1639 37.0823C30.0599 37.0565 29.852 37.1858 29.826 37.0047C29.774 36.6427 29.5661 36.7978 29.5401 36.953C29.4621 37.2375 29.2802 37.1599 29.0982 37.1858C28.9162 37.1858 28.6563 37.0565 28.5783 37.3927C28.5523 37.4703 28.4484 37.4444 28.3704 37.4444C28.1105 37.4962 27.8505 37.5479 27.6166 37.6255C27.2007 37.7548 27.1487 37.91 27.3567 38.3238C27.5126 38.6342 27.4346 38.8411 27.0967 38.8669C26.8888 38.8928 26.8888 38.9704 26.8628 39.1514C26.8108 39.4359 26.8368 39.8756 26.4989 40.0049C25.8491 40.2118 25.5631 40.7032 25.4332 41.2464C25.2772 41.8154 24.8353 41.8671 24.4454 42.0223C24.3934 42.0481 24.3415 42.074 24.2895 42.0223C24.0295 41.8671 23.6916 42.255 23.4577 41.9188C23.4317 41.893 23.3537 41.9447 23.3277 42.0223C23.2497 42.2033 23.0938 42.4102 23.1718 42.5913C23.2497 42.7982 23.1458 42.824 23.0158 42.9275C22.5479 43.1861 22.184 43.5482 22.0801 44.0914C22.0281 44.2983 21.9761 44.3759 21.7421 44.2724C21.5862 44.1948 21.3782 44.2207 21.3522 44.4534C21.3003 44.7379 21.0923 44.7379 20.9104 44.6862C20.5465 44.5828 20.5205 44.9449 20.3125 45.0742C20.4425 45.2294 20.3645 45.2552 20.2085 45.3587C19.5587 45.7466 18.7009 45.7208 18.2331 46.4191C18.2071 46.4708 18.1031 46.4708 18.0511 46.4967C17.7392 46.626 17.6092 47.1432 17.7912 47.4277C17.9471 47.2208 17.9212 46.9622 17.9471 46.6777C18.1031 46.7812 18.415 46.7036 18.337 46.9622C18.2851 47.1691 18.2851 47.5312 17.9991 47.5312C17.5832 47.5312 17.1154 47.7381 16.7515 47.3502C16.6735 47.2726 16.5955 47.2467 16.5175 47.3502C16.4655 47.4278 16.4655 47.5312 16.5695 47.5829C16.7255 47.7122 16.8814 47.8933 17.1414 47.8416C17.2453 47.8157 17.3493 47.8674 17.3753 47.9967C17.4013 48.1261 17.2713 48.2037 17.1933 48.2554C16.9594 48.3588 17.1414 47.9709 16.9334 48.0226C16.4915 48.4623 17.0374 48.902 16.9074 49.3417C16.6995 49.2899 16.6215 49.1347 16.5435 49.0054C16.4915 48.9278 16.3616 48.7727 16.3096 48.8244C16.1276 49.0572 15.8937 48.902 15.6857 48.9796C15.7117 49.1606 15.6597 49.3416 15.4778 49.3675C15.3218 49.3934 15.1399 49.3417 14.9839 49.2899C14.9059 49.2641 14.9059 49.1347 14.9839 49.1347C15.1919 49.1089 15.0879 48.6433 15.3738 48.8502C15.4778 48.9278 15.5558 49.0054 15.6857 49.0054C15.6338 48.9278 15.5818 48.8502 15.5298 48.7727C15.4778 48.6951 15.7377 48.4882 15.5298 48.514C15.3218 48.5399 14.9319 48.4882 14.9319 48.6175C14.9059 48.9537 14.542 48.9796 14.5161 49.2382C14.594 49.2899 14.802 49.1347 14.724 49.3934C14.672 49.6003 14.646 49.6261 14.88 49.6003C14.9579 49.6003 15.0099 49.5486 15.0619 49.652C15.1139 49.7555 15.0099 49.7813 14.9579 49.8072C14.828 49.8848 14.672 50.1176 14.5161 49.8331C14.4901 49.7813 14.3341 49.7813 14.2821 49.8848C14.1781 50.221 13.8662 50.3762 13.5283 50.5314C14.1521 50.5831 14.1521 50.5831 13.8662 51.0745C13.8402 51.1004 13.7623 51.1521 13.8402 51.2038C14.0222 51.359 13.9182 51.3849 13.7623 51.3849C13.6323 51.3849 13.5023 51.3849 13.3724 51.3849C13.3464 51.2297 13.5023 51.0486 13.3204 50.9452C13.2164 51.178 13.1124 51.4107 13.0084 51.6435C12.9565 51.747 12.9305 51.8763 12.7745 51.7728C12.5926 51.6435 12.4366 51.7987 12.2546 51.9021C12.2806 51.7211 12.4366 51.5659 12.2806 51.5142C12.1507 51.4625 12.0207 51.5659 11.9687 51.747C11.9427 51.7987 11.9167 51.8246 11.9167 51.8763C11.9167 52.0573 11.7608 52.1091 11.6568 52.1091C11.4749 52.1091 11.6308 51.8763 11.4749 51.7987C11.4229 52.0056 10.955 51.9539 11.2669 52.3936C11.4489 52.6263 11.059 52.9108 10.6691 52.8074C10.4351 52.7298 10.2012 52.678 10.1492 52.9884C10.0972 53.2212 10.0452 53.4798 10.3052 53.7126C10.4611 53.3246 10.799 53.1953 11.059 52.9625C11.1369 53.2212 11.4489 53.4022 11.1889 53.7126C11.111 53.7902 11.085 53.9454 10.929 53.8678C10.799 53.816 10.773 53.6867 10.851 53.5574C10.903 53.4539 10.929 53.3505 10.799 53.247C10.773 53.2988 10.747 53.3505 10.747 53.3764C10.7211 53.6609 10.7211 53.9454 10.7211 54.204C10.7211 54.4109 10.5651 54.4109 10.5131 54.4626C10.3831 54.5402 10.4091 54.385 10.4091 54.3074C10.4091 54.1264 10.2792 54.1264 10.1752 54.1523C10.0192 54.1781 10.0452 54.3333 10.0712 54.385C10.1752 54.6178 10.0972 54.7989 9.96725 54.9799C10.2012 55.0834 10.3572 54.9799 10.4611 54.8506C10.6431 54.6437 10.825 54.9023 11.007 54.8247C11.033 54.8247 11.033 54.7989 11.033 54.7989C11.007 54.4885 11.2669 54.4368 11.4489 54.3074C11.7868 54.1005 11.2409 53.9195 11.4489 53.7384C11.4749 53.7126 11.5008 53.7126 11.5268 53.7126C11.6568 53.7643 11.6308 54.0229 11.8388 53.9454C11.9687 53.8936 11.9947 53.7384 11.9427 53.635C11.7088 53.2212 12.0467 53.1695 12.2806 52.9625C12.3066 53.1953 12.3066 53.3764 12.3326 53.6091C12.3846 53.5574 12.4366 53.5574 12.4626 53.5057C12.6445 53.2729 12.6445 52.7815 13.1644 52.9625C13.2164 52.9884 13.3983 52.8591 13.3204 52.678C13.2944 52.6263 13.2164 52.2642 13.5803 52.4453C13.6843 52.497 13.7882 52.0573 13.9962 52.3677C14.0222 52.3418 14.1002 52.316 14.1002 52.2901C14.1002 51.928 14.88 52.1349 14.594 51.5659L14.646 51.5142C15.0359 51.6952 15.1659 51.2814 15.3998 51.1521C15.5818 51.4366 15.1659 51.4883 15.2439 51.7728C15.3998 51.6435 15.5558 51.5659 15.7377 51.7211C15.8677 51.8245 15.9977 51.6694 15.9717 51.5659C15.7637 50.9452 16.5955 50.9193 16.5955 50.4279C16.6215 50.4279 16.6735 50.4279 16.6735 50.4538C16.8294 50.6348 17.1154 50.2469 17.2713 50.5831C17.2973 50.6607 17.4793 50.5831 17.5053 50.3762C17.5313 50.0658 17.8432 50.04 18.0511 49.9882C18.2331 49.9365 18.467 49.9106 18.675 50.0141C18.8309 50.0917 18.8569 49.9882 18.8569 49.8848C18.8569 49.7813 18.8569 49.652 18.8569 49.5227C18.7269 49.4451 18.649 49.1347 18.545 49.2899C18.389 49.471 18.0251 49.4451 18.0511 49.7813C17.8952 49.7037 17.7652 49.6261 17.6092 49.5744C17.9212 49.3158 18.2851 49.1606 18.649 49.1089C19.0129 49.0572 18.8309 49.3416 18.8569 49.4968V49.5227C19.0648 49.4968 19.2208 49.3675 19.2208 49.1606C19.2208 48.9537 19.1948 48.7209 19.5327 48.8761C19.6107 48.902 19.7927 48.8761 19.7927 48.6951C19.7927 48.4106 19.9746 48.2812 20.2345 48.2812C20.4425 48.2812 20.5205 48.2037 20.4685 48.0226C20.3645 47.6088 20.6504 47.7898 20.8584 47.764C20.6764 48.1002 20.5465 48.4106 20.2605 48.6175C20.1566 48.7209 20.0786 48.8502 20.0266 48.9796C20.0006 49.0572 20.0006 49.2123 20.1826 49.1347C20.4165 49.0054 20.7284 48.9278 20.9104 48.7209C21.2483 48.333 21.6642 48.0485 22.0541 47.7122C22.4959 47.3243 23.1458 47.0139 23.2238 46.3932C23.3277 45.7725 23.6916 45.8242 24.1075 45.7725C24.2115 45.7466 24.2895 45.6949 24.3934 45.669C24.1335 45.669 23.9776 45.5138 23.8996 45.2811C23.8736 45.2294 23.9256 45.1518 23.9516 45.1259C24.1075 45.0742 24.0815 45.3587 24.2635 45.3069C24.2895 44.9707 24.2895 44.9707 24.7054 44.9966C24.6274 45.1 24.4714 45.2035 24.6794 45.3328C24.8093 45.4104 24.9393 45.488 25.0953 45.3845C25.2252 45.2811 25.3292 45.3069 25.3812 45.488C25.8231 45.1776 25.6931 44.5828 25.979 44.1948C26.3429 44.5569 26.3429 44.531 26.6029 44.0655C26.7068 43.8844 26.6808 43.6517 26.9148 43.5224C27.8505 42.9792 28.7343 42.4102 29.748 42.0223C29.982 41.9188 30.2419 41.8412 30.008 41.505C29.956 41.4533 29.982 41.2722 30.1119 41.324C30.6318 41.5309 30.9177 41.0912 31.2816 40.8843C31.9834 40.4187 32.5033 39.7721 32.9972 39.1256C33.1011 38.9962 33.2311 38.8152 33.4391 38.9704C33.725 39.2031 33.8809 39.0221 34.0629 38.8152C34.4008 38.4272 34.3748 37.8841 34.7127 37.522C34.8947 37.5996 35.0246 38.2203 35.2586 37.5479C35.2586 37.522 35.3106 37.4962 35.3625 37.4703C36.2463 36.9013 36.7922 36.1254 36.7662 35.065C36.7662 34.9357 36.7662 34.8322 36.8701 34.7546C36.9221 34.7029 37.0001 34.7288 37.0261 34.7805C37.0781 34.8839 37.2081 35.065 37.1041 35.1426C36.7402 35.4271 37.2081 35.634 37.1301 35.8926C37.2341 35.6598 37.1821 35.2978 37.494 35.2719C38.0918 35.246 38.0658 34.7805 38.1438 34.4443C38.1958 34.1339 38.4297 33.7977 38.7157 33.8753C38.9236 33.927 38.8976 33.8235 38.9496 33.7201C39.3135 33.1769 39.6514 32.608 39.9893 32.0648C40.7691 30.7458 41.107 29.2974 40.9511 27.7715C40.9511 27.6939 40.9511 27.5904 40.8471 27.6163C40.3012 27.7456 40.7171 27.3059 40.5872 27.2025C40.8211 26.9438 40.6391 26.7111 40.5092 26.4783C40.2493 26.0386 39.8594 25.78 39.4435 25.5213C39.3135 25.4438 39.1575 25.3403 39.2615 25.1851C39.4695 24.823 39.4435 24.4092 39.5214 24.0213C39.5474 23.9437 39.5734 23.7885 39.4175 23.7885C39.2875 23.7626 39.2095 23.8402 39.1575 23.9695C39.1056 24.1506 39.0016 24.3316 38.9236 24.4868C38.8716 24.5903 38.8456 24.7454 38.7157 24.7196C38.5597 24.6937 38.4817 24.5903 38.4557 24.4092C38.4297 24.2023 38.3518 23.9954 38.2998 23.7885C38.4557 23.8402 38.5597 23.8919 38.6637 23.9954C38.7157 24.0471 38.8456 24.073 38.8976 23.9695C39.0536 23.685 38.6117 23.3747 38.8716 23.0902C38.6117 23.0384 38.3258 23.3488 38.1178 22.9867C38.1178 22.9867 38.0658 23.0126 38.0398 23.0126C37.7019 23.2971 37.7019 23.3229 37.364 23.0643C37.26 22.9867 37.1821 22.935 37.0521 23.0126C36.8961 23.0902 36.7662 23.0384 36.6102 22.9609C36.2983 22.8057 36.2983 22.3919 35.9344 22.2884C36.1163 22.1849 36.2723 22.3919 36.3243 22.1849C36.3503 22.0556 36.1943 21.9263 36.0904 21.9004C35.8824 21.8487 35.8044 22.0556 35.7264 22.1849C35.4665 22.7281 34.8427 22.8315 34.3748 22.4177C34.4788 22.366 34.5568 22.2884 34.6347 22.2884C34.7907 22.2884 34.8427 22.1591 34.8427 22.0556C34.8427 21.9005 34.6867 21.9263 34.5568 21.9263C34.2448 21.8746 33.9849 22.0039 33.725 22.1074C33.673 22.1332 33.647 22.1591 33.621 22.2108C33.4391 22.3919 33.2571 22.4953 32.9712 22.3401C32.8672 22.2884 32.6853 22.2625 32.5813 22.3143C32.2174 22.4694 32.0094 22.3401 31.8275 22.0039C31.7495 21.8746 31.5935 21.7711 31.8015 21.616C31.9314 21.5384 31.8535 21.4866 31.7495 21.4608C31.6715 21.4349 31.4116 21.3573 31.3336 21.3832C31.1776 21.4349 31.0217 21.4608 30.8397 21.409C30.6578 21.3573 30.4238 21.2539 30.2419 21.6418C30.1119 21.9004 29.5921 21.797 29.2282 21.616C29.722 21.4349 30.1899 21.1763 30.7098 21.2797C30.8657 21.3056 30.9177 21.228 30.9177 21.0728C30.9177 20.9176 30.8137 20.9176 30.7098 20.9435C30.5538 20.9435 30.4238 21.0987 30.2679 20.9952C30.3719 20.9176 30.4758 20.8918 30.5798 20.84C30.7098 20.7883 30.9177 20.7625 30.9437 20.5555C30.9437 20.5297 30.9177 20.4521 30.9177 20.4262C30.7358 20.4004 30.6058 20.5038 30.5018 20.6073C30.3459 20.84 30.1379 20.7107 29.982 20.6331C29.93 20.6073 29.982 20.4004 29.956 20.271C29.93 20.1935 30.1639 20.2193 30.008 20.1159C29.956 20.09 29.826 20.0641 29.774 20.1676C29.748 20.2452 29.748 20.3228 29.748 20.4262C29.4101 20.0124 29.3841 20.0124 29.0722 20.3745C28.9682 20.5038 28.8643 20.6849 28.6303 20.6073C28.6303 20.5038 28.8383 20.4262 28.7343 20.3228C28.6563 20.271 28.4484 20.2452 28.3964 20.2969C28.1884 20.5297 27.7985 20.5814 27.6946 20.9176C27.6686 21.047 27.6166 21.0728 27.4866 21.0987C27.2267 21.1504 26.9928 20.8659 26.7328 21.0728C26.4209 20.5814 26.213 21.0987 26.161 21.2021C26.031 21.4608 26.031 21.2021 26.005 21.1763C25.8751 20.9435 26.031 20.7625 26.187 20.659C26.3429 20.5555 26.3169 20.4521 26.2909 20.3228C26.2649 20.271 26.213 20.2193 26.161 20.2193C26.005 20.2193 26.005 20.3745 25.953 20.478C25.875 20.659 25.8751 20.84 25.7191 20.9952C25.5371 20.7107 25.1472 20.7107 24.9133 20.5038C25.0693 20.271 25.2252 20.5297 25.3552 20.478C25.4592 20.4521 25.5631 20.4262 25.5631 20.2969C25.5631 20.1676 25.4332 20.2193 25.3552 20.2193C25.1992 20.2193 25.0173 20.2193 24.8093 20.2193C24.9393 20.0383 25.0693 20.0124 25.2252 20.0383C25.1992 19.8314 25.2772 19.6503 25.3552 19.4176C25.4332 19.6762 25.4072 19.8572 25.2252 20.0124V20.0383C25.4332 20.2452 25.5891 20.0383 25.7711 19.9865C25.901 19.9607 26.031 19.7538 26.135 19.9348C26.239 20.1159 26.2909 20.0641 26.3949 19.9607C26.4989 19.8572 26.6029 19.7796 26.7068 19.6762C26.5769 19.0296 26.3689 19.6503 26.213 19.6245C26.135 19.1331 25.7711 19.2106 25.4072 19.2624C25.3032 19.1331 25.5891 19.1589 25.4852 19.0296C25.4072 18.952 25.3552 18.952 25.2512 19.0037C25.0953 19.1072 24.9653 18.9779 24.8353 18.9003C24.6794 18.8227 24.4454 18.8227 24.4194 18.8744C24.3674 19.2624 23.8996 19.1848 23.7696 19.4693C23.7176 19.5469 23.6396 19.6762 23.4837 19.6245C23.3277 19.5469 23.2757 19.4434 23.2757 19.2882C22.8598 19.4693 22.444 19.3658 22.0281 19.2882C21.9241 19.2624 21.7421 19.34 21.7681 19.1331C21.7941 19.0037 21.6382 18.7968 21.9241 18.7451C22.132 18.6934 22.236 18.5123 22.366 18.3313C22.392 18.383 22.418 18.4347 22.4699 18.4865C22.5479 18.5641 22.6259 18.7451 22.7299 18.6158C22.8598 18.5123 22.6779 18.4347 22.6259 18.3571C22.366 17.9692 22.106 18.202 21.8981 18.383C21.7421 18.5123 21.6382 18.5382 21.5342 18.4347C21.4562 18.3313 21.5342 18.202 21.6642 18.1502C21.7681 18.0985 21.8721 18.0468 21.8461 17.9433C21.8201 17.814 21.6382 17.9175 21.5862 17.8916C21.3782 17.7623 20.9883 17.8399 21.0143 17.5554C21.0663 17.064 20.9883 16.8053 20.3385 16.9088C20.5725 16.7536 20.7804 16.8829 20.9104 16.7277C20.7024 16.5984 20.8324 16.2881 20.7024 16.0553C20.4425 15.5897 20.8844 15.6673 21.1183 15.6156C21.1443 15.6156 21.1703 15.5639 21.1703 15.538C21.2223 14.969 21.7681 14.6845 22.0021 14.219C22.106 14.0121 22.288 13.7793 21.9241 13.5983C22.0801 13.5724 22.21 13.5724 22.314 13.5465C22.8339 13.3655 23.2238 13.0034 23.5097 12.512C23.6136 12.3051 23.8476 12.0723 24.0035 12.2016C24.1855 12.3568 24.2895 12.2792 24.3674 12.2016C24.8613 11.8395 25.3552 11.5292 25.927 11.2964C26.4209 11.0895 26.6808 10.5722 27.0447 10.1843C27.1487 10.2619 26.9668 10.5464 27.2527 10.417C27.5906 10.2619 28.0065 10.1067 28.1624 9.77046C28.3184 9.3825 28.7863 9.53768 28.9682 9.22732C28.9682 9.20146 29.1242 9.22732 29.1242 9.25319C29.2022 9.43423 29.3061 9.33078 29.4361 9.33078C30.034 9.30491 30.2419 8.83937 30.5018 8.42555C30.5278 8.11519 30.7618 7.96001 30.9437 7.77896C30.9957 7.7531 31.0997 7.72724 31.1517 7.7531C31.2296 7.77896 31.2296 7.88242 31.2036 7.96001C31.0477 8.21865 30.7618 8.29624 30.5278 8.45142C30.5278 8.45142 30.5278 8.45142 30.5018 8.47728C30.5278 8.52901 30.3719 8.68419 30.6318 8.68419C30.8917 8.68419 31.0217 8.68419 31.1517 8.45142C31.2296 8.3221 31.3856 8.0376 31.4896 8.45142C31.5416 8.63246 31.6455 8.55487 31.6975 8.47728C31.8535 8.21864 32.0354 7.88242 31.8795 7.62378C31.6975 7.33928 31.9055 7.31342 32.0354 7.26169C32.2434 7.1841 32.5033 7.13238 32.6333 6.92547C32.5033 6.82201 32.3213 6.92547 32.1654 6.77029C32.5293 6.58924 32.5813 6.25302 32.6593 5.91679C32.6853 5.8392 32.6073 5.58057 32.8412 5.65816C33.0492 5.70988 32.8932 5.89093 32.8672 5.99438C32.7892 6.22715 32.7112 6.48579 32.9452 6.61511C33.1531 6.74442 33.2571 6.89961 33.2571 7.13238C33.725 7.08065 33.777 6.56338 34.0889 6.43406C34.7127 6.20129 34.8687 5.42538 35.5445 5.2702C35.5705 5.2702 35.5965 5.24434 35.6225 5.24434C35.7784 4.88225 35.7784 4.88225 36.0904 5.14088C36.2723 4.62361 36.4283 4.33912 37.2081 4.44257C37.338 4.46843 37.364 4.41671 37.39 4.33912C37.546 4.02875 37.8059 3.74426 37.8839 3.40803C37.9879 3.02008 38.1438 3.14939 38.3518 3.25285C38.4557 3.30458 38.4557 3.6408 38.6377 3.38217C38.7416 3.22698 38.7676 3.02008 38.6117 2.8649C38.5597 2.81317 38.4817 2.7873 38.4297 2.73558C38.3777 2.65799 38.2218 2.63212 38.2998 2.50281C38.3518 2.39935 38.4297 2.2959 38.5857 2.32176C38.7417 2.34762 38.6637 2.47694 38.6897 2.5804C38.7417 2.89076 39.0276 2.91662 39.2095 2.91662C39.4175 2.91662 39.2875 2.65799 39.3135 2.50281C39.3135 2.2959 39.1056 2.08899 39.3655 1.93381C39.5474 2.03726 39.2355 2.34763 39.5734 2.39935C39.8594 2.42522 39.9373 2.21831 39.9893 1.98554C40.0153 1.88208 40.0673 1.77863 40.1193 1.67517C40.1453 1.64931 40.1193 1.46826 40.2233 1.62345C40.3012 1.7269 40.4312 1.80449 40.5092 1.77863C40.6391 1.70104 40.5872 1.59758 40.4572 1.51999C40.3792 1.46826 40.4832 1.46826 40.5092 1.46826C40.7951 1.39067 41.0031 1.10618 41.289 1.08031C41.6529 1.05445 41.8608 0.76995 42.1727 0.666496C42.3547 0.485451 42.3287 0.40786 42.3287 0.33027ZM12.8785 52.3936C12.7485 52.5487 12.5926 52.6263 12.3586 52.6263C12.5406 52.5746 12.5666 52.3418 12.6965 52.2384C12.7485 52.1866 12.7745 52.109 12.8785 52.1866C12.9305 52.2384 12.9565 52.316 12.8785 52.3936ZM14.88 51.359C14.854 51.3849 14.776 51.3849 14.75 51.359C14.698 51.1521 14.724 50.8935 14.4901 50.79C14.568 50.6607 14.568 50.4796 14.776 50.3762C14.802 50.6866 14.828 50.9452 14.9319 51.2038C14.9839 51.2814 14.9059 51.3331 14.88 51.359ZM19.8186 48.2037C19.6887 48.2295 19.7407 48.1261 19.7407 48.0743C19.7407 47.9967 19.7407 47.9192 19.8446 47.945C19.8966 47.945 19.9226 48.0485 19.9746 48.1002C19.9746 48.2037 19.8706 48.2037 19.8186 48.2037ZM27.0967 40.4705C26.9668 40.6256 26.8888 40.2894 26.7588 40.186C27.0447 40.0308 27.3567 40.0308 27.7466 40.0825C27.4866 40.2636 27.2787 40.2894 27.0967 40.4705ZM28.1105 39.4359C27.7985 39.5911 27.7985 39.5911 27.6426 39.8756C27.3307 39.617 27.4606 39.4101 27.7466 39.3066C28.0845 39.1773 28.1105 38.9186 28.0845 38.6342C28.0325 38.2979 28.1365 37.9876 28.4484 37.7548C28.1365 38.0393 28.5264 38.2721 28.5523 38.5307C28.5783 38.7893 28.3704 39.3066 28.1105 39.4359ZM28.8383 38.5307C28.7343 38.3497 28.9162 38.3497 29.0462 38.3238C28.9942 38.4014 28.9162 38.4531 28.8383 38.5307ZM28.3444 21.7194C28.3704 21.6677 28.3704 21.5901 28.3964 21.4866C28.6043 21.5642 28.7863 21.616 28.9682 21.7194C28.8123 21.797 28.7083 21.8746 28.6043 21.9263C28.5004 21.978 28.4484 22.2108 28.2924 22.0815C28.2144 22.0039 28.2664 21.8487 28.3444 21.7194ZM27.8765 21.409C28.0065 21.4608 28.1105 21.5384 28.0585 21.6418C27.9805 21.797 28.0065 21.9263 27.9805 22.0815C27.7725 22.0298 27.6946 21.8487 27.6426 21.6677C27.6166 21.5642 27.7985 21.4866 27.8765 21.409ZM27.8765 22.2625C27.4346 22.5212 27.1487 22.366 26.8628 22.1849C27.0187 22.1074 27.1747 22.1591 27.3827 22.2108C27.2527 21.9522 26.9928 21.797 26.8108 21.9263C26.4989 22.1591 26.6029 21.8487 26.4469 21.7453C26.8368 21.6935 27.0967 21.8746 27.3567 21.8746C27.7466 21.8487 27.4866 22.2884 27.8765 22.2625ZM27.4346 21.5384C27.4346 21.5901 27.4346 21.616 27.4086 21.6677C27.2527 21.6418 27.0967 21.5901 26.8368 21.5384C27.1227 21.5125 27.2787 21.4608 27.4346 21.5384ZM26.7588 21.3056C26.8628 21.4349 26.7068 21.3832 26.6548 21.409C26.6029 21.409 26.5769 21.409 26.4209 21.3832C26.6029 21.3573 26.6548 21.2021 26.7588 21.3056ZM25.2512 21.6935C25.1472 21.6935 25.0693 21.6418 25.0433 21.5642C25.0433 21.5125 25.0953 21.4349 25.1992 21.4349C25.2772 21.4608 25.3292 21.5125 25.3552 21.5901C25.3812 21.6677 25.3292 21.6677 25.2512 21.6935ZM25.4592 21.2797C25.4852 21.2797 25.4852 21.2797 25.5111 21.2797C25.5111 21.2797 25.4852 21.2797 25.4592 21.2797C25.3292 21.2797 25.0693 21.0987 24.9393 21.4866C24.9393 20.6073 25.3292 21.2021 25.4592 21.2797ZM24.7833 19.2365C24.8873 19.2365 24.9393 19.2882 24.9393 19.3917C24.9393 19.521 24.8873 19.6503 24.7573 19.6245C24.6794 19.6245 24.5494 19.521 24.5494 19.4434C24.5234 19.2882 24.6794 19.2882 24.7833 19.2365ZM21.2223 9.89977C21.1703 9.89977 21.0663 9.89977 21.0923 9.82218C21.1443 9.69287 21.2223 9.58941 21.3263 9.48596C21.3263 9.48596 21.4302 9.53769 21.4822 9.56355C21.3782 9.71873 21.4042 9.89977 21.2223 9.89977ZM23.4057 8.6066C23.3017 8.63246 23.2497 8.58073 23.3277 8.47728C23.3537 8.45142 23.3797 8.39969 23.4577 8.27037C23.4057 8.45142 23.4317 8.58073 23.4057 8.6066ZM37.2081 3.9253C37.1561 3.95116 37.0781 3.9253 37.0001 3.89944C37.0261 3.79598 37.0521 3.66666 37.2081 3.58907C37.1561 3.71839 37.364 3.82185 37.2081 3.9253Z" fill="#4271B5"/>
</svg>
