<svg width="24" height="24" viewBox="0 0 24 24" fill="none" xmlns="http://www.w3.org/2000/svg">
<g clip-path="url(#clip0_0_9278)">
<path d="M10.6735 0.859375C5.26215 0.859375 0.859375 5.26215 0.859375 10.6735C0.859375 16.0852 5.26215 20.4877 10.6735 20.4877C16.0852 20.4877 20.4877 16.0852 20.4877 10.6735C20.4877 5.26215 16.0852 0.859375 10.6735 0.859375ZM10.6735 18.6759C6.26109 18.6759 2.67122 15.086 2.67122 10.6736C2.67122 6.26114 6.26109 2.67122 10.6735 2.67122C15.086 2.67122 18.6758 6.26109 18.6758 10.6735C18.6758 15.086 15.086 18.6759 10.6735 18.6759Z" fill="#6D7784"/>
<path d="M22.881 21.6L17.6871 16.4061C17.3331 16.0521 16.76 16.0521 16.4061 16.4061C16.0521 16.7597 16.0521 17.3334 16.4061 17.6871L21.6 22.881C21.777 23.058 22.0086 23.1464 22.2405 23.1464C22.4721 23.1464 22.704 23.058 22.881 22.881C23.2349 22.5274 23.2349 21.9536 22.881 21.6Z" fill="#6D7784"/>
</g>
<defs>
<clipPath id="clip0_0_9278">
<rect width="22.2857" height="22.2857" fill="white" transform="translate(0.859375 0.859375)"/>
</clipPath>
</defs>
</svg>
