<svg width="26" height="22" viewBox="0 0 26 22" fill="none" xmlns="http://www.w3.org/2000/svg">
<path d="M0 1.70982C0 1.19699 0.415736 0.78125 0.928571 0.78125H25.0714C25.5843 0.78125 26 1.19699 26 1.70982C26 2.22266 25.5843 2.63839 25.0714 2.63839H0.928571C0.415735 2.63839 0 2.22266 0 1.70982Z" fill="#4F5864"/>
<path d="M0 10.9955C0 10.4827 0.415736 10.067 0.928571 10.067H25.0714C25.5843 10.067 26 10.4827 26 10.9955C26 11.5084 25.5843 11.9241 25.0714 11.9241H0.928571C0.415735 11.9241 0 11.5084 0 10.9955Z" fill="#4F5864"/>
<path d="M0 20.2812C0 19.7684 0.415736 19.3527 0.928571 19.3527H25.0714C25.5843 19.3527 26 19.7684 26 20.2812C26 20.7941 25.5843 21.2098 25.0714 21.2098H0.928571C0.415735 21.2098 0 20.7941 0 20.2812Z" fill="#4F5864"/>
</svg>
