<svg width="20" height="20" viewBox="0 0 20 20" fill="none" xmlns="http://www.w3.org/2000/svg">
<rect width="20" height="20" rx="10" fill="#E53D18"/>
<path d="M9.99689 15.6392C9.2843 15.6392 8.65456 15.5166 8.10769 15.2713C7.56413 15.026 7.13823 14.688 6.82999 14.2571C6.52175 13.8262 6.36929 13.3357 6.3726 12.7855C6.36929 12.3546 6.45712 11.9586 6.6361 11.5973C6.81839 11.2327 7.06531 10.9295 7.37686 10.6875C7.68842 10.4422 8.03643 10.2865 8.4209 10.2202V10.1605C7.9138 10.0379 7.50778 9.7661 7.20286 9.34517C6.89793 8.92424 6.74713 8.44034 6.75044 7.89347C6.74713 7.37311 6.88468 6.90909 7.16309 6.50142C7.44481 6.09044 7.83094 5.76728 8.32147 5.53196C8.812 5.29664 9.37047 5.17898 9.99689 5.17898C10.6167 5.17898 11.1702 5.2983 11.6574 5.53693C12.1479 5.77225 12.5341 6.09541 12.8158 6.50639C13.0975 6.91406 13.24 7.37642 13.2433 7.89347C13.24 8.44034 13.0843 8.92424 12.776 9.34517C12.4678 9.7661 12.0667 10.0379 11.5729 10.1605V10.2202C11.954 10.2865 12.2971 10.4422 12.602 10.6875C12.9102 10.9295 13.1555 11.2327 13.3378 11.5973C13.5234 11.9586 13.6179 12.3546 13.6212 12.7855C13.6179 13.3357 13.4621 13.8262 13.1539 14.2571C12.8456 14.688 12.4181 15.026 11.8712 15.2713C11.3276 15.5166 10.7029 15.6392 9.99689 15.6392ZM9.99689 14.3814C10.4178 14.3814 10.7824 14.3118 11.0906 14.1726C11.3989 14.0301 11.6375 13.8329 11.8066 13.581C11.9756 13.3258 12.0618 13.0275 12.0651 12.6861C12.0618 12.3314 11.969 12.0182 11.7867 11.7464C11.6077 11.4747 11.3641 11.2609 11.0558 11.1051C10.7476 10.9493 10.3946 10.8714 9.99689 10.8714C9.59585 10.8714 9.23955 10.9493 8.928 11.1051C8.61645 11.2609 8.37118 11.4747 8.19221 11.7464C8.01323 12.0182 7.9254 12.3314 7.92871 12.6861C7.9254 13.0275 8.0066 13.3258 8.17232 13.581C8.34135 13.8329 8.58165 14.0301 8.8932 14.1726C9.20475 14.3118 9.57265 14.3814 9.99689 14.3814ZM9.99689 9.64347C10.335 9.64347 10.6349 9.57552 10.8968 9.43963C11.1586 9.30374 11.3641 9.11482 11.5132 8.87287C11.6657 8.63092 11.7436 8.34754 11.7469 8.02273C11.7436 7.70455 11.6673 7.42614 11.5182 7.1875C11.3724 6.94886 11.1685 6.76491 10.9067 6.63565C10.6449 6.50308 10.3416 6.43679 9.99689 6.43679C9.64557 6.43679 9.33733 6.50308 9.07218 6.63565C8.81034 6.76491 8.6065 6.94886 8.46067 7.1875C8.31484 7.42614 8.24358 7.70455 8.24689 8.02273C8.24358 8.34754 8.3165 8.63092 8.46564 8.87287C8.61479 9.11482 8.82028 9.30374 9.08212 9.43963C9.34727 9.57552 9.6522 9.64347 9.99689 9.64347Z" fill="white"/>
</svg>
