<svg width="26" height="26" viewBox="0 0 26 26" fill="none" xmlns="http://www.w3.org/2000/svg">
<g clip-path="url(#clip0_55_1070)">
<path d="M20.7822 8.25307C20.8895 7.92705 20.9485 7.57906 20.9485 7.2171C20.9485 5.38909 19.4666 3.90725 17.6386 3.90725C17.1049 3.90725 16.6011 4.03434 16.1546 4.25876C15.1516 2.0409 12.9197 0.497677 10.3273 0.497677C6.79692 0.497677 3.93504 3.35956 3.93504 6.8899C3.93504 7.43417 4.00325 7.96243 4.13126 8.46688C2.27369 9.06075 0.928467 10.801 0.928467 12.8556C0.928467 15.3999 2.99103 17.4625 5.53536 17.4625C5.53536 17.4625 18.8808 17.5215 20.5883 17.4625C22.2957 17.4035 25.0713 15.423 25.0713 12.8786C25.0713 10.3993 23.2365 8.35472 20.7822 8.25307Z" fill="url(#paint0_linear_55_1070)"/>
<path d="M20.9484 7.21763C20.9484 7.57924 20.8903 7.92759 20.7828 8.2535C20.7186 8.25065 20.6534 8.24922 20.5882 8.24922C18.9509 8.24922 17.513 9.10381 16.6965 10.3909C15.3276 9.98546 14.3289 8.71834 14.3289 7.21763C14.3289 5.38953 15.8106 3.90783 17.6387 3.90783C19.4668 3.90783 20.9484 5.38958 20.9484 7.21763Z" fill="url(#paint1_linear_55_1070)"/>
<path d="M15.8953 10.0312C14.7985 11.9721 12.7159 13.282 10.3272 13.282C6.79716 13.282 3.93512 10.4204 3.93512 6.88985C3.93512 3.35977 6.79716 0.497726 10.3272 0.497726C12.9195 0.497726 15.1516 2.0408 16.1546 4.25809C15.0716 4.80195 14.3288 5.92296 14.3288 7.2172C14.3289 8.40535 14.955 9.44734 15.8953 10.0312Z" fill="url(#paint2_linear_55_1070)"/>
<path d="M2.3679 21.7257C2.78792 21.8981 3.26811 21.6973 3.44047 21.2773L4.12419 19.5851C4.2965 19.165 4.09574 18.6849 3.67571 18.5125C3.25569 18.3402 2.7755 18.541 2.60314 18.961L1.91942 20.6532C1.74706 21.0732 1.94787 21.5534 2.3679 21.7257Z" fill="url(#paint3_linear_55_1070)"/>
<path d="M11.0339 21.7257C11.4539 21.8981 11.9341 21.6973 12.1065 21.2773L12.7902 19.5851C12.9625 19.165 12.7618 18.6849 12.3417 18.5125C11.9217 18.3402 11.4415 18.541 11.2692 18.961L10.5854 20.6532C10.4131 21.0732 10.6139 21.5534 11.0339 21.7257Z" fill="url(#paint4_linear_55_1070)"/>
<path d="M19.0818 21.7257C19.5018 21.8981 19.982 21.6973 20.1543 21.2773L20.8381 19.5851C21.0104 19.165 20.8096 18.6849 20.3896 18.5125C19.9696 18.3402 19.4894 18.541 19.317 18.961L18.6333 20.6532C18.4609 21.0732 18.6617 21.5534 19.0818 21.7257Z" fill="url(#paint5_linear_55_1070)"/>
<path d="M5.46262 25.4406C5.88265 25.6129 6.36283 25.4121 6.5352 24.9921L7.21891 23.2999C7.39123 22.8799 7.19047 22.3997 6.77044 22.2274C6.35041 22.0551 5.87023 22.2558 5.69786 22.6759L5.01415 24.3681C4.84178 24.788 5.0426 25.2683 5.46262 25.4406Z" fill="url(#paint6_linear_55_1070)"/>
<path d="M14.1296 25.4406C14.5496 25.6129 15.0298 25.4121 15.2022 24.9921L15.8859 23.2999C16.0582 22.8799 15.8575 22.3997 15.4374 22.2274C15.0174 22.0551 14.5372 22.2558 14.3649 22.6759L13.6811 24.3681C13.5088 24.788 13.7096 25.2683 14.1296 25.4406Z" fill="url(#paint7_linear_55_1070)"/>
<path d="M22.1765 25.4406C22.5965 25.6129 23.0767 25.4121 23.2491 24.9921L23.9328 23.2999C24.1051 22.8799 23.9043 22.3997 23.4843 22.2274C23.0643 22.0551 22.5841 22.2558 22.4117 22.6759L21.728 24.3681C21.5557 24.788 21.7565 25.2683 22.1765 25.4406Z" fill="url(#paint8_linear_55_1070)"/>
<path fill-rule="evenodd" clip-rule="evenodd" d="M11.6226 13.1507C15.3867 13.1597 19.6706 13.1621 20.5888 13.1303C21.8085 13.0882 23.5732 12.0655 24.4819 10.5572C24.8592 11.241 25.0718 12.0346 25.0718 12.8785C25.0718 15.4228 22.2962 17.4034 20.5888 17.4624C18.8813 17.5214 5.53585 17.4624 5.53585 17.4624C2.99152 17.4624 0.928955 15.3998 0.928955 12.8555C0.928955 12.0725 1.12431 11.3352 1.46893 10.6896C2.24411 12.1419 3.77455 13.1303 5.53585 13.1303C5.53585 13.1303 6.98892 13.1368 8.99745 13.1432C9.42658 13.2341 9.87158 13.2819 10.3278 13.2819C10.7714 13.2819 11.2044 13.2367 11.6226 13.1507Z" fill="url(#paint9_linear_55_1070)"/>
</g>
<defs>
<linearGradient id="paint0_linear_55_1070" x1="4.57469" y1="3.9412" x2="17.4756" y2="16.8421" gradientUnits="userSpaceOnUse">
<stop stop-color="#EEF4FF"/>
<stop offset="1" stop-color="#CFE7FD"/>
</linearGradient>
<linearGradient id="paint1_linear_55_1070" x1="17.1062" y1="7.14937" x2="22.0693" y2="7.14937" gradientUnits="userSpaceOnUse">
<stop stop-color="#8AAADC" stop-opacity="0"/>
<stop offset="1" stop-color="#5B88B2"/>
</linearGradient>
<linearGradient id="paint2_linear_55_1070" x1="12.0634" y1="5.1712" x2="16.8216" y2="0.460614" gradientUnits="userSpaceOnUse">
<stop stop-color="#8AAADC" stop-opacity="0"/>
<stop offset="1" stop-color="#5B89B3"/>
</linearGradient>
<linearGradient id="paint3_linear_55_1070" x1="0.751463" y1="16.0869" x2="9.71703" y2="19.3437" gradientUnits="userSpaceOnUse">
<stop offset="0.0422017" stop-color="#7FBFFA"/>
<stop offset="1"/>
</linearGradient>
<linearGradient id="paint4_linear_55_1070" x1="9.41748" y1="16.0869" x2="18.3831" y2="19.3437" gradientUnits="userSpaceOnUse">
<stop offset="0.0422017" stop-color="#7FBFFA"/>
<stop offset="1"/>
</linearGradient>
<linearGradient id="paint5_linear_55_1070" x1="17.4653" y1="16.0869" x2="26.4309" y2="19.3437" gradientUnits="userSpaceOnUse">
<stop offset="0.0422017" stop-color="#7FBFFA"/>
<stop offset="1"/>
</linearGradient>
<linearGradient id="paint6_linear_55_1070" x1="3.84619" y1="19.8017" x2="12.8118" y2="23.0585" gradientUnits="userSpaceOnUse">
<stop offset="0.0422017" stop-color="#7FBFFA"/>
<stop offset="1"/>
</linearGradient>
<linearGradient id="paint7_linear_55_1070" x1="12.5132" y1="19.8017" x2="21.4788" y2="23.0585" gradientUnits="userSpaceOnUse">
<stop offset="0.0422017" stop-color="#7FBFFA"/>
<stop offset="1"/>
</linearGradient>
<linearGradient id="paint8_linear_55_1070" x1="20.5601" y1="19.8017" x2="29.5256" y2="23.0585" gradientUnits="userSpaceOnUse">
<stop offset="0.0422017" stop-color="#7FBFFA"/>
<stop offset="1"/>
</linearGradient>
<linearGradient id="paint9_linear_55_1070" x1="12.6909" y1="12.5695" x2="12.6909" y2="19.3783" gradientUnits="userSpaceOnUse">
<stop stop-color="#A9CBFF" stop-opacity="0"/>
<stop offset="0.0625" stop-color="#D0E2FF" stop-opacity="0.0625"/>
<stop offset="1" stop-color="#5986AF"/>
</linearGradient>
<clipPath id="clip0_55_1070">
<rect width="26" height="26" fill="white"/>
</clipPath>
</defs>
</svg>
