<svg width="26" height="26" viewBox="0 0 26 26" fill="none" xmlns="http://www.w3.org/2000/svg">
<g clip-path="url(#clip0_55_999)">
<path d="M18.532 2.83181C18.9334 2.99651 19.3924 2.80462 19.5572 2.40313L19.8632 1.65737C20.0279 1.25589 19.836 0.796904 19.4345 0.632198C19.033 0.467492 18.574 0.659389 18.4093 1.06087L18.1033 1.80663C17.9385 2.20807 18.1305 2.6671 18.532 2.83181Z" fill="url(#paint0_linear_55_999)"/>
<path d="M12.0825 18.5507C11.681 18.386 11.2221 18.5779 11.0574 18.9793L10.7514 19.7251C10.5867 20.1265 10.7786 20.5855 11.1801 20.7503C11.5815 20.915 12.0405 20.723 12.2052 20.3216L12.5112 19.5758C12.676 19.1744 12.484 18.7154 12.0825 18.5507Z" fill="url(#paint1_linear_55_999)"/>
<path d="M24.9382 13.7939L24.1924 13.4879C23.791 13.3232 23.332 13.5151 23.1672 13.9166C23.0025 14.318 23.1944 14.777 23.5959 14.9418L24.3417 15.2478C24.7431 15.4125 25.2021 15.2206 25.3668 14.8191C25.5316 14.4175 25.3397 13.9586 24.9382 13.7939Z" fill="url(#paint2_linear_55_999)"/>
<path d="M5.67649 7.58965L6.42225 7.89562C6.82373 8.06033 7.28271 7.86838 7.44742 7.46695C7.61213 7.06546 7.42023 6.60648 7.01875 6.44172L6.27299 6.13575C5.8715 5.97104 5.41252 6.16294 5.24781 6.56442H5.24776C5.08311 6.96591 5.275 7.42489 5.67649 7.58965Z" fill="url(#paint3_linear_55_999)"/>
<path d="M23.1459 7.41338C23.3133 7.81375 23.7736 8.00257 24.1739 7.83519L24.9176 7.5242C25.318 7.35681 25.5068 6.89651 25.3394 6.49615C25.172 6.09578 24.7117 5.90696 24.3114 6.07434L23.5676 6.38533C23.1673 6.55277 22.9784 7.01302 23.1459 7.41338Z" fill="url(#paint4_linear_55_999)"/>
<path d="M6.44139 13.5457L5.69773 13.8567C5.29736 14.0241 5.10854 14.4843 5.27592 14.8847C5.44331 15.2851 5.90361 15.4739 6.30397 15.3065L7.04768 14.9956C7.44805 14.8282 7.63687 14.3679 7.46949 13.9675C7.302 13.5671 6.8417 13.3783 6.44139 13.5457Z" fill="url(#paint5_linear_55_999)"/>
<path d="M19.613 18.9521C19.4456 18.5517 18.9853 18.3629 18.585 18.5303C18.1846 18.6977 17.9957 19.158 18.1631 19.5583L18.4741 20.302C18.6415 20.7023 19.1018 20.8912 19.5021 20.7238C19.9026 20.5564 20.0914 20.0961 19.9239 19.6958L19.613 18.9521Z" fill="url(#paint6_linear_55_999)"/>
<path d="M12.0299 2.85388C12.4303 2.68644 12.6192 2.22619 12.4517 1.82583L12.1408 1.08216C11.9734 0.681802 11.5131 0.492926 11.1127 0.660361C10.7123 0.827747 10.5235 1.28805 10.6909 1.68841L11.0019 2.43212C11.1693 2.83244 11.6296 3.02126 12.0299 2.85388Z" fill="url(#paint7_linear_55_999)"/>
<path d="M15.3073 18.6577C19.7073 18.6577 23.2742 15.0908 23.2742 10.6908C23.2742 6.29076 19.7073 2.72385 15.3073 2.72385C10.9073 2.72385 7.34039 6.29076 7.34039 10.6908C7.34039 15.0908 10.9073 18.6577 15.3073 18.6577Z" fill="url(#paint8_linear_55_999)"/>
<path d="M15.3073 18.6577C19.7073 18.6577 23.2742 15.0908 23.2742 10.6908C23.2742 6.29076 19.7073 2.72385 15.3073 2.72385C10.9073 2.72385 7.34039 6.29076 7.34039 10.6908C7.34039 15.0908 10.9073 18.6577 15.3073 18.6577Z" fill="url(#paint9_linear_55_999)"/>
<path d="M19.551 16.6224C19.6537 16.3108 19.71 15.9782 19.71 15.6322C19.71 13.8849 18.2935 12.4685 16.5463 12.4685C16.0361 12.4685 15.5545 12.59 15.1277 12.8045C14.169 10.6845 12.0357 9.20945 9.5577 9.20945C6.18322 9.20945 3.44768 11.945 3.44768 15.3195C3.44768 15.8397 3.51289 16.3446 3.63525 16.8268C1.85968 17.3945 0.573853 19.0579 0.573853 21.0218C0.573853 23.4538 2.54536 25.4253 4.97736 25.4253H19.3657C19.3657 25.4253 23.7692 23.4538 23.7692 21.0218C23.7692 18.6519 21.897 16.7196 19.551 16.6224Z" fill="url(#paint10_linear_55_999)"/>
<path d="M19.7099 15.6327C19.7099 15.9783 19.6544 16.3113 19.5516 16.6228C19.4902 16.6201 19.4279 16.6187 19.3656 16.6187C17.8006 16.6187 16.4262 17.4356 15.6457 18.6658C14.3372 18.2783 13.3826 17.0672 13.3826 15.6327C13.3826 13.8853 14.7988 12.469 16.5462 12.469C18.2936 12.469 19.7099 13.8853 19.7099 15.6327Z" fill="url(#paint11_linear_55_999)"/>
<path d="M14.8798 18.3221C13.8315 20.1773 11.8408 21.4293 9.55761 21.4293C6.18338 21.4293 3.44769 18.6941 3.44769 15.3194C3.44769 11.9452 6.18338 9.20948 9.55761 9.20948C12.0354 9.20948 14.1689 10.6844 15.1277 12.8038C14.0925 13.3237 13.3826 14.3952 13.3826 15.6323C13.3826 16.768 13.9811 17.764 14.8798 18.3221Z" fill="url(#paint12_linear_55_999)"/>
<path d="M0.573792 21.0232C0.573792 23.4552 2.5453 25.4267 4.9773 25.4267H19.3657C19.3657 25.4267 23.7691 23.4552 23.7691 21.0232C23.7691 20.5516 23.6948 20.0975 23.5575 19.6715H0.78596C0.64864 20.0975 0.573792 20.5515 0.573792 21.0232H0.573792Z" fill="url(#paint13_linear_55_999)"/>
</g>
<defs>
<linearGradient id="paint0_linear_55_999" x1="17.6518" y1="1.23269" x2="20.2255" y2="2.19783" gradientUnits="userSpaceOnUse">
<stop stop-color="#F7E07D"/>
<stop offset="1" stop-color="#E69642"/>
</linearGradient>
<linearGradient id="paint1_linear_55_999" x1="10.2999" y1="19.1512" x2="12.8736" y2="20.1164" gradientUnits="userSpaceOnUse">
<stop stop-color="#F7E07D"/>
<stop offset="1" stop-color="#E69642"/>
</linearGradient>
<linearGradient id="paint2_linear_55_999" x1="22.2841" y1="13.6242" x2="26.1173" y2="15.0617" gradientUnits="userSpaceOnUse">
<stop stop-color="#F7E07D"/>
<stop offset="1" stop-color="#E69642"/>
</linearGradient>
<linearGradient id="paint3_linear_55_999" x1="4.36468" y1="6.27205" x2="8.19786" y2="7.70952" gradientUnits="userSpaceOnUse">
<stop stop-color="#F7E07D"/>
<stop offset="1" stop-color="#E69642"/>
</linearGradient>
<linearGradient id="paint4_linear_55_999" x1="22.442" y1="6.27954" x2="25.9227" y2="7.58482" gradientUnits="userSpaceOnUse">
<stop stop-color="#F7E07D"/>
<stop offset="1" stop-color="#E69642"/>
</linearGradient>
<linearGradient id="paint5_linear_55_999" x1="4.57202" y1="13.7509" x2="8.05278" y2="15.0561" gradientUnits="userSpaceOnUse">
<stop stop-color="#F7E07D"/>
<stop offset="1" stop-color="#E69642"/>
</linearGradient>
<linearGradient id="paint6_linear_55_999" x1="17.272" y1="18.9627" x2="20.6966" y2="20.247" gradientUnits="userSpaceOnUse">
<stop stop-color="#F7E07D"/>
<stop offset="1" stop-color="#E69642"/>
</linearGradient>
<linearGradient id="paint7_linear_55_999" x1="9.79978" y1="1.09279" x2="13.2243" y2="2.37696" gradientUnits="userSpaceOnUse">
<stop stop-color="#F7E07D"/>
<stop offset="1" stop-color="#E69642"/>
</linearGradient>
<linearGradient id="paint8_linear_55_999" x1="10.9584" y1="6.34189" x2="17.822" y2="13.2054" gradientUnits="userSpaceOnUse">
<stop stop-color="#F7E07D"/>
<stop offset="1" stop-color="#E69642"/>
</linearGradient>
<linearGradient id="paint9_linear_55_999" x1="16.0775" y1="8.62599" x2="13.6331" y2="15.1791" gradientUnits="userSpaceOnUse">
<stop stop-color="#D52C1C" stop-opacity="0"/>
<stop offset="0.2813" stop-color="#CC2C20" stop-opacity="0.281"/>
<stop offset="0.7301" stop-color="#B52B2A" stop-opacity="0.73"/>
<stop offset="1" stop-color="#A42B31"/>
</linearGradient>
<linearGradient id="paint10_linear_55_999" x1="4.0591" y1="12.5009" x2="16.3904" y2="24.8323" gradientUnits="userSpaceOnUse">
<stop stop-color="#EEF4FF"/>
<stop offset="1" stop-color="#CFE7FD"/>
</linearGradient>
<linearGradient id="paint11_linear_55_999" x1="16.0373" y1="15.5674" x2="20.7813" y2="15.5674" gradientUnits="userSpaceOnUse">
<stop stop-color="#8AAADC" stop-opacity="0"/>
<stop offset="1" stop-color="#8AAADC"/>
</linearGradient>
<linearGradient id="paint12_linear_55_999" x1="11.2171" y1="13.6766" x2="15.7652" y2="9.17401" gradientUnits="userSpaceOnUse">
<stop stop-color="#8AAADC" stop-opacity="0"/>
<stop offset="1" stop-color="#8AAADC"/>
</linearGradient>
<linearGradient id="paint13_linear_55_999" x1="12.1715" y1="22.3094" x2="12.1715" y2="26.1915" gradientUnits="userSpaceOnUse">
<stop stop-color="#A9CBFF" stop-opacity="0"/>
<stop offset="0.0625" stop-color="#D0E2FF" stop-opacity="0.0625"/>
<stop offset="1" stop-color="#AFCEFF"/>
</linearGradient>
<clipPath id="clip0_55_999">
<rect width="26" height="26" fill="white"/>
</clipPath>
</defs>
</svg>
