<svg width="23" height="26" viewBox="0 0 23 26" fill="none" xmlns="http://www.w3.org/2000/svg">
<path d="M20.7822 8.99271C20.8895 8.66669 20.9485 8.3187 20.9485 7.95674C20.9485 6.12874 19.4666 4.64689 17.6386 4.64689C17.1049 4.64689 16.6011 4.77398 16.1546 4.9984C15.1516 2.78055 12.9197 1.23732 10.3273 1.23732C6.79692 1.23732 3.93504 4.09921 3.93504 7.62955C3.93504 8.17381 4.00325 8.70207 4.13126 9.20653C2.27369 9.8004 0.928467 11.5406 0.928467 13.5952C0.928467 16.1396 2.99103 18.2021 5.53536 18.2021C5.53536 18.2021 18.8808 18.2611 20.5883 18.2021C22.2957 18.1431 25.0713 16.1626 25.0713 13.6183C25.0713 11.1389 23.2365 9.09437 20.7822 8.99271Z" fill="url(#paint0_linear_55_2081)"/>
<path d="M20.9484 7.95728C20.9484 8.31888 20.8903 8.66723 20.7828 8.99315C20.7186 8.99029 20.6534 8.98886 20.5882 8.98886C18.9509 8.98886 17.513 9.84345 16.6965 11.1305C15.3276 10.7251 14.3289 9.45799 14.3289 7.95728C14.3289 6.12917 15.8106 4.64748 17.6387 4.64748C19.4668 4.64748 20.9484 6.12922 20.9484 7.95728Z" fill="url(#paint1_linear_55_2081)"/>
<path d="M15.8953 10.7709C14.7985 12.7117 12.7159 14.0216 10.3272 14.0216C6.79716 14.0216 3.93512 11.16 3.93512 7.6295C3.93512 4.09941 6.79716 1.23737 10.3272 1.23737C12.9195 1.23737 15.1516 2.78044 16.1546 4.99773C15.0716 5.54159 14.3288 6.6626 14.3288 7.95684C14.3289 9.14499 14.955 10.187 15.8953 10.7709Z" fill="url(#paint2_linear_55_2081)"/>
<path fill-rule="evenodd" clip-rule="evenodd" d="M11.6226 13.8908C15.3867 13.8998 19.6706 13.9022 20.5888 13.8705C21.8085 13.8283 23.5732 12.8057 24.4819 11.2974C24.8592 11.9811 25.0718 12.7747 25.0718 13.6186C25.0718 16.163 22.2962 18.1435 20.5888 18.2025C18.8813 18.2615 5.53585 18.2025 5.53585 18.2025C2.99152 18.2025 0.928955 16.1399 0.928955 13.5956C0.928955 12.8126 1.12431 12.0753 1.46893 11.4297C2.24411 12.8821 3.77455 13.8705 5.53585 13.8705C5.53585 13.8705 6.98892 13.8769 8.99747 13.8834C9.42659 13.9742 9.87159 14.022 10.3278 14.022C10.7714 14.022 11.2044 13.9768 11.6226 13.8908Z" fill="url(#paint3_linear_55_2081)"/>
<path d="M10.2141 20.7364C10.2141 20.2236 10.6298 19.8079 11.1427 19.8079H24.1427C24.6555 19.8079 25.0713 20.2236 25.0713 20.7364C25.0713 21.2493 24.6555 21.665 24.1427 21.665H11.1427C10.6298 21.665 10.2141 21.2493 10.2141 20.7364Z" fill="#EAF2FF"/>
<path d="M10.2141 20.7364C10.2141 20.2236 10.6298 19.8079 11.1427 19.8079H24.1427C24.6555 19.8079 25.0713 20.2236 25.0713 20.7364C25.0713 21.2493 24.6555 21.665 24.1427 21.665H11.1427C10.6298 21.665 10.2141 21.2493 10.2141 20.7364Z" fill="url(#paint4_linear_55_2081)"/>
<path d="M0.928955 20.7364C0.928955 20.2236 1.34469 19.8079 1.85753 19.8079H8.66705C9.17989 19.8079 9.59562 20.2236 9.59562 20.7364C9.59562 21.2493 9.17989 21.665 8.66705 21.665H1.85753C1.34469 21.665 0.928955 21.2493 0.928955 20.7364Z" fill="#EAF2FF"/>
<path d="M0.928955 20.7364C0.928955 20.2236 1.34469 19.8079 1.85753 19.8079H8.66705C9.17989 19.8079 9.59562 20.2236 9.59562 20.7364C9.59562 21.2493 9.17989 21.665 8.66705 21.665H1.85753C1.34469 21.665 0.928955 21.2493 0.928955 20.7364Z" fill="url(#paint5_linear_55_2081)"/>
<path d="M0.928955 23.8341C0.928955 23.3213 1.34469 22.9055 1.85753 22.9055H16.7147C17.2275 22.9055 17.6432 23.3213 17.6432 23.8341C17.6432 24.3469 17.2275 24.7627 16.7147 24.7627H1.85753C1.34469 24.7627 0.928955 24.3469 0.928955 23.8341Z" fill="#EAF2FF"/>
<path d="M0.928955 23.8341C0.928955 23.3213 1.34469 22.9055 1.85753 22.9055H16.7147C17.2275 22.9055 17.6432 23.3213 17.6432 23.8341C17.6432 24.3469 17.2275 24.7627 16.7147 24.7627H1.85753C1.34469 24.7627 0.928955 24.3469 0.928955 23.8341Z" fill="url(#paint6_linear_55_2081)"/>
<path d="M18.262 23.8341C18.262 23.3213 18.6777 22.9055 19.1905 22.9055H24.1429C24.6558 22.9055 25.0715 23.3213 25.0715 23.8341C25.0715 24.3469 24.6558 24.7627 24.1429 24.7627H19.1905C18.6777 24.7627 18.262 24.3469 18.262 23.8341Z" fill="#EAF2FF"/>
<path d="M18.262 23.8341C18.262 23.3213 18.6777 22.9055 19.1905 22.9055H24.1429C24.6558 22.9055 25.0715 23.3213 25.0715 23.8341C25.0715 24.3469 24.6558 24.7627 24.1429 24.7627H19.1905C18.6777 24.7627 18.262 24.3469 18.262 23.8341Z" fill="url(#paint7_linear_55_2081)"/>
<defs>
<linearGradient id="paint0_linear_55_2081" x1="4.57469" y1="4.68084" x2="17.4756" y2="17.5817" gradientUnits="userSpaceOnUse">
<stop stop-color="#EEF4FF"/>
<stop offset="1" stop-color="#CFE7FD"/>
</linearGradient>
<linearGradient id="paint1_linear_55_2081" x1="17.1062" y1="7.88901" x2="22.0693" y2="7.88901" gradientUnits="userSpaceOnUse">
<stop stop-color="#8AAADC" stop-opacity="0"/>
<stop offset="1" stop-color="#5B88B2"/>
</linearGradient>
<linearGradient id="paint2_linear_55_2081" x1="12.0634" y1="5.91084" x2="16.8216" y2="1.20026" gradientUnits="userSpaceOnUse">
<stop stop-color="#8AAADC" stop-opacity="0"/>
<stop offset="1" stop-color="#5B89B3"/>
</linearGradient>
<linearGradient id="paint3_linear_55_2081" x1="12.6909" y1="13.3097" x2="12.6909" y2="20.1184" gradientUnits="userSpaceOnUse">
<stop stop-color="#A9CBFF" stop-opacity="0"/>
<stop offset="0.0625" stop-color="#D0E2FF" stop-opacity="0.0625"/>
<stop offset="1" stop-color="#5986AF"/>
</linearGradient>
<linearGradient id="paint4_linear_55_2081" x1="14.5951" y1="22.5936" x2="30.0222" y2="15.511" gradientUnits="userSpaceOnUse">
<stop stop-color="#8AAADC" stop-opacity="0"/>
<stop offset="1" stop-color="#5B89B3"/>
</linearGradient>
<linearGradient id="paint5_linear_55_2081" x1="3.48451" y1="22.5936" x2="22.614" y2="30.2953" gradientUnits="userSpaceOnUse">
<stop stop-color="#8AAADC" stop-opacity="0"/>
<stop offset="1" stop-color="#5B89B3"/>
</linearGradient>
<linearGradient id="paint6_linear_55_2081" x1="5.85753" y1="25.6912" x2="44.302" y2="21.288" gradientUnits="userSpaceOnUse">
<stop stop-color="#8AAADC" stop-opacity="0"/>
<stop offset="1" stop-color="#5B89B3"/>
</linearGradient>
<linearGradient id="paint7_linear_55_2081" x1="20.2699" y1="25.6912" x2="28.468" y2="23.9662" gradientUnits="userSpaceOnUse">
<stop stop-color="#8AAADC" stop-opacity="0"/>
<stop offset="1" stop-color="#5B89B3"/>
</linearGradient>
</defs>
</svg>
