<svg width="26" height="26" viewBox="0 0 26 26" fill="none" xmlns="http://www.w3.org/2000/svg">
<g clip-path="url(#clip0_55_1145)">
<path d="M20.7822 8.41944C20.8895 8.09342 20.9485 7.74543 20.9485 7.38347C20.9485 5.55546 19.4666 4.07362 17.6386 4.07362C17.1049 4.07362 16.6011 4.20071 16.1546 4.42513C15.1516 2.20727 12.9197 0.664047 10.3273 0.664047C6.79692 0.664047 3.93504 3.52593 3.93504 7.05627C3.93504 7.60054 4.00325 8.1288 4.13126 8.63325C2.27369 9.22712 0.928467 10.9673 0.928467 13.022C0.928467 15.5663 2.99103 17.6288 5.53536 17.6288C5.53536 17.6288 18.8808 17.6879 20.5883 17.6288C22.2957 17.5698 25.0713 15.5893 25.0713 13.045C25.0713 10.5657 23.2365 8.5211 20.7822 8.41944Z" fill="url(#paint0_linear_55_1145)"/>
<path d="M20.9484 7.384C20.9484 7.74561 20.8903 8.09396 20.7828 8.41987C20.7186 8.41702 20.6534 8.41559 20.5882 8.41559C18.9509 8.41559 17.513 9.27018 16.6965 10.5572C15.3276 10.1518 14.3289 8.88471 14.3289 7.384C14.3289 5.5559 15.8106 4.0742 17.6387 4.0742C19.4668 4.0742 20.9484 5.55595 20.9484 7.384Z" fill="url(#paint1_linear_55_1145)"/>
<path d="M15.8953 10.1976C14.7985 12.1385 12.7159 13.4483 10.3272 13.4483C6.79716 13.4483 3.93512 10.5868 3.93512 7.05622C3.93512 3.52614 6.79716 0.664097 10.3272 0.664097C12.9195 0.664097 15.1516 2.20717 16.1546 4.42446C15.0716 4.96832 14.3288 6.08933 14.3288 7.38357C14.3289 8.57172 14.955 9.61371 15.8953 10.1976Z" fill="url(#paint2_linear_55_1145)"/>
<path fill-rule="evenodd" clip-rule="evenodd" d="M11.6226 13.3172C15.3867 13.3262 19.6706 13.3286 20.5888 13.2968C21.8085 13.2547 23.5732 12.232 24.4819 10.7237C24.8592 11.4075 25.0718 12.201 25.0718 13.045C25.0718 15.5893 22.2962 17.5698 20.5888 17.6289C18.8813 17.6879 5.53585 17.6289 5.53585 17.6289C2.99152 17.6289 0.928955 15.5663 0.928955 13.022C0.928955 12.239 1.12431 11.5017 1.46893 10.8561C2.24411 12.3084 3.77455 13.2968 5.53585 13.2968C5.53585 13.2968 6.98892 13.3033 8.99746 13.3097C9.42658 13.4006 9.87159 13.4484 10.3278 13.4484C10.7714 13.4484 11.2044 13.4032 11.6226 13.3172Z" fill="url(#paint3_linear_55_1145)"/>
<path d="M2.3679 25.2742C2.78792 25.4465 3.26811 25.2458 3.44047 24.8257L5.23563 20.3686C5.40795 19.9486 5.20718 19.4684 4.78716 19.2961C4.36713 19.1238 3.88695 19.3245 3.71458 19.7446L1.91942 24.2017C1.74706 24.6217 1.94787 25.1019 2.3679 25.2742Z" fill="url(#paint4_linear_55_1145)"/>
<path d="M7.04563 25.2742C7.46566 25.4465 7.94584 25.2458 8.11821 24.8257L9.91337 20.3686C10.0857 19.9486 9.88492 19.4684 9.46489 19.2961C9.04486 19.1238 8.56468 19.3245 8.39232 19.7446L6.59716 24.2017C6.42479 24.6217 6.6256 25.1019 7.04563 25.2742Z" fill="url(#paint5_linear_55_1145)"/>
<path d="M11.7234 25.2742C12.1434 25.4465 12.6236 25.2458 12.7959 24.8257L14.5911 20.3686C14.7634 19.9486 14.5627 19.4684 14.1426 19.2961C13.7226 19.1238 13.2424 19.3245 13.07 19.7446L11.2749 24.2017C11.1025 24.6217 11.3033 25.1019 11.7234 25.2742Z" fill="url(#paint6_linear_55_1145)"/>
<path d="M16.4011 25.2742C16.8211 25.4465 17.3013 25.2458 17.4737 24.8257L19.2688 20.3686C19.4411 19.9486 19.2404 19.4684 18.8204 19.2961C18.4003 19.1238 17.9201 19.3245 17.7478 19.7446L15.9526 24.2017C15.7803 24.6217 15.9811 25.1019 16.4011 25.2742Z" fill="url(#paint7_linear_55_1145)"/>
<path d="M21.0788 25.2742C21.4989 25.4465 21.979 25.2458 22.1514 24.8257L23.9466 20.3686C24.1189 19.9486 23.9181 19.4684 23.4981 19.2961C23.0781 19.1238 22.5979 19.3245 22.4255 19.7446L20.6304 24.2017C20.458 24.6217 20.6588 25.1019 21.0788 25.2742Z" fill="url(#paint8_linear_55_1145)"/>
</g>
<defs>
<linearGradient id="paint0_linear_55_1145" x1="4.57469" y1="4.10757" x2="17.4756" y2="17.0085" gradientUnits="userSpaceOnUse">
<stop stop-color="#EEF4FF"/>
<stop offset="1" stop-color="#CFE7FD"/>
</linearGradient>
<linearGradient id="paint1_linear_55_1145" x1="17.1062" y1="7.31574" x2="22.0693" y2="7.31574" gradientUnits="userSpaceOnUse">
<stop stop-color="#8AAADC" stop-opacity="0"/>
<stop offset="1" stop-color="#5B88B2"/>
</linearGradient>
<linearGradient id="paint2_linear_55_1145" x1="12.0634" y1="5.33757" x2="16.8216" y2="0.626984" gradientUnits="userSpaceOnUse">
<stop stop-color="#8AAADC" stop-opacity="0"/>
<stop offset="1" stop-color="#5B89B3"/>
</linearGradient>
<linearGradient id="paint3_linear_55_1145" x1="12.6909" y1="12.736" x2="12.6909" y2="19.5448" gradientUnits="userSpaceOnUse">
<stop stop-color="#A9CBFF" stop-opacity="0"/>
<stop offset="0.0625" stop-color="#D0E2FF" stop-opacity="0.0625"/>
<stop offset="1" stop-color="#5986AF"/>
</linearGradient>
<linearGradient id="paint4_linear_55_1145" x1="1.86531" y1="16.8702" x2="10.8309" y2="20.127" gradientUnits="userSpaceOnUse">
<stop offset="0.0422017" stop-color="#7FBFFA"/>
<stop offset="1"/>
</linearGradient>
<linearGradient id="paint5_linear_55_1145" x1="6.54304" y1="16.8702" x2="15.5086" y2="20.127" gradientUnits="userSpaceOnUse">
<stop offset="0.0422017" stop-color="#7FBFFA"/>
<stop offset="1"/>
</linearGradient>
<linearGradient id="paint6_linear_55_1145" x1="11.2208" y1="16.8702" x2="20.1863" y2="20.127" gradientUnits="userSpaceOnUse">
<stop offset="0.0422017" stop-color="#7FBFFA"/>
<stop offset="1"/>
</linearGradient>
<linearGradient id="paint7_linear_55_1145" x1="15.8985" y1="16.8702" x2="24.8641" y2="20.127" gradientUnits="userSpaceOnUse">
<stop offset="0.0422017" stop-color="#7FBFFA"/>
<stop offset="1"/>
</linearGradient>
<linearGradient id="paint8_linear_55_1145" x1="20.5762" y1="16.8702" x2="29.5418" y2="20.127" gradientUnits="userSpaceOnUse">
<stop offset="0.0422017" stop-color="#7FBFFA"/>
<stop offset="1"/>
</linearGradient>
<clipPath id="clip0_55_1145">
<rect width="26" height="26" fill="white"/>
</clipPath>
</defs>
</svg>
