<svg width="26" height="26" viewBox="0 0 26 26" fill="none" xmlns="http://www.w3.org/2000/svg">
<g opacity="0.6">
<path d="M22.6848 6.79806C22.7592 6.57202 22.8001 6.33076 22.8001 6.0798C22.8001 4.81243 21.7727 3.78504 20.5053 3.78504C20.1353 3.78504 19.786 3.87316 19.4764 4.02875C18.7811 2.49109 17.2336 1.42115 15.4363 1.42115C12.9887 1.42115 11.0045 3.40533 11.0045 5.85296C11.0045 6.2303 11.0518 6.59655 11.1405 6.94629C9.85264 7.35803 8.91998 8.56455 8.91998 9.98903C8.91998 11.753 10.35 13.1831 12.114 13.1831H22.5504C22.5504 13.1831 25.7444 11.753 25.7444 9.98903C25.7444 8.27008 24.3864 6.86854 22.6848 6.79806Z" fill="url(#paint0_linear_55_1022)"/>
<path d="M22.6849 6.79806C22.7593 6.57202 22.8002 6.33076 22.8002 6.0798C22.8002 4.81243 21.7727 3.78504 20.5054 3.78504C20.1353 3.78504 19.786 3.87316 19.4765 4.02875C18.7811 2.49109 17.2337 1.42115 15.4363 1.42115C12.9887 1.42115 11.0045 3.40533 11.0045 5.85296C11.0045 6.2303 11.0518 6.59655 11.1406 6.94629C9.8527 7.35803 8.92004 8.56455 8.92004 9.98903C8.92004 11.753 10.35 13.1831 12.1141 13.1831H22.5504C22.5504 13.1831 25.7444 11.753 25.7444 9.98903C25.7444 8.27008 24.3865 6.86854 22.6849 6.79806Z" fill="url(#paint1_linear_55_1022)"/>
<path d="M22.7996 6.07915C22.7996 6.32986 22.7594 6.57137 22.6848 6.79734C22.6403 6.79536 22.5951 6.79437 22.5499 6.79437C21.4148 6.79437 20.4178 7.38686 19.8517 8.27919C18.9027 7.99812 18.2102 7.11961 18.2102 6.07915C18.2102 4.8117 19.2375 3.78443 20.5049 3.78443C21.7724 3.78443 22.7996 4.81174 22.7996 6.07915Z" fill="url(#paint2_linear_55_1022)"/>
<path d="M19.2972 8.03083C18.5369 9.37646 17.0929 10.2846 15.4369 10.2846C12.9894 10.2846 11.0051 8.30066 11.0051 5.85289C11.0051 3.40543 12.9894 1.42115 15.4369 1.42115C17.2341 1.42115 18.7816 2.49098 19.477 4.02825C18.7262 4.40532 18.2112 5.18253 18.2112 6.07984C18.2113 6.9036 18.6454 7.62602 19.2972 8.03083Z" fill="url(#paint3_linear_55_1022)"/>
</g>
<path d="M20.1069 15.3679C20.2142 15.0419 20.2732 14.6939 20.2732 14.332C20.2732 12.504 18.7913 11.0221 16.9633 11.0221C16.4296 11.0221 15.9258 11.1492 15.4793 11.3736C14.4763 9.15578 12.2444 7.61255 9.65197 7.61255C6.12163 7.61255 3.25974 10.4744 3.25974 14.0048C3.25974 14.549 3.32795 15.0773 3.45597 15.5818C1.59839 16.1756 0.253174 17.9158 0.253174 19.9705C0.253174 22.5148 2.31574 24.5774 4.86007 24.5774H19.913C19.913 24.5774 24.5198 22.5148 24.5198 19.9705C24.5198 17.4911 22.5612 15.4696 20.1069 15.3679Z" fill="url(#paint4_linear_55_1022)"/>
<path d="M20.2731 14.3325C20.2731 14.6941 20.215 15.0425 20.1075 15.3684C20.0433 15.3655 19.9781 15.3641 19.9129 15.3641C18.2757 15.3641 16.8377 16.2187 16.0212 17.5057C14.6523 17.1003 13.6536 15.8332 13.6536 14.3325C13.6536 12.5044 15.1353 11.0227 16.9634 11.0227C18.7915 11.0227 20.2731 12.5045 20.2731 14.3325Z" fill="url(#paint5_linear_55_1022)"/>
<path d="M15.22 17.1461C14.1232 19.087 12.0406 20.3969 9.65195 20.3969C6.12187 20.3969 3.25983 17.5353 3.25983 14.0047C3.25983 10.4746 6.12187 7.6126 9.65195 7.6126C12.2442 7.6126 14.4763 9.15568 15.4793 11.373C14.3963 11.9168 13.6536 13.0378 13.6536 14.3321C13.6536 15.5202 14.2797 16.5622 15.22 17.1461Z" fill="url(#paint6_linear_55_1022)"/>
<path d="M0.253174 19.972C0.253174 22.5163 2.31574 24.5788 4.86007 24.5788H19.913C19.913 24.5788 24.5198 22.5163 24.5198 19.972C24.5198 19.4786 24.442 19.0035 24.2985 18.5579H0.475142C0.33148 19.0035 0.253174 19.4785 0.253174 19.972H0.253174Z" fill="url(#paint7_linear_55_1022)"/>
<defs>
<linearGradient id="paint0_linear_55_1022" x1="11.448" y1="3.80858" x2="14.1819" y2="12.564" gradientUnits="userSpaceOnUse">
<stop stop-color="#EEF4FF"/>
<stop offset="1" stop-color="#CFE7FD"/>
</linearGradient>
<linearGradient id="paint1_linear_55_1022" x1="16.6581" y1="6.68305" x2="14.801" y2="10.3973" gradientUnits="userSpaceOnUse">
<stop stop-color="#EEF4FF" stop-opacity="0"/>
<stop offset="1" stop-color="#B3C9EC"/>
</linearGradient>
<linearGradient id="paint2_linear_55_1022" x1="20.1357" y1="6.03183" x2="23.5768" y2="6.03183" gradientUnits="userSpaceOnUse">
<stop stop-color="#8AAADC" stop-opacity="0"/>
<stop offset="1" stop-color="#8AAADC"/>
</linearGradient>
<linearGradient id="paint3_linear_55_1022" x1="16.6406" y1="4.66132" x2="19.9395" y2="1.39542" gradientUnits="userSpaceOnUse">
<stop stop-color="#8AAADC" stop-opacity="0"/>
<stop offset="1" stop-color="#8AAADC"/>
</linearGradient>
<linearGradient id="paint4_linear_55_1022" x1="3.89939" y1="11.0561" x2="16.8003" y2="23.957" gradientUnits="userSpaceOnUse">
<stop stop-color="#EEF4FF"/>
<stop offset="1" stop-color="#CFE7FD"/>
</linearGradient>
<linearGradient id="paint5_linear_55_1022" x1="16.4309" y1="14.2642" x2="21.394" y2="14.2642" gradientUnits="userSpaceOnUse">
<stop stop-color="#8AAADC" stop-opacity="0"/>
<stop offset="1" stop-color="#8AAADC"/>
</linearGradient>
<linearGradient id="paint6_linear_55_1022" x1="11.3881" y1="12.2861" x2="16.1463" y2="7.57549" gradientUnits="userSpaceOnUse">
<stop stop-color="#8AAADC" stop-opacity="0"/>
<stop offset="1" stop-color="#8AAADC"/>
</linearGradient>
<linearGradient id="paint7_linear_55_1022" x1="12.3865" y1="21.3176" x2="12.3865" y2="25.379" gradientUnits="userSpaceOnUse">
<stop stop-color="#A9CBFF" stop-opacity="0"/>
<stop offset="0.0625" stop-color="#D0E2FF" stop-opacity="0.0625"/>
<stop offset="1" stop-color="#AFCEFF"/>
</linearGradient>
</defs>
</svg>
